<?xml version="1.0" encoding="utf-8"?>
<!-- Generator: Adobe Illustrator 24.3.0, SVG Export Plug-In . SVG Version: 6.00 Build 0)  -->
<svg version="1.1" id="Capa_1" xmlns="http://www.w3.org/2000/svg" xmlns:xlink="http://www.w3.org/1999/xlink" x="0px" y="0px"
	 viewBox="0 0 40 40" style="enable-background:new 0 0 40 40;" xml:space="preserve">
<path d="M-81.5,15.1L-94.1,2.4c-3.3-3.3-8.5-3.3-11.8,0l-12.6,12.7c-0.9,0.9-1.5,2.2-1.5,3.5V35c0,2.8,2.2,5,5,5h30c2.8,0,5-2.2,5-5
	V18.6C-80,17.3-80.5,16-81.5,15.1z M-95,36.7h-10v-6.6c0-2.8,2.2-5,5-5s5,2.2,5,5V36.7z M-83.3,35c0,0.9-0.7,1.7-1.7,1.7h-6.7v-6.6
	c0-4.6-3.7-8.3-8.3-8.3s-8.3,3.7-8.3,8.3v6.6h-6.7c-0.9,0-1.7-0.7-1.7-1.7V18.6c0-0.4,0.2-0.9,0.5-1.2l12.6-12.6
	c2-1.9,5.1-1.9,7.1,0l12.6,12.7c0.3,0.3,0.5,0.7,0.5,1.2V35z"/>
<g>
	<path d="M-40,10c-3.7,0-6.7,3-6.7,6.7s3,6.7,6.7,6.7s6.7-3,6.7-6.7S-36.3,10-40,10z M-40,20c-1.8,0-3.3-1.5-3.3-3.3
		s1.5-3.3,3.3-3.3s3.3,1.5,3.3,3.3S-38.2,20-40,20z"/>
	<path d="M-40,40c-2.8,0-5.5-1.4-7.2-3.7c-6.4-8.8-9.6-15.3-9.6-19.6C-56.8,7.5-49.3,0-40,0c9.3,0,16.8,7.5,16.8,16.8
		c0,4.2-3.2,10.8-9.6,19.6C-34.5,38.6-37.2,40-40,40z M-40,3.6c-7.2,0-13.1,5.9-13.1,13.1c0,3.3,3.2,9.5,8.9,17.4
		c1.7,2.3,5,2.9,7.3,1.2c0.4-0.3,0.8-0.7,1.2-1.2c5.7-7.9,8.9-14.1,8.9-17.4C-26.9,9.5-32.8,3.6-40,3.6z"/>
</g>
<path d="M20,10c-3.7,0-6.7,3-6.7,6.7s3,6.7,6.7,6.7s6.7-3,6.7-6.7S23.7,10,20,10z M20,20c-1.8,0-3.3-1.5-3.3-3.3
	c0-1.8,1.5-3.3,3.3-3.3c1.8,0,3.3,1.5,3.3,3.3C23.3,18.5,21.8,20,20,20z M40,30.8c-0.1-0.8-0.4-1.5-1-2.1l-5.6-5.6c0,0,0,0,0,0l0,0
	c0,0,0,0,0,0c-0.1-0.5,0.1-1.2,0.5-1.4c0.8-0.5,1.5-1.3,2-2.2c0.5-0.9,0.7-1.8,0.7-2.8c0-1-0.2-2-0.7-2.8c-0.5-0.9-1.2-1.6-2-2.2
	c-0.4-0.3-0.7-0.8-0.6-1.3c0.2-1,0.2-2-0.1-3c-0.5-1.9-2.1-3.4-4-4c-1-0.3-2-0.3-3-0.1c-0.5,0.1-1-0.1-1.3-0.6
	c-0.5-0.8-1.3-1.5-2.2-2c-1.7-1-3.9-1-5.6,0c-0.9,0.5-1.6,1.2-2.2,2c-0.3,0.4-0.8,0.7-1.3,0.6c-1-0.2-2-0.2-3,0.1
	c-1.9,0.5-3.4,2.1-4,4c-0.3,1-0.3,2-0.1,3c0.1,0.5-0.1,1-0.6,1.3c-0.8,0.5-1.5,1.3-2,2.2c-0.5,0.9-0.7,1.8-0.7,2.8
	c0,1,0.2,2,0.7,2.8c0.5,0.9,1.2,1.6,2,2.2c0.4,0.3,0.6,1,0.5,1.5c0,0,0,0,0,0c0,0,0,0,0,0L1,28.7c-0.6,0.6-0.9,1.3-1,2.1
	c-0.2,1.9,1.2,3.6,3.1,3.8l2,0.2l0.2,2c0.1,0.8,0.4,1.5,1,2.1c0.4,0.4,0.8,0.7,1.3,0.8C8,39.9,8.4,40,8.8,40c0.9,0,1.8-0.4,2.5-1
	l6.2-6.2c0.8,0.4,1.7,0.6,2.5,0.6c0.9,0,1.7-0.2,2.5-0.6l6.2,6.2c0.7,0.7,1.6,1,2.5,1c0.4,0,0.8-0.1,1.2-0.2
	c0.5-0.2,0.9-0.5,1.3-0.8c0.6-0.6,0.9-1.3,1-2.1l0.2-2l2-0.2C38.8,34.5,40.2,32.7,40,30.8L40,30.8z M8.7,36.7l-0.1-0.1l-0.5-4.6
	l-4.7-0.5c-0.1,0-0.1-0.1-0.1-0.3l3.9-3.9c0.7,1.3,2,2.3,3.5,2.7c1,0.3,2,0.3,3,0.1c0.4-0.1,0.9,0.1,1.2,0.5L8.7,36.7L8.7,36.7z
	 M22.2,28.8c-0.2,0.4-0.6,0.7-1,0.9c-0.7,0.4-1.7,0.4-2.4,0c-0.4-0.2-0.7-0.5-1-0.9c-0.9-1.3-2.3-2.1-3.8-2.1c-0.3,0-0.6,0-1,0.1
	c-0.4,0.1-0.9,0.1-1.4-0.1c-0.8-0.2-1.5-0.9-1.7-1.7c-0.1-0.5-0.1-0.9-0.1-1.4c0.4-1.8-0.4-3.8-2-4.8c-0.4-0.2-0.7-0.6-0.9-1
	c-0.2-0.4-0.3-0.8-0.3-1.2c0-0.4,0.1-0.9,0.3-1.2c0.2-0.4,0.5-0.7,0.9-1c1.6-1,2.4-3,2-4.8C9.8,9.2,9.8,8.8,9.9,8.3
	c0.2-0.8,0.9-1.5,1.7-1.7c0.5-0.1,0.9-0.1,1.3-0.1c1.8,0.4,3.8-0.4,4.8-2c0.2-0.4,0.6-0.7,1-0.9c0.7-0.4,1.7-0.4,2.4,0
	c0.4,0.2,0.7,0.5,1,0.9c1,1.6,3,2.4,4.8,2c0.4-0.1,0.9-0.1,1.4,0.1c0.8,0.2,1.5,0.9,1.7,1.7c0.1,0.5,0.1,0.9,0.1,1.4
	c-0.4,1.8,0.4,3.8,2,4.8c0.4,0.2,0.7,0.6,0.9,1l0,0c0.2,0.4,0.3,0.8,0.3,1.2c0,0.4-0.1,0.9-0.3,1.2c-0.2,0.4-0.5,0.7-0.9,1
	c-1.6,1-2.4,3-2,4.8c0.1,0.4,0.1,0.9-0.1,1.4c-0.2,0.8-0.9,1.5-1.7,1.7c-0.5,0.1-0.9,0.2-1.3,0.1C25.2,26.4,23.2,27.2,22.2,28.8
	L22.2,28.8z M36.5,31.4l-4.7,0.5l-0.5,4.6l-0.1,0.1l-0.2,0h0L25,30.5c0.3-0.4,0.8-0.6,1.2-0.5c1,0.2,2,0.2,3-0.1
	c1.5-0.4,2.7-1.4,3.5-2.7l4,4C36.7,31.3,36.6,31.3,36.5,31.4L36.5,31.4z M6.6,23.2L6.6,23.2C6.6,23.1,6.6,23.1,6.6,23.2
	C6.6,23.1,6.6,23.2,6.6,23.2L6.6,23.2z"/>
<g>
	<path d="M80,20.8c5.8,0,10.4-4.7,10.4-10.4S85.8,0,80,0S69.6,4.7,69.6,10.4C69.6,16.2,74.3,20.8,80,20.8z M80,3.5
		c3.8,0,6.9,3.1,6.9,6.9s-3.1,6.9-6.9,6.9s-6.9-3.1-6.9-6.9S76.2,3.5,80,3.5z"/>
	<path d="M80,22.6c-8.6,0-15.6,7-15.6,15.6c0,1,0.8,1.7,1.7,1.7c1,0,1.7-0.8,1.7-1.7c0-6.7,5.4-12.2,12.2-12.2s12.2,5.4,12.2,12.2
		c0,1,0.8,1.7,1.7,1.7c1,0,1.7-0.8,1.7-1.7C95.6,29.6,88.6,22.7,80,22.6z"/>
</g>
</svg>
