<?xml version="1.0" encoding="utf-8"?>
<!-- Generator: Adobe Illustrator 24.3.0, SVG Export Plug-In . SVG Version: 6.00 Build 0)  -->
<svg version="1.1" id="Capa_1" xmlns="http://www.w3.org/2000/svg" xmlns:xlink="http://www.w3.org/1999/xlink" x="0px" y="0px"
	 viewBox="0 0 1024 1024" style="enable-background:new 0 0 1024 1024;" xml:space="preserve">
<style type="text/css">
	.st0{fill:#17C379;}
</style>
<g>
	<g>
		<g>
			<path class="st0" d="M573.4,690.4c-4.2-2.6-8.2-5.4-12.2-8.3c-0.9-0.7-1.8-1.4-2.7-2c2,1.5,0.1,0.1-0.7-0.6
				c-2.1-1.6-4.1-3.3-6.1-5.1c-7.3-6.3-14.1-13.1-20.5-20.3c-1.6-1.8-3.2-3.7-4.8-5.6c-0.7-0.9-1.4-1.8-2.1-2.6
				c-0.4-0.4-0.7-0.9-1.1-1.3c-1.3-1.6,1.3,1.8,0.1,0.2c-2.9-3.9-5.8-7.9-8.5-12c-5.3-8-10.1-16.4-14.4-25.1
				c-1.1-2.2-2.1-4.4-3.2-6.7c-0.5-1-0.9-2.1-1.4-3.1c-0.2-0.5-0.4-1-0.7-1.6c0.5,1.1,0.7,1.6,0.1,0.2c-1.8-4.6-3.6-9.2-5.2-13.8
				c-3.1-9.3-5.7-18.8-7.6-28.5c-0.4-2.2-0.8-4.5-1.2-6.7c-0.2-1.1-0.4-2.2-0.5-3.4c-0.1-0.6-0.2-1.1-0.2-1.7
				c-0.3-2.1,0.4,3.5,0-0.2c-0.6-4.7-1-9.4-1.3-14.1c-0.6-9.8-0.5-19.6,0.3-29.4c0.2-2.3,0.4-4.5,0.7-6.8c0.1-0.8,0.7-4.8,0.1-1.3
				c0.2-1.3,0.4-2.6,0.6-3.9c0.9-5.4,2-10.8,3.3-16.1c2.7-11.2,6.2-22.2,10.1-33c2-5.5,4.2-11,6.4-16.5c1-2.5,2.1-5,3.1-7.6
				c0-0.1,0.9-2.1,0.3-0.8c-0.5,1.3,0.3-0.8,0.4-0.8c0.7-1.7,1.4-3.3,2.1-5c4.6-10.7,9.3-21.3,13.8-32c9.5-22.4,18.3-45.1,23.7-68.9
				c5.1-22.5,7.8-45.8,7.2-68.9C550,191.9,536,147.5,510.5,110c-3.7-5.4-7.6-10.6-11.7-15.8c-4.5-5.8-15.2-5.1-19.9,0
				c-5.7,6.2-4.8,13.6,0,19.9c-1.3-1.7,0.7,1,1.1,1.4c0.8,1.1,1.6,2.2,2.4,3.2c1.8,2.5,3.6,5.1,5.3,7.6c3.1,4.7,6.1,9.5,8.9,14.5
				c2.7,4.8,5.3,9.8,7.7,14.8c1.1,2.3,2.1,4.6,3.1,7c-0.9-2.2,0.2,0.6,0.5,1.3c0.6,1.6,1.2,3.1,1.8,4.7c3.7,10,6.7,20.2,9,30.6
				c1.1,5.3,2.1,10.6,2.8,16c0.2,1.7-0.1-0.4-0.1-0.6c0.1,0.8,0.2,1.7,0.3,2.5c0.1,1.2,0.3,2.5,0.4,3.7c0.3,2.7,0.5,5.4,0.7,8.1
				c0.7,11,0.6,22.1-0.2,33.1c-0.2,2.8-0.5,5.6-0.8,8.4c-0.1,1.3-0.3,2.6-0.4,3.9c-0.1,0.6-0.2,1.3-0.2,1.9c-0.3,2.3,0.3-2.1,0,0.2
				c-0.9,5.7-1.8,11.3-3,16.9c-4.7,22.9-12.6,44.8-21.6,66.4c-0.4,0.8-0.7,1.7-1.1,2.5c0.1-0.3,0.7-1.7,0.1-0.2
				c-0.5,1.3-1.1,2.5-1.6,3.8c-1.2,2.7-2.3,5.4-3.5,8.1c-2.4,5.4-4.7,10.9-7.1,16.3c-5,11.5-9.9,23.1-14.3,34.9
				c-8.3,21.9-14.5,44.2-17.1,67.5c-4.6,40.8,3.3,82.1,19.6,119.5c16.4,37.4,42.6,70.2,75.5,94.4c4,2.9,8,5.7,12.2,8.3
				c6.2,3.9,15.8,1.5,19.2-5C582.1,702.7,580.1,694.6,573.4,690.4L573.4,690.4z"/>
		</g>
		<g>
			<path class="st0" d="M566.3,689.9c-1.3-0.2-3.2-0.5-0.7-0.1c-1.3-0.2-2.6-0.4-3.9-0.6c-2.4-0.4-4.8-0.8-7.2-1.2
				c-5-0.9-10-2-15-3.2c-9.7-2.3-19.2-5.2-28.6-8.5c-4.9-1.7-9.8-3.6-14.6-5.6c-2.5-1,1.6,0.7-0.9-0.4c-1.1-0.5-2.1-0.9-3.2-1.4
				c-2.5-1.1-5-2.2-7.4-3.4c-9.3-4.4-18.5-9.3-27.3-14.7c-8.7-5.2-17.2-10.9-25.4-16.9c-1.1-0.8-2.2-1.6-3.3-2.5
				c-2.1-1.6,1.2,1-0.9-0.7c-2.1-1.7-4.3-3.4-6.4-5.1c-3.9-3.2-7.7-6.5-11.5-10c-7.6-6.9-14.8-14.2-21.7-21.9
				c-3.3-3.7-6.6-7.6-9.7-11.5c-0.5-0.6-2.9-3.7-1-1.2c-0.7-0.9-1.4-1.8-2.1-2.7c-1.6-2.1-3.2-4.3-4.7-6.5
				c-5.7-8.1-10.9-16.5-15.5-25.2c-2.4-4.5-4.7-9-6.8-13.6c-0.5-1-0.9-2.1-1.4-3.1c-0.2-0.5-0.4-1-0.7-1.5c0.1,0.1,0.9,2.3,0.3,0.8
				c-1-2.4-2-4.9-2.9-7.3c-3.5-9.5-6.4-19.2-8.7-29c-1.1-4.9-2.1-9.8-3-14.7c-0.4-2.5-0.8-4.9-1.2-7.4c-0.1-0.6-0.2-1.1-0.2-1.7
				c0,0.1,0.3,2.5,0.1,0.9c-0.1-1.3-0.3-2.7-0.5-4c-2.2-20.3-2.1-40.8,0.2-61.1c0.1-1.1,0.3-2.3,0.4-3.4c0.3-2.8-0.3,2,0.1-0.9
				c0.4-2.7,0.8-5.3,1.3-8c0.8-4.9,1.8-9.9,2.9-14.8c2.3-10,5-19.8,8.3-29.5c1.6-4.7,3.4-9.5,5.2-14.1c0.5-1.3,1-2.5,1.5-3.7
				c-0.9,2.3,0,0.1,0.4-0.9c1.1-2.5,2.2-4.9,3.3-7.4c4.3-9.1,9-17.9,14.2-26.5c2.7-4.4,5.5-8.8,8.5-13.1c1.3-1.9,2.7-3.8,4-5.6
				c0.8-1.1,1.6-2.2,2.4-3.2c0.3-0.5,0.7-0.9,1-1.4c1.3-1.7-1.4,1.7-0.1,0.1c6.4-8,13-15.7,20.3-22.9c3.5-3.6,7.2-7,10.9-10.3
				c5.5-4.9,5.4-14.9,0-19.9c-5.9-5.4-14-5.2-19.9,0C363,248.4,338.4,285.5,322,326c-16,39.6-23.3,83.3-20.8,126
				c2.5,43.1,14.6,85.3,37.5,122.1c23.2,37.3,55.2,68.5,91.6,92.8c35.5,23.7,76.3,41,118.4,48.5c5.9,1,11.7,1.9,17.6,2.6
				c7.3,0.9,14.4-7.1,14-14C580,695.6,574.2,690.9,566.3,689.9L566.3,689.9z"/>
		</g>
		<g>
			<path class="st0" d="M489.4,117.6c4.4,1.5,8.8,3.1,13.1,4.7c2.4,0.9,4.7,1.8,7.1,2.8c1,0.4,2,0.8,2.9,1.2
				c0.5,0.2,4.6,1.9,1.9,0.8c9,3.8,17.8,8,26.4,12.5c16.9,8.8,33.1,18.9,48.3,30.3c1,0.8,2,1.5,3,2.3c-2.4-1.8,0.9,0.7,1.2,0.9
				c1.7,1.3,3.3,2.6,4.9,4c3.9,3.2,7.7,6.5,11.5,9.9c7.2,6.5,14,13.4,20.6,20.5c3.1,3.4,6.2,6.9,9.1,10.5c1.3,1.6,2.7,3.3,4,4.9
				c2.7,3.4-1.6-2.2,1,1.3c1,1.4,2.1,2.8,3.1,4.2c5.7,7.9,11.1,16.2,15.9,24.7c4.9,8.5,9.2,17.3,13.1,26.3c1.7,3.9-1-2.5,0.6,1.5
				c0.5,1.2,1,2.4,1.5,3.6c0.8,2,1.6,4.1,2.3,6.1c1.8,4.9,3.4,9.8,4.9,14.8c2.8,9.6,5.1,19.3,6.7,29.1c0.4,2.1,0.7,4.3,1,6.4
				c-0.4-3.2,0.1,1.1,0.2,1.4c0.1,1.3,0.3,2.6,0.4,3.9c0.5,4.9,0.8,9.9,1,14.9c0.3,9.7,0,19.5-1,29.1c-0.1,1.3-0.3,2.6-0.4,3.9
				c-0.4,4.3,0.4-2.7-0.1,1.1c-0.3,1.9-0.6,3.8-0.9,5.7c-0.8,4.6-1.8,9.1-2.9,13.6c-2.1,8.6-4.8,17.1-8.1,25.4
				c-0.4,0.9-0.7,1.8-1.1,2.7c-0.3,0.7-1.3,3.1-0.1,0.4c-0.9,2.1-1.9,4.2-2.9,6.3c-1.9,4-3.9,8-6.1,11.9c-4.8,8.6-10.1,16.8-16,24.7
				c-2.3,3.1,1.8-2.2-0.6,0.8c-0.7,0.9-1.4,1.8-2.2,2.7c-1.7,2.1-3.5,4.1-5.3,6.1c-3.2,3.6-6.5,7-10,10.3c-3.5,3.3-7,6.5-10.7,9.5
				c-0.9,0.7-1.8,1.4-2.7,2.2c-1.2,1-1.2,0.9,0.1-0.1c-0.6,0.5-1.2,0.9-1.8,1.4c-1.8,1.4-3.7,2.7-5.6,4c-8.3,5.6-17,10.5-26.1,14.6
				c-6.7,3-8.8,13.3-5,19.2c4.5,6.9,12,8.3,19.2,5c71.4-32.2,115.7-108.8,118.4-185.7c2.9-84.7-40.5-165.7-105-218.7
				c-36-29.6-77.3-51.6-121.4-66.6c-7-2.4-15.7,2.7-17.3,9.8C477.8,108.2,481.9,115.1,489.4,117.6L489.4,117.6z"/>
		</g>
		<g>
			<path class="st0" d="M404.7,214.6c-18.1,1.9-36.1,3.8-54.2,5.6c-3.8,0.4-7.1,1.3-9.9,4.1c-2.4,2.4-4.3,6.4-4.1,9.9
				c0.3,7,6.2,14.9,14,14c18.1-1.9,36.1-3.8,54.2-5.6c3.8-0.4,7.1-1.3,9.9-4.1c2.4-2.4,4.3-6.4,4.1-9.9
				C418.4,221.7,412.5,213.8,404.7,214.6L404.7,214.6z"/>
		</g>
		<g>
			<path class="st0" d="M393.1,229.1c-1.6,16-2.7,32-4.3,48c-0.3,3.4,1.8,7.6,4.1,9.9c2.4,2.4,6.4,4.3,9.9,4.1
				c3.6-0.2,7.4-1.4,9.9-4.1c2.7-2.9,3.7-6,4.1-9.9c1.6-16,2.7-32,4.3-48c0.3-3.4-1.8-7.6-4.1-9.9c-2.4-2.4-6.4-4.3-9.9-4.1
				c-3.6,0.2-7.4,1.4-9.9,4.1C394.6,222.1,393.5,225.2,393.1,229.1L393.1,229.1z"/>
		</g>
		<g>
			<path class="st0" d="M612.2,551.4c3.2-15.5,7.5-30.7,10.8-46.2c1.5-7.2-2.1-15.5-9.8-17.3c-7-1.6-15.7,2.1-17.3,9.8
				c-3.2,15.5-7.5,30.7-10.8,46.2c-1.5,7.2,2.1,15.5,9.8,17.3C601.9,562.8,610.6,559.1,612.2,551.4L612.2,551.4z"/>
		</g>
		<g>
			<path class="st0" d="M594,563c19.7,3,39.4,5.1,59.2,6.7c7.3,0.6,14.4-6.9,14-14c-0.4-8.1-6.2-13.4-14-14
				c-9.1-0.7-18.2-1.5-27.3-2.5c-4.2-0.5-8.4-1-12.7-1.5c-0.7-0.1-1.3-0.2-2-0.3c1.9,0.3,2.3,0.3,1.2,0.2c-1.2-0.2-2.4-0.3-3.6-0.5
				c-2.5-0.4-5-0.7-7.5-1.1c-3.9-0.6-7.3-0.6-10.8,1.4c-2.9,1.7-5.7,5-6.5,8.4C582.6,552.4,586.2,561.8,594,563L594,563z"/>
		</g>
	</g>
	<g>
		<path class="st0" d="M152.8,871.6c-3.1,5.6-7.9,10.2-14.4,13.7c-6.5,3.5-14.5,5.2-24.1,5.2H96.5v42.2H67.8V815.1h46.4
			c9.4,0,17.3,1.6,23.8,4.9c6.5,3.2,11.3,7.7,14.6,13.4c3.2,5.7,4.9,12.2,4.9,19.6C157.5,859.7,155.9,866,152.8,871.6z M124.3,863.8
			c2.7-2.6,4-6.2,4-10.9c0-4.7-1.3-8.3-4-10.9c-2.7-2.6-6.8-3.9-12.2-3.9H96.5v29.5h15.6C117.6,867.7,121.6,866.4,124.3,863.8z"/>
		<path class="st0" d="M190.3,928.2c-7.3-3.9-13.1-9.5-17.3-16.8c-4.2-7.3-6.3-15.8-6.3-25.5c0-9.6,2.1-18.1,6.4-25.4
			c4.2-7.3,10.1-12.9,17.4-16.8c7.4-3.9,15.6-5.9,24.8-5.9c9.2,0,17.4,2,24.8,5.9c7.4,3.9,13.2,9.5,17.4,16.8
			c4.2,7.3,6.4,15.8,6.4,25.4c0,9.6-2.2,18.1-6.5,25.4c-4.3,7.3-10.2,12.9-17.6,16.8c-7.4,3.9-15.7,5.9-24.9,5.9
			C205.8,934,197.6,932.1,190.3,928.2z M229,903.2c3.9-4,5.8-9.8,5.8-17.3c0-7.5-1.9-13.2-5.6-17.3c-3.7-4-8.4-6-13.8-6
			c-5.6,0-10.2,2-13.9,5.9c-3.7,4-5.5,9.7-5.5,17.3c0,7.5,1.8,13.2,5.4,17.3c3.6,4,8.2,6,13.7,6C220.5,909.2,225.1,907.2,229,903.2z
			"/>
		<path class="st0" d="M336.3,932.7l-28.5-39.2v39.2h-28.7v-124h28.7v68.5l28.3-38h35.4l-38.9,46.9l39.2,46.6H336.3z"/>
		<path class="st0" d="M470.4,892.8h-64.9c0.4,5.8,2.3,10.3,5.6,13.3c3.3,3.1,7.3,4.6,12.1,4.6c7.1,0,12.1-3,14.9-9h30.5
			c-1.6,6.1-4.4,11.7-8.5,16.6c-4.1,4.9-9.2,8.8-15.3,11.6c-6.1,2.8-13,4.2-20.6,4.2c-9.2,0-17.3-2-24.5-5.9
			c-7.2-3.9-12.7-9.5-16.8-16.8c-4-7.3-6-15.8-6-25.5c0-9.7,2-18.2,5.9-25.5c4-7.3,9.5-12.8,16.7-16.8c7.1-3.9,15.4-5.9,24.6-5.9
			c9.1,0,17.1,1.9,24.1,5.7c7,3.8,12.5,9.2,16.5,16.3c4,7,5.9,15.2,5.9,24.6C470.9,887.1,470.7,889.9,470.4,892.8z M441.6,876.9
			c0-4.9-1.7-8.8-5-11.7c-3.4-2.9-7.5-4.4-12.6-4.4c-4.8,0-8.9,1.4-12.2,4.2c-3.3,2.8-5.3,6.8-6.1,11.9H441.6z"/>
		<path class="st0" d="M570.6,815.1v23h-31.2v94.7h-28.7V838h-31.2v-23H570.6z"/>
		<path class="st0" d="M626.2,842.6c5-3,10.6-4.4,16.8-4.4v30.3h-7.9c-7.2,0-12.5,1.5-16.1,4.6c-3.6,3.1-5.4,8.5-5.4,16.2v43.4H585
			v-93.5h28.7v15.6C617,849.6,621.2,845.6,626.2,842.6z"/>
		<path class="st0" d="M656.5,860.5c3.6-7.3,8.6-12.8,14.8-16.8c6.3-3.9,13.2-5.9,20.9-5.9c6.6,0,12.4,1.3,17.3,4
			c5,2.7,8.8,6.2,11.5,10.6v-13.2h28.7v93.5h-28.7v-13.2c-2.8,4.4-6.7,7.9-11.6,10.6c-5,2.7-10.8,4-17.3,4c-7.6,0-14.5-2-20.8-5.9
			c-6.3-4-11.2-9.6-14.8-16.9c-3.6-7.3-5.4-15.8-5.4-25.4C651,876.2,652.9,867.7,656.5,860.5z M715.1,869c-4-4.1-8.8-6.2-14.5-6.2
			s-10.5,2-14.5,6.1c-4,4.1-5.9,9.7-5.9,16.8c0,7.2,2,12.8,5.9,17c4,4.2,8.8,6.3,14.5,6.3s10.5-2.1,14.5-6.2c4-4.1,5.9-9.8,5.9-16.9
			C721.1,878.8,719.1,873.2,715.1,869z"/>
		<path class="st0" d="M786.8,929.9c-6.4-2.8-11.4-6.6-15.1-11.5c-3.7-4.9-5.8-10.3-6.2-16.3h28.3c0.3,3.2,1.8,5.9,4.5,7.9
			c2.7,2,6,3,9.9,3c3.6,0,6.3-0.7,8.3-2.1c2-1.4,2.9-3.2,2.9-5.4c0-2.7-1.4-4.7-4.2-5.9c-2.8-1.3-7.3-2.7-13.6-4.3
			c-6.7-1.6-12.3-3.2-16.8-4.9c-4.5-1.7-8.3-4.5-11.6-8.2c-3.2-3.7-4.9-8.8-4.9-15.2c0-5.4,1.5-10.2,4.4-14.7
			c3-4.4,7.3-7.9,13.1-10.5c5.8-2.6,12.6-3.9,20.5-3.9c11.7,0,21,2.9,27.7,8.7c6.8,5.8,10.6,13.5,11.6,23.1h-26.5
			c-0.4-3.2-1.9-5.8-4.3-7.7c-2.4-1.9-5.6-2.8-9.5-2.8c-3.4,0-5.9,0.6-7.7,1.9c-1.8,1.3-2.7,3-2.7,5.3c0,2.7,1.4,4.7,4.3,6
			c2.8,1.3,7.3,2.7,13.3,4c6.9,1.8,12.6,3.5,16.9,5.3c4.4,1.7,8.2,4.5,11.5,8.4c3.3,3.9,5,9,5.1,15.5c0,5.5-1.5,10.4-4.6,14.7
			c-3.1,4.3-7.5,7.7-13.2,10.1c-5.8,2.5-12.4,3.7-20,3.7C800.4,934,793.2,932.6,786.8,929.9z"/>
		<path class="st0" d="M947.3,848.8c6.5,7.1,9.7,16.8,9.7,29.2v54.6h-28.5v-50.8c0-6.3-1.6-11.1-4.9-14.6c-3.2-3.5-7.6-5.2-13.1-5.2
			c-5.5,0-9.8,1.7-13.1,5.2c-3.2,3.5-4.9,8.3-4.9,14.6v50.8H864v-124h28.7v43.1c2.9-4.1,6.9-7.4,11.9-9.9c5-2.5,10.7-3.7,16.9-3.7
			C932.2,838.2,940.8,841.7,947.3,848.8z"/>
	</g>
</g>
</svg>
