<?xml version="1.0" encoding="utf-8"?>
<!-- Generator: Adobe Illustrator 24.3.0, SVG Export Plug-In . SVG Version: 6.00 Build 0)  -->
<svg version="1.1" id="Capa_1" xmlns="http://www.w3.org/2000/svg" xmlns:xlink="http://www.w3.org/1999/xlink" x="0px" y="0px"
	 viewBox="0 0 40 40" style="enable-background:new 0 0 40 40;" xml:space="preserve">
<style type="text/css">
	.st0{fill:#3B5998;}
</style>
<path d="M38.5,72.8L25.9,60.2c-3.3-3.3-8.5-3.3-11.8,0L1.5,72.8C0.5,73.8,0,75,0,76.4v16.4c0,2.8,2.2,5,5,5h30c2.8,0,5-2.2,5-5V76.4
	C40,75,39.5,73.8,38.5,72.8z M25,94.4H15v-6.6c0-2.8,2.2-5,5-5s5,2.2,5,5V94.4z M36.7,92.7c0,0.9-0.7,1.7-1.7,1.7h-6.7v-6.6
	c0-4.6-3.7-8.3-8.3-8.3s-8.3,3.7-8.3,8.3v6.6H5c-0.9,0-1.7-0.7-1.7-1.7V76.4c0-0.4,0.2-0.9,0.5-1.2l12.6-12.6c2-1.9,5.1-1.9,7.1,0
	l12.6,12.7c0.3,0.3,0.5,0.7,0.5,1.2V92.7z"/>
<g>
	<path d="M80,67.7c-3.7,0-6.7,3-6.7,6.7c0,3.7,3,6.7,6.7,6.7s6.7-3,6.7-6.7C86.7,70.7,83.7,67.7,80,67.7z M80,77.7
		c-1.8,0-3.3-1.5-3.3-3.3s1.5-3.3,3.3-3.3s3.3,1.5,3.3,3.3S81.8,77.7,80,77.7z"/>
	<path d="M80,97.7c-2.8,0-5.5-1.4-7.2-3.7c-6.4-8.8-9.6-15.3-9.6-19.6c0-9.3,7.5-16.8,16.8-16.8c9.3,0,16.8,7.5,16.8,16.8
		c0,4.2-3.2,10.8-9.6,19.6C85.5,96.4,82.8,97.7,80,97.7z M80,61.4c-7.2,0-13.1,5.9-13.1,13.1c0,3.3,3.2,9.5,8.9,17.4
		c1.7,2.3,5,2.9,7.3,1.2c0.4-0.3,0.8-0.7,1.2-1.2c5.7-7.9,8.9-14.1,8.9-17.4C93.1,67.2,87.2,61.4,80,61.4z"/>
</g>
<path d="M140,67.7c-3.7,0-6.7,3-6.7,6.7s3,6.7,6.7,6.7s6.7-3,6.7-6.7S143.7,67.7,140,67.7z M140,77.7c-1.8,0-3.3-1.5-3.3-3.3
	c0-1.8,1.5-3.3,3.3-3.3c1.8,0,3.3,1.5,3.3,3.3C143.3,76.2,141.8,77.7,140,77.7z M160,88.6c-0.1-0.8-0.4-1.5-1-2.1l-5.6-5.6
	c0,0,0,0,0,0l0,0c0,0,0,0,0,0c-0.1-0.5,0.1-1.2,0.5-1.4c0.8-0.5,1.5-1.3,2-2.2c0.5-0.9,0.7-1.8,0.7-2.8c0-1-0.2-2-0.7-2.8
	c-0.5-0.9-1.2-1.6-2-2.2c-0.4-0.3-0.7-0.8-0.6-1.3c0.2-1,0.2-2-0.1-3c-0.5-1.9-2.1-3.4-4-4c-1-0.3-2-0.3-3-0.1
	c-0.5,0.1-1-0.1-1.3-0.6c-0.5-0.8-1.3-1.5-2.2-2c-1.7-1-3.9-1-5.6,0c-0.9,0.5-1.6,1.2-2.2,2c-0.3,0.4-0.8,0.7-1.3,0.6
	c-1-0.2-2-0.2-3,0.1c-1.9,0.5-3.4,2.1-4,4c-0.3,1-0.3,2-0.1,3c0.1,0.5-0.1,1-0.6,1.3c-0.8,0.5-1.5,1.3-2,2.2
	c-0.5,0.9-0.7,1.8-0.7,2.8c0,1,0.2,2,0.7,2.8c0.5,0.9,1.2,1.6,2,2.2c0.4,0.3,0.6,1,0.5,1.5c0,0,0,0,0,0c0,0,0,0,0,0l-5.6,5.6
	c-0.6,0.6-0.9,1.3-1,2.1c-0.2,1.9,1.2,3.6,3.1,3.8l2,0.2l0.2,2c0.1,0.8,0.4,1.5,1,2.1c0.4,0.4,0.8,0.7,1.3,0.8
	c0.4,0.1,0.8,0.2,1.2,0.2c0.9,0,1.8-0.4,2.5-1l6.2-6.2c0.8,0.4,1.7,0.6,2.5,0.6c0.9,0,1.7-0.2,2.5-0.6l6.2,6.2c0.7,0.7,1.6,1,2.5,1
	c0.4,0,0.8-0.1,1.2-0.2c0.5-0.2,0.9-0.5,1.3-0.8c0.6-0.6,0.9-1.3,1-2.1l0.2-2l2-0.2C158.8,92.2,160.2,90.5,160,88.6L160,88.6z
	 M128.7,94.4l-0.1-0.1l-0.5-4.6l-4.7-0.5c-0.1,0-0.1-0.1-0.1-0.3l3.9-3.9c0.7,1.3,2,2.3,3.5,2.7c1,0.3,2,0.3,3,0.1
	c0.4-0.1,0.9,0.1,1.2,0.5L128.7,94.4L128.7,94.4z M142.2,86.5c-0.2,0.4-0.6,0.7-1,0.9c-0.7,0.4-1.7,0.4-2.4,0
	c-0.4-0.2-0.7-0.5-1-0.9c-0.9-1.3-2.3-2.1-3.8-2.1c-0.3,0-0.6,0-1,0.1c-0.4,0.1-0.9,0.1-1.4-0.1c-0.8-0.2-1.5-0.9-1.7-1.7
	c-0.1-0.5-0.1-0.9-0.1-1.4c0.4-1.8-0.4-3.8-2-4.8c-0.4-0.2-0.7-0.6-0.9-1c-0.2-0.4-0.3-0.8-0.3-1.2c0-0.4,0.1-0.9,0.3-1.2
	c0.2-0.4,0.5-0.7,0.9-1c1.6-1,2.4-3,2-4.8c-0.1-0.4-0.1-0.9,0.1-1.4c0.2-0.8,0.9-1.5,1.7-1.7c0.5-0.1,0.9-0.1,1.3-0.1
	c1.8,0.4,3.8-0.4,4.8-2c0.2-0.4,0.6-0.7,1-0.9c0.7-0.4,1.7-0.4,2.4,0c0.4,0.2,0.7,0.5,1,0.9c1,1.6,3,2.4,4.8,2
	c0.4-0.1,0.9-0.1,1.4,0.1c0.8,0.2,1.5,0.9,1.7,1.7c0.1,0.5,0.1,0.9,0.1,1.4c-0.4,1.8,0.4,3.8,2,4.8c0.4,0.2,0.7,0.6,0.9,1l0,0
	c0.2,0.4,0.3,0.8,0.3,1.2c0,0.4-0.1,0.9-0.3,1.2c-0.2,0.4-0.5,0.7-0.9,1c-1.6,1-2.4,3-2,4.8c0.1,0.4,0.1,0.9-0.1,1.4
	c-0.2,0.8-0.9,1.5-1.7,1.7c-0.5,0.1-0.9,0.2-1.3,0.1C145.2,84.1,143.2,84.9,142.2,86.5L142.2,86.5z M156.5,89.1l-4.7,0.5l-0.5,4.6
	l-0.1,0.1l-0.2,0h0l-6.1-6.1c0.3-0.4,0.8-0.6,1.2-0.5c1,0.2,2,0.2,3-0.1c1.5-0.4,2.7-1.4,3.5-2.7l4,4
	C156.7,89,156.6,89.1,156.5,89.1L156.5,89.1z M126.6,80.9L126.6,80.9C126.6,80.9,126.6,80.9,126.6,80.9
	C126.6,80.9,126.6,80.9,126.6,80.9L126.6,80.9z"/>
<g>
	<path d="M200,78.6c5.8,0,10.4-4.7,10.4-10.4s-4.7-10.4-10.4-10.4s-10.4,4.7-10.4,10.4C189.6,73.9,194.3,78.6,200,78.6z M200,61.2
		c3.8,0,6.9,3.1,6.9,6.9c0,3.8-3.1,6.9-6.9,6.9s-6.9-3.1-6.9-6.9C193.1,64.3,196.2,61.2,200,61.2z"/>
	<path d="M200,80.4c-8.6,0-15.6,7-15.6,15.6c0,1,0.8,1.7,1.7,1.7s1.7-0.8,1.7-1.7c0-6.7,5.4-12.2,12.2-12.2s12.2,5.4,12.2,12.2
		c0,1,0.8,1.7,1.7,1.7s1.7-0.8,1.7-1.7C215.6,87.4,208.6,80.4,200,80.4z"/>
</g>
<g>
	<g>
		<path class="st0" d="M115.6,112.9c0.8,0.1,1.6,0.2,2.4,0.2c0.3,0,0.4,0.1,0.4,0.4c0,1.9,0,3.7,0,5.6c0,0.3-0.1,0.4-0.4,0.4
			c-1.4,0-2.7-0.1-4.1,0.1c-0.4,0-0.7,0.1-1.1,0.2c-1,0.3-1.5,1-1.6,2c-0.1,0.4-0.1,0.7-0.1,1.1c0,1.4,0,2.8,0,4.1
			c0,0.3,0.1,0.4,0.4,0.4c2,0,4.1,0,6.1,0c0.5,0,0.5,0,0.5,0.5c-0.3,2.1-0.5,4.2-0.8,6.3c0,0.3-0.2,0.4-0.5,0.4c-1.7,0-3.4,0-5.1,0
			c-0.5,0-0.5,0-0.5,0.5c0,5.7,0,11.4,0,17c0,0.6,0,0.6-0.6,0.6c-2.1,0-4.1,0-6.2,0c-0.6,0-0.6,0-0.6-0.6c0-5.6,0-11.3,0-16.9
			c0-0.7,0-0.7-0.7-0.7c-1.6,0-3.3,0-4.9,0c-0.4,0-0.5-0.1-0.5-0.5c0-2.1,0-4.2,0-6.2c0-0.4,0.1-0.5,0.5-0.5c1.7,0,3.4,0,5.1,0
			c0.5,0,0.5,0,0.5-0.6c0-1.5,0-3,0-4.4c0-1.5,0.2-3,0.7-4.4c1.1-2.7,3.1-4.3,6-5c0.4-0.1,0.8-0.2,1.3-0.2
			C113,112.9,114.3,112.9,115.6,112.9z"/>
	</g>
</g>
<g>
	<path d="M162.9,152.8c-0.5,0-1,0-1.5,0c-1.2-0.3-2.2-1-3-1.8c-1.7-1.7-3-3.7-4.1-5.8c-1.3-2.5-2.1-5.1-2.5-7.9
		c-0.3-2.1-0.3-4.2,0.2-6.3c0.8-3,2.3-5.5,5.1-7.1c1.9-1.1,3.9-1.5,6.1-1c1.1,0.3,2.2,0.7,3.3,1.1c1,0.4,2,0.5,3.1,0
		c0.7-0.3,1.3-0.5,2-0.7c1.9-0.7,3.7-0.9,5.7-0.5c2.3,0.5,4.2,1.5,5.6,3.4c0.2,0.3,0.2,0.5-0.1,0.7c-1,0.7-2,1.5-2.6,2.5
		c-1.7,2.8-1.7,5.8-0.4,8.8c0.8,1.8,2.3,3,4,3.8c0.3,0.2,0.4,0.3,0.3,0.7c-1,2.9-2.6,5.4-4.5,7.8c-1,1.2-2.2,2.1-3.8,2.4
		c-0.3,0-0.6,0-0.9,0c-0.2,0-0.4-0.1-0.6-0.1c-0.9-0.2-1.8-0.5-2.7-0.9c-1.9-0.8-3.8-0.8-5.7,0C165,152.2,164,152.6,162.9,152.8z"/>
	<path d="M168,121.3c0.2-3,1.6-5.4,4.1-7c1.1-0.7,2.2-1.2,3.5-1.4c0.5-0.1,0.6,0,0.6,0.5c0,2.7-1,4.8-2.9,6.7
		c-1.1,1.1-2.3,1.8-3.8,2c-0.4,0.1-0.8,0-1.1,0c-0.3,0-0.4-0.1-0.4-0.4C168,121.6,168,121.4,168,121.3z"/>
</g>
<image style="overflow:visible;" width="1846" height="1843" xlink:href="23293AD0.png"  transform="matrix(2.168085e-02 0 0 2.168085e-02 28.0367 112.8511)">
</image>
<g>
	<path d="M19.1,40c-1.4-0.3-2.5-0.9-3.4-2c-0.6-0.7-1-1.6-1.2-2.5c-0.1-0.3-0.2-0.5-0.6-0.5c-2.1,0-4.3,0-6.4,0
		c-2.4,0-4.4-1.9-4.4-4.6c0-1.3,0.5-2.4,1.4-3.3c0.7-0.7,1.3-1.4,2-2c0.5-0.5,0.7-1,0.7-1.6c0-2.3,0-4.7,0-7c0.1-3.5,1.3-6.5,3.8-9
		c1.4-1.4,3.1-2.4,5-3.1c0.3-0.1,0.4-0.2,0.3-0.5c-0.2-2,1.5-4,3.5-4c2.2-0.1,3.7,1.3,4,3.4c0,0.1,0,0.2,0,0.3c0,0.7,0,0.7,0.7,1
		c4.6,1.9,7.4,5.3,8.2,10.2c0.1,0.7,0.1,1.4,0.1,2.1c0,2.2,0,4.4,0,6.6c0,0.7,0.2,1.2,0.7,1.6c0.8,0.8,1.6,1.5,2.3,2.4
		c1.3,1.4,1.5,3.1,0.8,4.8c-0.8,1.7-2.2,2.7-4.1,2.7c-2.2,0-4.3,0-6.5,0c-0.3,0-0.4,0.1-0.5,0.3c-0.6,2.5-2.1,4-4.6,4.5
		c0,0,0,0-0.1,0C20.3,40,19.7,40,19.1,40z M20,32.3c4.1,0,8.1,0,12.2,0c0,0,0.1,0,0.1,0c0.8,0,1.4-0.3,1.7-1.1
		c0.3-0.8,0.1-1.4-0.5-2c-0.7-0.7-1.4-1.4-2.1-2.1c-1-1-1.5-2.2-1.5-3.6c0-2.3,0-4.5,0-6.8c0-0.7,0-1.3-0.2-2c-1-5.4-6.2-9-11.7-7.9
		C13.4,7.8,9.9,12,10,16.8c0,2.3,0,4.6,0,6.9c0,1.2-0.4,2.2-1.2,3.1c-0.8,0.8-1.6,1.7-2.4,2.5c-0.4,0.4-0.6,0.9-0.5,1.6
		c0.2,0.9,0.9,1.4,1.9,1.4C11.9,32.3,15.9,32.3,20,32.3z M20,35.1c-0.8,0-1.6,0-2.4,0c-0.3,0-0.3,0.1-0.2,0.4c0.4,1,1.5,1.7,2.6,1.8
		c1.1,0,2.2-0.7,2.6-1.8c0.1-0.3,0-0.4-0.3-0.4C21.6,35.1,20.8,35.1,20,35.1z M20,3.9c0.2,0,0.4,0,0.6,0c0.3,0,0.3-0.1,0.3-0.4
		c-0.1-0.4-0.5-0.8-0.9-0.7c-0.4,0-0.8,0.4-0.9,0.8c0,0.2,0,0.4,0.3,0.3C19.6,3.9,19.8,3.9,20,3.9z"/>
</g>
</svg>
