<?xml version="1.0" encoding="utf-8"?>
<!-- Generator: Adobe Illustrator 24.3.0, SVG Export Plug-In . SVG Version: 6.00 Build 0)  -->
<svg version="1.1" id="Capa_1" xmlns="http://www.w3.org/2000/svg" xmlns:xlink="http://www.w3.org/1999/xlink" x="0px" y="0px"
	 viewBox="0 0 1024 1024" style="enable-background:new 0 0 1024 1024;" xml:space="preserve">
<style type="text/css">
	.st0{fill:#FFFFFF;}
</style>
<g>
	<g>
		<path class="st0" d="M597.4,910.3c-5.8-3.7-11.5-7.5-17-11.5c-1.3-0.9-2.5-1.9-3.8-2.8c2.7,2,0.2,0.1-1-0.8
			c-2.9-2.3-5.7-4.6-8.5-7c-10.1-8.7-19.7-18.2-28.5-28.2c-2.3-2.6-4.5-5.2-6.6-7.8c-1-1.2-2-2.4-3-3.7c-0.5-0.6-1-1.2-1.5-1.9
			c-1.8-2.2,1.9,2.5,0.2,0.2c-4.1-5.5-8.1-11-11.9-16.7c-7.4-11.2-14.1-22.8-20.1-34.9c-1.5-3.1-3-6.2-4.4-9.3
			c-0.7-1.4-1.3-2.9-1.9-4.3c-0.3-0.7-0.6-1.5-0.9-2.2c0.7,1.5,0.9,2.3,0.1,0.3c-2.6-6.3-5-12.7-7.2-19.2
			c-4.4-13-7.9-26.2-10.6-39.6c-0.6-3.1-1.2-6.2-1.7-9.3c-0.3-1.6-0.5-3.1-0.7-4.7c-0.1-0.8-0.2-1.6-0.3-2.3c-0.5-3,0.6,4.8,0-0.3
			c-0.8-6.5-1.4-13-1.8-19.6c-0.8-13.6-0.7-27.3,0.4-40.9c0.3-3.1,0.6-6.3,0.9-9.4c0.1-1.1,0.9-6.6,0.2-1.8c0.3-1.8,0.5-3.6,0.8-5.5
			c1.2-7.5,2.7-15,4.5-22.4c3.7-15.6,8.6-30.9,14.1-45.9c2.8-7.7,5.8-15.3,8.8-22.9c1.4-3.5,2.9-7,4.3-10.5c0-0.1,1.2-3,0.5-1.2
			c-0.8,1.8,0.5-1.1,0.5-1.2c1-2.3,2-4.7,3-7c6.4-14.8,12.9-29.6,19.2-44.5c13.2-31.2,25.5-62.7,33-95.8c7.1-31.3,10.9-63.7,10-95.8
			c-1.7-63-21.2-124.7-56.7-176.8c-5.1-7.5-10.6-14.8-16.2-22c-6.3-8.1-21.1-7.1-27.6,0c-7.9,8.6-6.7,19,0,27.6
			c-1.8-2.3,1,1.3,1.5,2c1.1,1.5,2.2,3,3.3,4.5c2.5,3.5,5,7,7.4,10.6c4.4,6.6,8.5,13.3,12.3,20.1c3.8,6.7,7.4,13.6,10.6,20.6
			c1.5,3.2,2.9,6.4,4.3,9.7c-1.3-3,0.3,0.8,0.7,1.8c0.9,2.2,1.7,4.3,2.5,6.5c5.2,13.9,9.4,28.1,12.5,42.5c1.6,7.4,2.9,14.8,3.9,22.2
			c0.3,2.3-0.1-0.6-0.1-0.9c0.1,1.2,0.3,2.3,0.4,3.5c0.2,1.7,0.4,3.5,0.6,5.2c0.4,3.8,0.7,7.5,0.9,11.3c1,15.3,0.8,30.7-0.3,46
			c-0.3,3.9-0.6,7.8-1,11.6c-0.2,1.8-0.4,3.6-0.6,5.4c-0.1,0.9-0.2,1.8-0.3,2.7c-0.4,3.1,0.5-2.9,0,0.2c-1.3,7.9-2.5,15.7-4.1,23.6
			c-6.6,31.8-17.5,62.4-30,92.3c-0.5,1.2-1,2.3-1.5,3.5c0.2-0.4,1-2.4,0.1-0.3c-0.7,1.7-1.5,3.5-2.2,5.2c-1.6,3.8-3.3,7.6-4.9,11.3
			c-3.3,7.5-6.6,15.1-9.8,22.6c-6.9,16-13.8,32.1-19.9,48.5c-11.5,30.4-20.1,61.5-23.7,93.9c-6.4,56.7,4.6,114.2,27.3,166.2
			c22.8,52.1,59.3,97.6,105,131.2c5.5,4.1,11.2,7.9,17,11.5c8.7,5.5,21.9,2.1,26.7-7C609.5,927.4,606.6,916.2,597.4,910.3
			L597.4,910.3z"/>
	</g>
	<g>
		<path class="st0" d="M587.5,909.6c-1.8-0.2-4.5-0.7-1-0.1c-1.8-0.3-3.6-0.5-5.4-0.8c-3.4-0.5-6.7-1.1-10.1-1.7
			c-7-1.3-13.9-2.8-20.9-4.5c-13.5-3.3-26.7-7.2-39.8-11.9c-6.8-2.4-13.6-5-20.3-7.8c-3.5-1.4,2.2,1-1.3-0.5c-1.5-0.6-3-1.3-4.5-1.9
			c-3.5-1.5-6.9-3.1-10.3-4.7c-13-6.2-25.7-13-38-20.4c-12.1-7.3-23.9-15.1-35.3-23.6c-1.5-1.1-3-2.3-4.6-3.4
			c-3-2.2,1.7,1.4-1.2-0.9c-3-2.4-6-4.7-8.9-7.1c-5.4-4.5-10.8-9.1-16-13.9c-10.6-9.6-20.6-19.8-30.1-30.5
			c-4.6-5.2-9.1-10.5-13.5-16c-0.6-0.8-4-5.1-1.4-1.7c-1-1.3-1.9-2.5-2.9-3.8c-2.2-3-4.4-6-6.5-9c-7.9-11.2-15.1-22.9-21.6-35
			c-3.3-6.2-6.5-12.6-9.4-19c-0.7-1.4-1.3-2.9-1.9-4.3c-0.3-0.7-0.6-1.4-0.9-2.2c0.1,0.2,1.3,3.1,0.4,1.1c-1.4-3.4-2.7-6.8-4-10.2
			c-4.9-13.2-8.9-26.7-12.1-40.3c-1.6-6.8-3-13.6-4.2-20.5c-0.6-3.4-1.1-6.9-1.6-10.3c-0.1-0.8-0.2-1.6-0.3-2.4
			c0,0.2,0.4,3.5,0.2,1.2c-0.2-1.9-0.5-3.7-0.7-5.6c-3.1-28.2-3-56.8,0.2-85c0.2-1.6,0.4-3.2,0.6-4.8c0.5-3.9-0.4,2.7,0.2-1.2
			c0.5-3.7,1.1-7.4,1.7-11.1c1.2-6.9,2.5-13.7,4.1-20.5c3.1-13.9,7-27.6,11.6-41c2.2-6.6,4.7-13.1,7.3-19.6c0.7-1.7,1.4-3.5,2.1-5.2
			c-1.3,3.2,0,0.1,0.6-1.3c1.5-3.4,3.1-6.9,4.6-10.3c5.9-12.6,12.5-24.9,19.8-36.8c3.8-6.2,7.7-12.2,11.8-18.2
			c1.8-2.6,3.7-5.3,5.6-7.9c1.1-1.5,2.2-3,3.3-4.5c0.5-0.6,1-1.3,1.5-1.9c1.7-2.3-1.9,2.4-0.1,0.1c8.9-11.1,18.1-21.8,28.2-31.9
			c4.9-4.9,10-9.7,15.2-14.4c7.6-6.8,7.5-20.8,0-27.6c-8.2-7.5-19.5-7.3-27.6,0c-45.4,40.7-79.6,92.2-102.3,148.6
			c-22.2,55.1-32.4,115.9-28.9,175.2c3.5,60,20.4,118.6,52.2,169.7c32.2,51.8,76.7,95.3,127.3,129.1c49.4,33,106.1,57.1,164.6,67.5
			c8.1,1.4,16.3,2.6,24.5,3.6c10.2,1.3,20-9.9,19.5-19.5C606.6,917.4,598.5,910.9,587.5,909.6L587.5,909.6z"/>
	</g>
	<g>
		<path class="st0" d="M480.5,113.7c6.1,2.1,12.2,4.3,18.3,6.6c3.3,1.2,6.6,2.5,9.9,3.8c1.4,0.5,2.7,1.1,4.1,1.7
			c0.7,0.3,6.4,2.7,2.7,1.1c12.5,5.3,24.7,11.1,36.8,17.4c23.5,12.2,46,26.3,67.2,42.1c1.4,1.1,2.8,2.1,4.2,3.2
			c-3.3-2.5,1.3,1,1.6,1.3c2.3,1.8,4.6,3.7,6.8,5.5c5.4,4.5,10.8,9.1,16,13.8c10,9.1,19.5,18.6,28.6,28.6c4.3,4.8,8.6,9.7,12.7,14.6
			c1.9,2.3,3.7,4.6,5.5,6.9c3.7,4.7-2.2-3,1.4,1.8c1.4,1.9,2.9,3.9,4.3,5.8c8,11,15.4,22.5,22.1,34.3c6.8,11.8,12.8,24,18.3,36.5
			c2.4,5.5-1.4-3.5,0.8,2c0.7,1.7,1.4,3.4,2,5.1c1.1,2.8,2.2,5.6,3.2,8.5c2.5,6.8,4.7,13.7,6.8,20.6c3.9,13.3,7.1,26.8,9.3,40.5
			c0.5,3,1,5.9,1.4,8.9c-0.6-4.5,0.2,1.5,0.2,2c0.2,1.8,0.4,3.6,0.6,5.4c0.7,6.9,1.1,13.8,1.4,20.7c0.5,13.5,0,27.1-1.3,40.5
			c-0.2,1.8-0.4,3.6-0.6,5.4c-0.6,5.9,0.6-3.8-0.2,1.6c-0.4,2.7-0.8,5.3-1.3,7.9c-1.1,6.3-2.4,12.6-4,18.9c-3,12-6.7,23.8-11.2,35.3
			c-0.5,1.3-1,2.5-1.5,3.7c-0.4,1-1.9,4.4-0.2,0.5c-1.3,3-2.6,5.9-4,8.8c-2.6,5.6-5.4,11.1-8.4,16.5c-6.6,12-14.1,23.4-22.3,34.4
			c-3.2,4.3,2.5-3-0.9,1.1c-1,1.2-2,2.5-3,3.7c-2.4,2.9-4.8,5.7-7.3,8.5c-4.5,5-9.1,9.8-13.9,14.4c-4.8,4.6-9.8,9-14.9,13.2
			c-1.2,1-2.5,2-3.7,3c-1.7,1.4-1.7,1.3,0.2-0.1c-0.8,0.6-1.7,1.3-2.6,1.9c-2.6,1.9-5.2,3.7-7.8,5.5c-11.5,7.8-23.6,14.5-36.3,20.3
			c-9.3,4.2-12.3,18.5-7,26.7c6.2,9.7,16.7,11.5,26.7,7c99.3-44.8,160.9-151.3,164.6-258.2c4-117.7-56.4-230.4-146-304.1
			c-50-41.2-107.5-71.8-168.8-92.7c-9.7-3.3-21.8,3.8-24,13.6C464.4,100.6,470.1,110.2,480.5,113.7L480.5,113.7z"/>
	</g>
	<g>
		<path class="st0" d="M362.8,248.6c-25.1,2.6-50.2,5.2-75.3,7.9c-5.3,0.6-9.9,1.8-13.8,5.7c-3.4,3.4-5.9,8.9-5.7,13.8
			c0.4,9.7,8.6,20.7,19.5,19.5c25.1-2.6,50.2-5.2,75.3-7.9c5.3-0.6,9.9-1.8,13.8-5.7c3.4-3.4,5.9-8.9,5.7-13.8
			C381.9,258.5,373.6,247.5,362.8,248.6L362.8,248.6z"/>
	</g>
	<g>
		<path class="st0" d="M346.6,268.8c-2.2,22.3-3.8,44.6-6,66.8c-0.5,4.7,2.5,10.6,5.7,13.8c3.4,3.4,8.9,5.9,13.8,5.7
			c5.1-0.2,10.3-1.9,13.8-5.7c3.7-4,5.2-8.4,5.7-13.8c2.2-22.3,3.8-44.6,6-66.8c0.5-4.7-2.5-10.6-5.7-13.8
			c-3.4-3.4-8.9-5.9-13.8-5.7c-5.1,0.2-10.3,1.9-13.8,5.7C348.7,259,347.2,263.4,346.6,268.8L346.6,268.8z"/>
	</g>
	<g>
		<path class="st0" d="M651.2,717c4.5-21.5,10.5-42.7,15-64.3c2.1-10-2.9-21.6-13.6-24c-9.8-2.2-21.8,2.9-24,13.6
			c-4.5,21.5-10.5,42.7-15,64.3c-2.1,10,2.9,21.6,13.6,24C637,732.9,649,727.7,651.2,717L651.2,717z"/>
	</g>
	<g>
		<path class="st0" d="M626,733c27.3,4.2,54.8,7.1,82.3,9.4c10.2,0.8,20-9.6,19.5-19.5c-0.5-11.3-8.6-18.6-19.5-19.5
			c-12.6-1-25.3-2.1-37.9-3.5c-5.9-0.6-11.7-1.3-17.6-2.1c-0.9-0.1-1.8-0.2-2.8-0.4c2.6,0.4,3.2,0.4,1.7,0.2c-1.7-0.2-3.3-0.5-5-0.7
			c-3.5-0.5-6.9-1-10.4-1.5c-5.4-0.8-10.2-0.9-15.1,2c-4.1,2.4-7.9,7-9,11.7C610.2,718.3,615.1,731.4,626,733L626,733z"/>
	</g>
</g>
</svg>
