<?xml version="1.0" encoding="utf-8"?>
<!-- Generator: Adobe Illustrator 24.3.0, SVG Export Plug-In . SVG Version: 6.00 Build 0)  -->
<svg version="1.1" id="Layer_1" xmlns="http://www.w3.org/2000/svg" xmlns:xlink="http://www.w3.org/1999/xlink" x="0px" y="0px"
	 viewBox="0 0 1760.8 1309" style="enable-background:new 0 0 1760.8 1309;" xml:space="preserve">
<style type="text/css">
	.st0{fill:#B09AC8;}
	.st1{fill:#FFFFFF;}
	.st2{fill:#58595B;}
	.st3{fill:#37B34A;}
	.st4{fill:#404041;}
	.st5{fill:#FFF100;}
	.st6{fill:#F1F1F2;}
	.st7{fill:#EC1C24;}
	.st8{fill:#E6E7E8;}
	.st9{fill:#006838;}
	.st10{fill:#F05A28;}
	.st11{fill:#E6E6E6;}
	.st12{fill:#F7D3AE;}
	.st13{fill:#808184;}
	.st14{fill:#2B388F;}
	.st15{fill:#231F20;}
	.st16{fill:#4ABC94;}
	.st17{fill:#BBBDBF;}
	.st18{fill:#A6A8AB;}
</style>
<path class="st0" d="M1210,1128.1c92.9,1.7,182.5,43.7,275.3,39.2c107.3-5.3,208.2-78.9,245.9-179.5s10-222.4-67.5-296.9
	c-39.9-38.4-95-70.8-103-125.7c-8.2-56.4,39.4-112.5,23.1-167.2c-9.6-32.3-39.1-54-66.7-73.3c-80.2-56-160.4-112-240.7-168
	c-94.2-65.8-196.1-134.2-311-136C808.2,18.2,679,138.9,531.5,193.6C439,227.9,338.6,236.1,245.3,268S60.1,365.7,39.7,462.2
	c-18.1,85.6,23.9,171,59.3,251s65,174.6,24.6,252.3c-18.9,36.3-53,70-47.4,110.6c6.5,47.4,63.4,69.7,111.3,69.6
	c108.9-0.4,221.6-65.2,321.2-21.3c60.9,26.8,98.9,88.1,153.7,125.8c78.5,54,194,49.9,273.8-0.6
	C1026.6,1192.3,1094.1,1126,1210,1128.1z"/>
<g>
	<path class="st1" d="M1536.5,1077.7c-2.1,0-33.8,0-35.9,0l0,0c0-34.7-17-66.6-44.7-86.5c-28.4-19.8-64.6-24.8-97.2-13.5
		c-27-52.4-86.6-79.4-143.4-65.9c-56.8,13.5-98,64.5-98,123.3c0,0,0,0.7,0,1.4c-39-6.4-78.1,9.9-102.2,41.1
		c-23.4,31.9-28.7,87.3-28.7,87.3l605.8-1.6c0,0-15.8-85.8-62.6-85.8H1536.5z"/>
	<rect x="433.9" y="235" class="st2" width="1047.4" height="746.4"/>
	<rect x="478.4" y="264.9" class="st3" width="962.1" height="670.4"/>
	<polygon class="st4" points="838.6,981.4 926.5,1119.3 1125.6,1119.3 1044.5,981.4 	"/>
	<rect x="804.3" y="1119.3" class="st2" width="413.5" height="44.6"/>
	<g>
		<path class="st5" d="M1128.9,588c-7.1,0-14.2-0.6-21.2-1.9c-30.3-5.5-56.8-22.4-74.6-47.6c-18.3-25.9-25.3-57.4-19.6-88.6
			c4.9-27,19.2-51.5,40.3-69c26.7-22.2,61.7-31.4,95.8-25.2c34.2,6.2,63.6,27.1,80.8,57.4c13.5,23.8,18.3,51.8,13.3,78.8
			c-5.7,31.2-23.3,58.2-49.6,76C1174.7,581.2,1152.1,588,1128.9,588z M1128.6,362.8c-25,0-49.4,8.7-69.1,25
			c-19.5,16.2-32.7,38.8-37.2,63.7c-5.3,28.8,1.2,57.9,18.1,81.8c16.4,23.2,40.9,38.8,68.9,43.9c28,5.1,56.4-0.9,80-16.8
			c24.3-16.4,40.5-41.3,45.8-70.2l0,0c4.5-24.9,0.2-50.8-12.3-72.8c-15.9-27.9-43.1-47.2-74.6-53
			C1141.6,363.4,1135.1,362.8,1128.6,362.8z"/>
		<path class="st5" d="M1163.6,441c-9.2,0-18.8-0.9-28.9-2.8c-38.8-7.1-66.4-24.5-81.8-51.7l-1.8-3.3l2.9-2.4
			c26.7-22.2,61.7-31.4,95.9-25.2c34.2,6.2,63.6,27.1,80.8,57.4l1.8,3.3l-2.9,2.4C1211.7,433.6,1189.6,441,1163.6,441z
			 M1062.5,385.5c14.4,22.9,39.2,37.7,73.7,44c34.5,6.3,62.9,1.2,84.5-15.2c-16.1-26.2-42.4-44.2-72.7-49.7
			C1117.8,359.1,1086.8,366.7,1062.5,385.5z"/>
		<path class="st5" d="M1128.9,588c-7.1,0-14.2-0.6-21.2-1.9c-30.3-5.5-56.8-22.4-74.6-47.6l-2.6-3.7l3.8-2.6
			c22.9-15.5,52.6-20.5,85.9-14.4c33.3,6.1,59.3,21.2,75.3,43.8l2.6,3.7l-3.8,2.6C1174.7,581.2,1152.1,588,1128.9,588z
			 M1043.2,537.2c16.3,21.1,39.6,35.3,66.1,40.2c26.5,4.8,53.3-0.2,76-14.2c-14.9-18.8-37.3-31-66.8-36.4
			C1089,521.3,1063.7,524.8,1043.2,537.2z"/>
		<path class="st5" d="M1118,587.1c-3.5,0-6.9-0.3-10.3-0.9c-21.5-3.9-39.4-19.8-50.4-44.7c-10.7-24.3-13.5-54.5-8-84.9
			c5.6-30.5,18.9-57.7,37.5-76.6c19-19.4,41.4-28,62.9-24c21.5,3.9,39.4,19.8,50.4,44.7c10.7,24.3,13.5,54.5,8,84.9
			c-5.6,30.5-18.9,57.7-37.5,76.6C1154.6,578.4,1136.2,587.1,1118,587.1z M1139.4,363.8c-36.1,0-71.4,40-81.3,94.3
			c-10.7,58.7,12.3,112.1,51.2,119.2c2.9,0.5,5.8,0.8,8.7,0.8c36.1,0,71.4-40,81.3-94.3c10.7-58.7-12.3-112.1-51.2-119.2
			C1145.2,364.1,1142.3,363.8,1139.4,363.8z"/>
		<path class="st5" d="M1109.4,586.2c-1,0-1.9-0.1-2.9-0.3c-25.3-4.6-28.2-66.4-18-122.3c5.5-30,14.3-57.6,24.9-77.7
			c11.5-21.9,23.7-32.4,35.2-30.3c11.5,2.1,19.2,16.2,22.2,40.8c2.8,22.5,1.3,51.5-4.2,81.5C1156.7,531.5,1133.7,586.2,1109.4,586.2
			z M1145.6,364.3c-6.8,0-15.8,9.5-24.4,25.8c-10.2,19.3-18.7,46-24,75.2c-5.3,29.2-6.8,57.1-4.1,78.8c2.4,19.4,8,31.8,14.9,33.1
			c6.9,1.3,16.5-8.3,25.6-25.7c10.2-19.3,18.7-46,24-75.2c5.3-29.2,6.8-57.1,4.1-78.8c-2.4-19.4-8-31.8-14.9-33.1
			C1146.5,364.3,1146,364.3,1145.6,364.3z"/>
		
			<rect x="1123.9" y="360.4" transform="matrix(0.1794 -0.9838 0.9838 0.1794 460.663 1498.0345)" class="st5" width="8.9" height="225"/>
	</g>
	
		<ellipse transform="matrix(0.7071 -0.7071 0.7071 0.7071 -520.6118 529.7831)" class="st5" cx="379.2" cy="893.3" rx="109.3" ry="109.3"/>
	<rect x="478.4" y="873.5" class="st6" width="962.1" height="61.8"/>
	<g>
		<path class="st7" d="M731.1,874H561.3c-8.6,0-14.9-7.5-14.9-11.9v-42.8c0-8,8.4-11.9,14.9-11.9h169.8V874z"/>
		<path class="st8" d="M731.1,866.9H639c-14.5,0-17.3-11.7-17.3-26.2l0,0c0-14.5,2.8-26.2,17.3-26.2h92.2V866.9z"/>
	</g>
	<path class="st9" d="M1275.6,874h-138c-6.9,0-12.1-6.1-12.1-9.7v-34.8c0-6.5,6.8-9.7,12.1-9.7h138V874z"/>
	<path class="st8" d="M1275.6,868.3h-71.7c-9.5,0-17.3-7.7-17.3-17.3v-8c0-9.5,7.7-17.3,17.3-17.3h71.7V868.3z"/>
	<g>
		<path class="st10" d="M593.7,775.8h137.5V772H581.2c-3.9,0-7.1,3.2-7.1,7.1v21.1c0,3.9,3.2,7.1,7.1,7.1h149.9v-3.8H593.7
			c-7.7,0-7.9-6.2-7.9-13.9C585.7,782,586,775.8,593.7,775.8z"/>
		<path class="st11" d="M731.1,775.8v27.8H593.7c-7.7,0-7.9-6.2-7.9-13.9c0-7.7,0.3-13.9,7.9-13.9H731.1z"/>
	</g>
	<g>
		<circle class="st12" cx="951.8" cy="395.5" r="35.7"/>
		<path class="st4" d="M966,377.8c0,0,1.9,16.2,12.3,15c0,0,9.3,14.1,12.7-7.5c3.5-21.6-11-27.4-18.3-24.9c0,0-7.1-12.5-28.3-9.3
			c-21.2,3.3-33.2,24.1-28.9,42C915.4,393.2,960.2,396.6,966,377.8z"/>
	</g>
	<rect x="571.9" y="895.9" class="st13" width="796.4" height="18"/>
	<path class="st7" d="M935.8,898.6H581.7c-4.1,0-7.3,2.8-7.3,6.3c0,3.5,3.3,6.3,7.3,6.3h354.1c4.1,0,7.3-2.8,7.3-6.3
		C943.2,901.4,939.9,898.6,935.8,898.6z"/>
	<polygon class="st13" points="499.1,904.9 499.1,893.3 509.2,899.1 519.2,904.9 509.2,910.7 499.1,916.5 	"/>
	<path class="st12" d="M671.8,488.9c-1.6-6.1-3.2-12.1-4.9-18.2c-3.3-11.7-5.9-30.5-20.3-33.9c-0.6-0.1-1.3-0.3-1.9-0.3
		c-2.6-0.3-5.3,0.2-7.7,1.2c-1.5,0.7-2.9,1.6-3.8,2.9c-1.3,1.7-1.7,3.9-2,6.1c-0.8,6-0.6,12.2,0.5,18.2c0.3,1.8,0.6,4.1-0.8,5.3
		c-3,2.4-7.4-1.1-9.3-3.2c-13.3-15.2-28-30.1-46.6-37.8c-4.4-1.8-9.8-3.1-13.6-0.2c-2.8,2.2-3.7,6.2-3.1,9.7
		c0.6,3.5,2.4,6.7,4.2,9.8c-7.1-0.4-14.5-5.7-20.8-2.4c-4.6,2.4-6,8.6-4.6,13.5c1.4,5,4.9,9,8.3,12.9c-5.1-4-12-8.1-17.7-4.9
		c-3.9,2.3-5.3,7.4-4.4,11.9c0.9,4.4,3.5,8.3,6,12c-4.1,0.1-7.8-4.1-11.8-3c-2.2,0.6-3.8,2.9-4.1,5.2c-0.4,2.3,0.2,4.6,0.9,6.9
		c3.2,9.9,9.2,18.6,15.3,27c12.4,17,25.6,33.4,39.5,49.2c5.1,5.7,10.5,11.6,17.7,14.2c10.7,4,22.7-0.1,33-4.9
		c14.7-6.8,28.6-15.2,41.4-25c4.1-3.1,8.2-6.4,11.3-10.6c6.6-8.8,7.8-20.1,6-30.7C676.8,509.4,674.4,499.1,671.8,488.9z"/>
	<path class="st14" d="M1070.9,861.4l-78-60.3l-39,51.9l-8.1,13.9H829.4c-24.1,0-42.7-21.1-39.7-45l8.3-66.2l1.3-10.4
		c-14.2,25.3-44.6,26.9-44.6,26.9c-18.6,4.8-38-2.5-57.1-17.4l0,0c-44.7-34.7-87.9-110.3-115.6-165.8c21.9-13.7,64-41,96.3-62
		c31.6,40.5,60.2,74.5,60.2,74.5C820.5,445.3,951.5,457,951.5,457s149.7-3.5,205.5,148.5C1204,733.4,1070.9,861.4,1070.9,861.4z"/>
	<path class="st12" d="M991.2,803.3c0,0-48.3,21.4-36.1,48.1l-16.3,27.5c0,0-27.2,5.6-21.9,18.9c5.3,13.3,28.4,8.9,45-5.8
		c0,0,3.5,23.4,24.6,6.2c0,0,3.7,22.5,25.1,6.5c0,0,11.8,16.8,31-6c19.3-22.8,28.4-37.2,28.4-37.2l-78-60.3L991.2,803.3z"/>
	<g>
		<g>
			<g>
				<path class="st5" d="M1452.8,665.6c0,31.7-10.4,58.4-24.5,65.6c-2.5,1.3-5,1.9-7.7,1.9c-17.8,0-32.3-30.2-32.3-67.5
					c0-37.3,14.4-67.5,32.3-67.5S1452.8,628.3,1452.8,665.6z"/>
				<path class="st15" d="M1420.6,1071.6c-2.5,0-4.5-2-4.5-4.5V646c0-2.5,2-4.5,4.5-4.5s4.5,2,4.5,4.5v421.1
					C1425,1069.6,1423,1071.6,1420.6,1071.6z"/>
			</g>
			<g>
				
					<ellipse transform="matrix(0.4981 -0.8671 0.8671 0.4981 79.2338 1683.2977)" class="st5" cx="1493.7" cy="773.2" rx="67.5" ry="32.2"/>
				<path class="st15" d="M1420.6,894.1c-0.8,0-1.7-0.2-2.4-0.7c-2.1-1.3-2.7-4.1-1.4-6.2l76.9-120.2c1.3-2.1,4.1-2.7,6.2-1.4
					c2.1,1.3,2.7,4.1,1.4,6.2l-76.9,120.2C1423.5,893.4,1422.1,894.1,1420.6,894.1z"/>
			</g>
			<g>
				
					<ellipse transform="matrix(0.8354 -0.5496 0.5496 0.8354 -253.7962 878.8508)" class="st5" cx="1340.5" cy="863.2" rx="32.2" ry="67.5"/>
				<path class="st15" d="M1420.6,979.5c-1.4,0-2.7-0.6-3.6-1.8l-91.5-125.5c-1.5-2-1-4.8,1-6.2c2-1.5,4.8-1,6.2,1l91.5,125.5
					c1.5,2,1,4.8-1,6.2C1422.4,979.2,1421.5,979.5,1420.6,979.5z"/>
			</g>
		</g>
		<g>
			<path class="st9" d="M1424.3,1069.5h-16.4h-50.1l16.4,88.7c0.9,4.6,4.9,8,9.6,8h24.2h16.4h24.2c4.7,0,8.7-3.3,9.6-8l16.4-88.7
				H1424.3z"/>
			<path class="st16" d="M1470.1,1079.5H1362c-5.3,0-9.7-4.3-9.7-9.7v-6c0-5.3,4.3-9.7,9.7-9.7h108.1c5.3,0,9.7,4.3,9.7,9.7v6
				C1479.8,1075.2,1475.5,1079.5,1470.1,1079.5z"/>
		</g>
	</g>
	<path class="st1" d="M325.3,558.8l-34.6-5.1c-0.9-0.1-1.5-0.8-1.7-1.7l-10.4-60.8c-0.4-2.3-3.7-2.2-4,0.1l-7.8,60
		c-0.1,0.9-0.8,1.5-1.6,1.7l-49.5,10.1c-2.3,0.5-2.1,3.7,0.2,4l47.1,5c0.9,0.1,1.7,0.8,1.8,1.7l8.6,66.5c0.3,2.3,3.6,2.4,4,0.1
		l11.5-66.2c0.1-0.8,0.7-1.4,1.4-1.6l35.3-10C327.6,562.1,327.4,559.1,325.3,558.8z"/>
	<path class="st1" d="M371.8,660.4l-20.9-3.1c-0.5-0.1-0.9-0.5-1-1l-6.3-36.7c-0.2-1.4-2.2-1.3-2.4,0l-4.7,36.3
		c-0.1,0.5-0.5,0.9-1,1l-29.9,6.1c-1.4,0.3-1.3,2.3,0.1,2.4l28.5,3c0.6,0.1,1,0.5,1.1,1.1l5.2,40.2c0.2,1.4,2.2,1.4,2.4,0.1l6.9-40
		c0.1-0.5,0.4-0.8,0.9-1l21.3-6.1C373.2,662.4,373.1,660.6,371.8,660.4z"/>
	<path class="st1" d="M663,1083c-2,0-31.3,0-33.3,0l0,0c0-32.2-15.8-61.7-41.4-80.1c-26.3-18.4-59.9-23-90.1-12.5
		c-25-48.6-80.2-73.5-132.9-61.1c-52.6,12.5-90.8,59.8-90.8,114.3c0,0,0,0.7,0,1.3c-36.2-5.9-72.3,9.2-94.7,38.1
		c-21.7,29.6-26.6,80.9-26.6,80.9l561.3-1.4c0,0-14.6-79.5-58-79.5H663z"/>
	<path class="st15" d="M615.8,528.2c-1,0-1.9-0.5-2.5-1.3c-14.9-22,8.3-50.7,12.8-55.9l2.4-26.4c0.1-1.6,1.6-2.8,3.2-2.7
		c1.6,0.1,2.8,1.6,2.7,3.2l-2.4,27.3c-0.1,0.6-0.3,1.3-0.8,1.7c-0.3,0.3-26.4,29.4-12.9,49.3c0.9,1.4,0.6,3.2-0.8,4.1
		C617,528,616.4,528.2,615.8,528.2z"/>
	<path d="M792.2,824.9c-0.1,0-0.3,0-0.4,0c-1.6-0.2-2.8-1.7-2.6-3.3l27.6-213.7c0.2-1.6,1.7-2.8,3.3-2.6c1.6,0.2,2.8,1.7,2.6,3.3
		l-27.6,213.7C795,823.8,793.7,824.9,792.2,824.9z"/>
	<path d="M954.7,852.3c-0.9,0-1.9-0.5-2.5-1.3c-4.5-6.6-5.7-13.4-3.6-20.2c5.7-18.2,34.1-30.4,39.9-32.7
		c7.4-12.3,77.8-127.8,125.5-139.2c1.6-0.4,3.2,0.6,3.6,2.2c0.4,1.6-0.6,3.2-2.2,3.6c-46.9,11.2-121.6,136.1-122.3,137.3
		c-0.3,0.6-0.9,1-1.5,1.3c-0.3,0.1-31.9,12.2-37.3,29.3c-1.6,5.1-0.7,10,2.8,15.1c0.9,1.4,0.6,3.2-0.8,4.1
		C955.8,852.2,955.2,852.3,954.7,852.3z"/>
	<path d="M1057.5,704.6c-1.3,0-2.5-0.9-2.9-2.2l-24.3-93.3c-0.4-1.6,0.5-3.2,2.1-3.6c1.6-0.4,3.2,0.5,3.6,2.1l24.3,93.3
		c0.4,1.6-0.5,3.2-2.1,3.6C1058,704.5,1057.7,704.6,1057.5,704.6z"/>
	<path d="M808.7,693.9l-7.6,58.6l-3.2,3.2l1.3-10.4c-14.2,25.3-44.6,26.9-44.6,26.9c-18.6,4.8-38-2.5-57.1-17.4l0,0
		C781.3,777,808.7,693.9,808.7,693.9z"/>
	<path class="st15" d="M919.9,894.4c-0.7,0-1.4-0.3-2-0.8c-1.2-1.1-1.3-3-0.2-4.2c4.5-5,18-12.2,21.5-14.1l26.6-41.1
		c0.9-1.4,2.7-1.8,4.1-0.9c1.4,0.9,1.8,2.7,0.9,4.1l-27,41.8c-0.3,0.4-0.7,0.8-1.1,1c-4.5,2.3-17,9.2-20.5,13.1
		C921.5,894.1,920.7,894.4,919.9,894.4z"/>
	<path class="st15" d="M962.8,891.8c-0.5,0-1.1-0.2-1.6-0.5c-1.4-0.9-1.8-2.7-0.9-4.1l20.5-32.1c0.9-1.4,2.7-1.8,4.1-0.9
		c1.4,0.9,1.8,2.7,0.9,4.1l-20.5,32.1C964.7,891.3,963.7,891.8,962.8,891.8z"/>
	<path class="st15" d="M986.4,898.9c-0.6,0-1.2-0.2-1.7-0.6c-1.3-1-1.7-2.8-0.7-4.2l19.1-26.8c1-1.3,2.8-1.7,4.2-0.7
		c1.3,1,1.7,2.8,0.7,4.2l-19.1,26.8C988.2,898.5,987.3,898.9,986.4,898.9z"/>
	<path class="st15" d="M1012.9,905.1c-0.6,0-1.2-0.2-1.8-0.6c-1.3-1-1.6-2.8-0.6-4.2l16-21.5c1-1.3,2.8-1.6,4.2-0.6
		c1.3,1,1.6,2.8,0.6,4.2l-16,21.5C1014.7,904.7,1013.8,905.1,1012.9,905.1z"/>
	<path class="st15" d="M594.1,480.1c-0.7,0-1.4-0.3-2-0.8l-30.2-27.6c-1.2-1.1-1.3-3-0.2-4.2c1.1-1.2,3-1.3,4.2-0.2l30.2,27.6
		c1.2,1.1,1.3,3,0.2,4.2C595.7,479.7,594.9,480.1,594.1,480.1z"/>
	<path class="st15" d="M574,502.1c-0.7,0-1.5-0.3-2-0.8L544.9,476c-1.2-1.1-1.3-3-0.1-4.2c1.1-1.2,3-1.3,4.2-0.1l27.1,25.3
		c1.2,1.1,1.3,3,0.1,4.2C575.6,501.8,574.8,502.1,574,502.1z"/>
	<path class="st15" d="M555.9,520.1c-0.8,0-1.6-0.3-2.1-0.9l-24.3-25.1c-1.1-1.2-1.1-3.1,0.1-4.2c1.2-1.1,3.1-1.1,4.2,0.1L558,515
		c1.1,1.2,1.1,3.1-0.1,4.2C557.4,519.8,556.6,520.1,555.9,520.1z"/>
	<g>
		<polygon class="st17" points="944.7,456.7 953.1,477.5 982.6,457.7 		"/>
		<polygon class="st18" points="924.5,456.3 914.6,477.5 934.4,477.5 		"/>
		<path class="st15" d="M933.4,480.5c-0.1,0-0.1,0-0.2,0c-1.2-0.1-2.2-0.8-2.6-1.9l-8-21.2c-0.6-1.5,0.2-3.3,1.7-3.8
			c1.5-0.6,3.3,0.2,3.8,1.7l5.7,15.1l8.2-15.1c0.5-1,1.6-1.6,2.7-1.6l37.9,0.9c1.6,0,2.9,1.4,2.9,3c0,1.6-1.4,2.9-3,2.9l-36.1-0.8
			L936,479C935.5,479.9,934.5,480.5,933.4,480.5z"/>
	</g>
	<g>
		<rect x="534.9" y="893.3" class="st13" width="6.3" height="23.2"/>
		<rect x="546.4" y="893.3" class="st13" width="6.3" height="23.2"/>
	</g>
	<g>
		<g>
			<path class="st1" d="M1188.8,737.4c-0.7-2.1-0.5-4,0.5-6c1-1.9,2.5-3.2,4.5-3.7c2-0.6,4.1-0.3,6.2,0.8c2.1,1.1,3.5,2.6,4.2,4.6
				c0.7,2,0.5,3.9-0.5,5.9c-1,1.9-2.5,3.2-4.6,3.8c-2.1,0.6-4.1,0.4-6.2-0.7C1190.9,741,1189.5,739.5,1188.8,737.4z M1213.7,685
				l14,7.3l-20.3,33.3l-9.4-4.9L1213.7,685z"/>
		</g>
	</g>
	<g>
		<path class="st1" d="M1358.5,303.9c11.3,24.9,44.7,27.2,58.2,0C1405.5,279.1,1372,276.7,1358.5,303.9z M1387.6,317.9
			c-7.7,0-13.9-6.2-13.9-13.9c0-7.7,6.2-13.9,13.9-13.9c7.7,0,13.9,6.2,13.9,13.9C1401.5,311.6,1395.3,317.9,1387.6,317.9z"/>
		<circle class="st1" cx="1387.6" cy="303.9" r="7.5"/>
	</g>
</g>
</svg>
