<?xml version="1.0" encoding="utf-8"?>
<!-- Generator: Adobe Illustrator 24.3.0, SVG Export Plug-In . SVG Version: 6.00 Build 0)  -->
<svg version="1.1" id="Capa_1" xmlns="http://www.w3.org/2000/svg" xmlns:xlink="http://www.w3.org/1999/xlink" x="0px" y="0px"
	 viewBox="0 0 40 40" style="enable-background:new 0 0 40 40;" xml:space="preserve">
<path d="M-21.5,15.1L-34.1,2.4c-3.3-3.3-8.5-3.3-11.8,0l-12.6,12.7c-0.9,0.9-1.5,2.2-1.5,3.5V35c0,2.8,2.2,5,5,5h30c2.8,0,5-2.2,5-5
	V18.6C-20,17.3-20.5,16-21.5,15.1z M-35,36.7h-10v-6.6c0-2.8,2.2-5,5-5s5,2.2,5,5V36.7z M-23.3,35c0,0.9-0.7,1.7-1.7,1.7h-6.7v-6.6
	c0-4.6-3.7-8.3-8.3-8.3s-8.3,3.7-8.3,8.3v6.6H-55c-0.9,0-1.7-0.7-1.7-1.7V18.6c0-0.4,0.2-0.9,0.5-1.2l12.6-12.6c2-1.9,5.1-1.9,7.1,0
	l12.6,12.7c0.3,0.3,0.5,0.7,0.5,1.2V35z"/>
<g>
	<path d="M20,10c-3.7,0-6.7,3-6.7,6.7s3,6.7,6.7,6.7s6.7-3,6.7-6.7S23.7,10,20,10z M20,20c-1.8,0-3.3-1.5-3.3-3.3s1.5-3.3,3.3-3.3
		c1.8,0,3.3,1.5,3.3,3.3S21.8,20,20,20z"/>
	<path d="M20,40c-2.8,0-5.5-1.4-7.2-3.7C6.5,27.6,3.2,21,3.2,16.8C3.2,7.5,10.7,0,20,0c9.3,0,16.8,7.5,16.8,16.8
		c0,4.2-3.2,10.8-9.6,19.6C25.5,38.6,22.8,40,20,40z M20,3.6c-7.2,0-13.1,5.9-13.1,13.1c0,3.3,3.2,9.5,8.9,17.4
		c1.7,2.3,5,2.9,7.3,1.2c0.4-0.3,0.8-0.7,1.2-1.2c5.7-7.9,8.9-14.1,8.9-17.4C33.1,9.5,27.2,3.6,20,3.6z"/>
</g>
<path d="M80,10c-3.7,0-6.7,3-6.7,6.7s3,6.7,6.7,6.7s6.7-3,6.7-6.7S83.7,10,80,10z M80,20c-1.8,0-3.3-1.5-3.3-3.3
	c0-1.8,1.5-3.3,3.3-3.3s3.3,1.5,3.3,3.3C83.3,18.5,81.8,20,80,20z M100,30.8c-0.1-0.8-0.4-1.5-1-2.1l-5.6-5.6c0,0,0,0,0,0l0,0
	c0,0,0,0,0,0c-0.1-0.5,0.1-1.2,0.5-1.4c0.8-0.5,1.5-1.3,2-2.2c0.5-0.9,0.7-1.8,0.7-2.8c0-1-0.2-2-0.7-2.8c-0.5-0.9-1.2-1.6-2-2.2
	c-0.4-0.3-0.7-0.8-0.6-1.3c0.2-1,0.2-2-0.1-3c-0.5-1.9-2.1-3.4-4-4c-1-0.3-2-0.3-3-0.1c-0.5,0.1-1-0.1-1.3-0.6
	c-0.5-0.8-1.3-1.5-2.2-2c-1.7-1-3.9-1-5.6,0c-0.9,0.5-1.6,1.2-2.2,2c-0.3,0.4-0.8,0.7-1.3,0.6c-1-0.2-2-0.2-3,0.1
	c-1.9,0.5-3.4,2.1-4,4c-0.3,1-0.3,2-0.1,3c0.1,0.5-0.1,1-0.6,1.3c-0.8,0.5-1.5,1.3-2,2.2c-0.5,0.9-0.7,1.8-0.7,2.8
	c0,1,0.2,2,0.7,2.8c0.5,0.9,1.2,1.6,2,2.2c0.4,0.3,0.6,1,0.5,1.5c0,0,0,0,0,0c0,0,0,0,0,0L61,28.7c-0.6,0.6-0.9,1.3-1,2.1
	c-0.2,1.9,1.2,3.6,3.1,3.8l2,0.2l0.2,2c0.1,0.8,0.4,1.5,1,2.1c0.4,0.4,0.8,0.7,1.3,0.8c0.4,0.1,0.8,0.2,1.2,0.2c0.9,0,1.8-0.4,2.5-1
	l6.2-6.2c0.8,0.4,1.7,0.6,2.5,0.6c0.9,0,1.7-0.2,2.5-0.6l6.2,6.2c0.7,0.7,1.6,1,2.5,1c0.4,0,0.8-0.1,1.2-0.2
	c0.5-0.2,0.9-0.5,1.3-0.8c0.6-0.6,0.9-1.3,1-2.1l0.2-2l2-0.2C98.8,34.5,100.2,32.7,100,30.8L100,30.8z M68.7,36.7l-0.1-0.1l-0.5-4.6
	l-4.7-0.5c-0.1,0-0.1-0.1-0.1-0.3l3.9-3.9c0.7,1.3,2,2.3,3.5,2.7c1,0.3,2,0.3,3,0.1c0.4-0.1,0.9,0.1,1.2,0.5L68.7,36.7L68.7,36.7z
	 M82.2,28.8c-0.2,0.4-0.6,0.7-1,0.9c-0.7,0.4-1.7,0.4-2.4,0c-0.4-0.2-0.7-0.5-1-0.9c-0.9-1.3-2.3-2.1-3.8-2.1c-0.3,0-0.6,0-1,0.1
	c-0.4,0.1-0.9,0.1-1.4-0.1c-0.8-0.2-1.5-0.9-1.7-1.7c-0.1-0.5-0.1-0.9-0.1-1.4c0.4-1.8-0.4-3.8-2-4.8c-0.4-0.2-0.7-0.6-0.9-1
	c-0.2-0.4-0.3-0.8-0.3-1.2c0-0.4,0.1-0.9,0.3-1.2c0.2-0.4,0.5-0.7,0.9-1c1.6-1,2.4-3,2-4.8c-0.1-0.4-0.1-0.9,0.1-1.4
	c0.2-0.8,0.9-1.5,1.7-1.7c0.5-0.1,0.9-0.1,1.3-0.1c1.8,0.4,3.8-0.4,4.8-2c0.2-0.4,0.6-0.7,1-0.9c0.7-0.4,1.7-0.4,2.4,0
	c0.4,0.2,0.7,0.5,1,0.9c1,1.6,3,2.4,4.8,2c0.4-0.1,0.9-0.1,1.4,0.1c0.8,0.2,1.5,0.9,1.7,1.7c0.1,0.5,0.1,0.9,0.1,1.4
	c-0.4,1.8,0.4,3.8,2,4.8c0.4,0.2,0.7,0.6,0.9,1l0,0c0.2,0.4,0.3,0.8,0.3,1.2c0,0.4-0.1,0.9-0.3,1.2c-0.2,0.4-0.5,0.7-0.9,1
	c-1.6,1-2.4,3-2,4.8c0.1,0.4,0.1,0.9-0.1,1.4c-0.2,0.8-0.9,1.5-1.7,1.7c-0.5,0.1-0.9,0.2-1.3,0.1C85.2,26.4,83.2,27.2,82.2,28.8
	L82.2,28.8z M96.5,31.4l-4.7,0.5l-0.5,4.6l-0.1,0.1l-0.2,0h0L85,30.5c0.3-0.4,0.8-0.6,1.2-0.5c1,0.2,2,0.2,3-0.1
	c1.5-0.4,2.7-1.4,3.5-2.7l4,4C96.7,31.3,96.6,31.3,96.5,31.4L96.5,31.4z M66.6,23.2L66.6,23.2C66.6,23.1,66.6,23.1,66.6,23.2
	C66.6,23.1,66.6,23.2,66.6,23.2L66.6,23.2z"/>
<g>
	<path d="M140,20.8c5.8,0,10.4-4.7,10.4-10.4S145.8,0,140,0s-10.4,4.7-10.4,10.4C129.6,16.2,134.3,20.8,140,20.8z M140,3.5
		c3.8,0,6.9,3.1,6.9,6.9s-3.1,6.9-6.9,6.9s-6.9-3.1-6.9-6.9S136.2,3.5,140,3.5z"/>
	<path d="M140,22.6c-8.6,0-15.6,7-15.6,15.6c0,1,0.8,1.7,1.7,1.7c1,0,1.7-0.8,1.7-1.7c0-6.7,5.4-12.2,12.2-12.2s12.2,5.4,12.2,12.2
		c0,1,0.8,1.7,1.7,1.7s1.7-0.8,1.7-1.7C155.6,29.6,148.6,22.7,140,22.6z"/>
</g>
</svg>
