<?xml version="1.0" encoding="utf-8"?>
<!-- Generator: Adobe Illustrator 24.3.0, SVG Export Plug-In . SVG Version: 6.00 Build 0)  -->
<svg version="1.1" id="Capa_1" xmlns="http://www.w3.org/2000/svg" xmlns:xlink="http://www.w3.org/1999/xlink" x="0px" y="0px"
	 viewBox="0 0 40 40" style="enable-background:new 0 0 40 40;" xml:space="preserve">
<style type="text/css">
	.st0{fill:#3B5998;}
	.st1{fill:#EA4335;}
	.st2{fill:#FBBC05;}
	.st3{fill:#34A853;}
	.st4{fill:#4285F4;}
</style>
<path d="M-21.5,72.8l-12.6-12.7c-3.3-3.3-8.5-3.3-11.8,0l-12.6,12.7c-0.9,0.9-1.5,2.2-1.5,3.5v16.4c0,2.8,2.2,5,5,5h30
	c2.8,0,5-2.2,5-5V76.4C-20,75-20.5,73.8-21.5,72.8z M-35,94.4h-10v-6.6c0-2.8,2.2-5,5-5s5,2.2,5,5V94.4z M-23.3,92.7
	c0,0.9-0.7,1.7-1.7,1.7h-6.7v-6.6c0-4.6-3.7-8.3-8.3-8.3s-8.3,3.7-8.3,8.3v6.6H-55c-0.9,0-1.7-0.7-1.7-1.7V76.4
	c0-0.4,0.2-0.9,0.5-1.2l12.6-12.6c2-1.9,5.1-1.9,7.1,0l12.6,12.7c0.3,0.3,0.5,0.7,0.5,1.2V92.7z"/>
<g>
	<path d="M20,67.7c-3.7,0-6.7,3-6.7,6.7c0,3.7,3,6.7,6.7,6.7s6.7-3,6.7-6.7C26.7,70.7,23.7,67.7,20,67.7z M20,77.7
		c-1.8,0-3.3-1.5-3.3-3.3s1.5-3.3,3.3-3.3c1.8,0,3.3,1.5,3.3,3.3S21.8,77.7,20,77.7z"/>
	<path d="M20,97.7c-2.8,0-5.5-1.4-7.2-3.7c-6.4-8.8-9.6-15.3-9.6-19.6c0-9.3,7.5-16.8,16.8-16.8c9.3,0,16.8,7.5,16.8,16.8
		c0,4.2-3.2,10.8-9.6,19.6C25.5,96.4,22.8,97.7,20,97.7z M20,61.4c-7.2,0-13.1,5.9-13.1,13.1c0,3.3,3.2,9.5,8.9,17.4
		c1.7,2.3,5,2.9,7.3,1.2c0.4-0.3,0.8-0.7,1.2-1.2c5.7-7.9,8.9-14.1,8.9-17.4C33.1,67.2,27.2,61.4,20,61.4z"/>
</g>
<path d="M80,67.7c-3.7,0-6.7,3-6.7,6.7s3,6.7,6.7,6.7s6.7-3,6.7-6.7S83.7,67.7,80,67.7z M80,77.7c-1.8,0-3.3-1.5-3.3-3.3
	c0-1.8,1.5-3.3,3.3-3.3s3.3,1.5,3.3,3.3C83.3,76.2,81.8,77.7,80,77.7z M100,88.6c-0.1-0.8-0.4-1.5-1-2.1l-5.6-5.6c0,0,0,0,0,0l0,0
	c0,0,0,0,0,0c-0.1-0.5,0.1-1.2,0.5-1.4c0.8-0.5,1.5-1.3,2-2.2c0.5-0.9,0.7-1.8,0.7-2.8c0-1-0.2-2-0.7-2.8c-0.5-0.9-1.2-1.6-2-2.2
	c-0.4-0.3-0.7-0.8-0.6-1.3c0.2-1,0.2-2-0.1-3c-0.5-1.9-2.1-3.4-4-4c-1-0.3-2-0.3-3-0.1c-0.5,0.1-1-0.1-1.3-0.6
	c-0.5-0.8-1.3-1.5-2.2-2c-1.7-1-3.9-1-5.6,0c-0.9,0.5-1.6,1.2-2.2,2c-0.3,0.4-0.8,0.7-1.3,0.6c-1-0.2-2-0.2-3,0.1
	c-1.9,0.5-3.4,2.1-4,4c-0.3,1-0.3,2-0.1,3c0.1,0.5-0.1,1-0.6,1.3c-0.8,0.5-1.5,1.3-2,2.2c-0.5,0.9-0.7,1.8-0.7,2.8
	c0,1,0.2,2,0.7,2.8c0.5,0.9,1.2,1.6,2,2.2c0.4,0.3,0.6,1,0.5,1.5c0,0,0,0,0,0c0,0,0,0,0,0L61,86.5c-0.6,0.6-0.9,1.3-1,2.1
	c-0.2,1.9,1.2,3.6,3.1,3.8l2,0.2l0.2,2c0.1,0.8,0.4,1.5,1,2.1c0.4,0.4,0.8,0.7,1.3,0.8c0.4,0.1,0.8,0.2,1.2,0.2c0.9,0,1.8-0.4,2.5-1
	l6.2-6.2c0.8,0.4,1.7,0.6,2.5,0.6c0.9,0,1.7-0.2,2.5-0.6l6.2,6.2c0.7,0.7,1.6,1,2.5,1c0.4,0,0.8-0.1,1.2-0.2
	c0.5-0.2,0.9-0.5,1.3-0.8c0.6-0.6,0.9-1.3,1-2.1l0.2-2l2-0.2C98.8,92.2,100.2,90.5,100,88.6L100,88.6z M68.7,94.4l-0.1-0.1l-0.5-4.6
	l-4.7-0.5c-0.1,0-0.1-0.1-0.1-0.3l3.9-3.9c0.7,1.3,2,2.3,3.5,2.7c1,0.3,2,0.3,3,0.1c0.4-0.1,0.9,0.1,1.2,0.5L68.7,94.4L68.7,94.4z
	 M82.2,86.5c-0.2,0.4-0.6,0.7-1,0.9c-0.7,0.4-1.7,0.4-2.4,0c-0.4-0.2-0.7-0.5-1-0.9c-0.9-1.3-2.3-2.1-3.8-2.1c-0.3,0-0.6,0-1,0.1
	c-0.4,0.1-0.9,0.1-1.4-0.1c-0.8-0.2-1.5-0.9-1.7-1.7c-0.1-0.5-0.1-0.9-0.1-1.4c0.4-1.8-0.4-3.8-2-4.8c-0.4-0.2-0.7-0.6-0.9-1
	c-0.2-0.4-0.3-0.8-0.3-1.2c0-0.4,0.1-0.9,0.3-1.2c0.2-0.4,0.5-0.7,0.9-1c1.6-1,2.4-3,2-4.8c-0.1-0.4-0.1-0.9,0.1-1.4
	c0.2-0.8,0.9-1.5,1.7-1.7c0.5-0.1,0.9-0.1,1.3-0.1c1.8,0.4,3.8-0.4,4.8-2c0.2-0.4,0.6-0.7,1-0.9c0.7-0.4,1.7-0.4,2.4,0
	c0.4,0.2,0.7,0.5,1,0.9c1,1.6,3,2.4,4.8,2c0.4-0.1,0.9-0.1,1.4,0.1c0.8,0.2,1.5,0.9,1.7,1.7c0.1,0.5,0.1,0.9,0.1,1.4
	c-0.4,1.8,0.4,3.8,2,4.8c0.4,0.2,0.7,0.6,0.9,1l0,0c0.2,0.4,0.3,0.8,0.3,1.2c0,0.4-0.1,0.9-0.3,1.2c-0.2,0.4-0.5,0.7-0.9,1
	c-1.6,1-2.4,3-2,4.8c0.1,0.4,0.1,0.9-0.1,1.4c-0.2,0.8-0.9,1.5-1.7,1.7c-0.5,0.1-0.9,0.2-1.3,0.1C85.2,84.1,83.2,84.9,82.2,86.5
	L82.2,86.5z M96.5,89.1l-4.7,0.5l-0.5,4.6l-0.1,0.1l-0.2,0h0L85,88.3c0.3-0.4,0.8-0.6,1.2-0.5c1,0.2,2,0.2,3-0.1
	c1.5-0.4,2.7-1.4,3.5-2.7l4,4C96.7,89,96.6,89.1,96.5,89.1L96.5,89.1z M66.6,80.9L66.6,80.9C66.6,80.9,66.6,80.9,66.6,80.9
	C66.6,80.9,66.6,80.9,66.6,80.9L66.6,80.9z"/>
<g>
	<path d="M140,78.6c5.8,0,10.4-4.7,10.4-10.4s-4.7-10.4-10.4-10.4s-10.4,4.7-10.4,10.4C129.6,73.9,134.3,78.6,140,78.6z M140,61.2
		c3.8,0,6.9,3.1,6.9,6.9c0,3.8-3.1,6.9-6.9,6.9s-6.9-3.1-6.9-6.9C133.1,64.3,136.2,61.2,140,61.2z"/>
	<path d="M140,80.4c-8.6,0-15.6,7-15.6,15.6c0,1,0.8,1.7,1.7,1.7c1,0,1.7-0.8,1.7-1.7c0-6.7,5.4-12.2,12.2-12.2s12.2,5.4,12.2,12.2
		c0,1,0.8,1.7,1.7,1.7s1.7-0.8,1.7-1.7C155.6,87.4,148.6,80.4,140,80.4z"/>
</g>
<g>
	<g>
		<path class="st0" d="M55.6,112.9c0.8,0.1,1.6,0.2,2.4,0.2c0.3,0,0.4,0.1,0.4,0.4c0,1.9,0,3.7,0,5.6c0,0.3-0.1,0.4-0.4,0.4
			c-1.4,0-2.7-0.1-4.1,0.1c-0.4,0-0.7,0.1-1.1,0.2c-1,0.3-1.5,1-1.6,2c-0.1,0.4-0.1,0.7-0.1,1.1c0,1.4,0,2.8,0,4.1
			c0,0.3,0.1,0.4,0.4,0.4c2,0,4.1,0,6.1,0c0.5,0,0.5,0,0.5,0.5c-0.3,2.1-0.5,4.2-0.8,6.3c0,0.3-0.2,0.4-0.5,0.4c-1.7,0-3.4,0-5.1,0
			c-0.5,0-0.5,0-0.5,0.5c0,5.7,0,11.4,0,17c0,0.6,0,0.6-0.6,0.6c-2.1,0-4.1,0-6.2,0c-0.6,0-0.6,0-0.6-0.6c0-5.6,0-11.3,0-16.9
			c0-0.7,0-0.7-0.7-0.7c-1.6,0-3.3,0-4.9,0c-0.4,0-0.5-0.1-0.5-0.5c0-2.1,0-4.2,0-6.2c0-0.4,0.1-0.5,0.5-0.5c1.7,0,3.4,0,5.1,0
			c0.5,0,0.5,0,0.5-0.6c0-1.5,0-3,0-4.4c0-1.5,0.2-3,0.7-4.4c1.1-2.7,3.1-4.3,6-5c0.4-0.1,0.8-0.2,1.3-0.2
			C53,112.9,54.3,112.9,55.6,112.9z"/>
	</g>
</g>
<g>
	<path d="M102.9,152.8c-0.5,0-1,0-1.5,0c-1.2-0.3-2.2-1-3-1.8c-1.7-1.7-3-3.7-4.1-5.8c-1.3-2.5-2.1-5.1-2.5-7.9
		c-0.3-2.1-0.3-4.2,0.2-6.3c0.8-3,2.3-5.5,5.1-7.1c1.9-1.1,3.9-1.5,6.1-1c1.1,0.3,2.2,0.7,3.3,1.1c1,0.4,2,0.5,3.1,0
		c0.7-0.3,1.3-0.5,2-0.7c1.9-0.7,3.7-0.9,5.7-0.5c2.3,0.5,4.2,1.5,5.6,3.4c0.2,0.3,0.2,0.5-0.1,0.7c-1,0.7-2,1.5-2.6,2.5
		c-1.7,2.8-1.7,5.8-0.4,8.8c0.8,1.8,2.3,3,4,3.8c0.3,0.2,0.4,0.3,0.3,0.7c-1,2.9-2.6,5.4-4.5,7.8c-1,1.2-2.2,2.1-3.8,2.4
		c-0.3,0-0.6,0-0.9,0c-0.2,0-0.4-0.1-0.6-0.1c-0.9-0.2-1.8-0.5-2.7-0.9c-1.9-0.8-3.8-0.8-5.7,0C105,152.2,104,152.6,102.9,152.8z"/>
	<path d="M108,121.3c0.2-3,1.6-5.4,4.1-7c1.1-0.7,2.2-1.2,3.5-1.4c0.5-0.1,0.6,0,0.6,0.5c0,2.7-1,4.8-2.9,6.7
		c-1.1,1.1-2.3,1.8-3.8,2c-0.4,0.1-0.8,0-1.1,0c-0.3,0-0.4-0.1-0.4-0.4C108,121.6,108,121.4,108,121.3z"/>
</g>
<g>
	<path class="st1" d="M33.5,5.2C33.5,5.2,33.4,5.3,33.5,5.2c-1.9,1.9-3.7,3.8-5.6,5.6c-0.1,0.1-0.1,0.1-0.3,0
		c-1.5-1.2-3.2-2-5.1-2.3c-0.9-0.2-1.8-0.2-2.7-0.2c-1.8,0.1-3.4,0.6-5,1.4c-0.9,0.5-1.7,1.1-2.4,1.7c-1.4,1.4-2.5,3-3.1,4.8l-6.7-5
		C3,10.5,3.4,9.7,3.9,9C4.5,8,5.2,7.2,6,6.4C7.3,5,8.9,3.7,10.6,2.8C11.9,2,13.3,1.4,14.8,1c0.9-0.3,1.9-0.5,2.8-0.6
		c0.5-0.1,1.1-0.1,1.6-0.2c0.5,0,1,0,1.6,0c0.9,0,1.8,0.1,2.6,0.2c1.2,0.2,2.4,0.5,3.5,0.9c1.7,0.6,3.3,1.4,4.7,2.4
		c0.6,0.4,1.2,0.9,1.7,1.3c0,0,0,0,0.1,0C33.5,5.1,33.5,5.2,33.5,5.2z"/>
	<path class="st2" d="M8.7,20.6c0,1,0.2,2.1,0.6,3.1l-6.7,5c-0.6-1.2-1-2.4-1.3-3.6c-0.3-1-0.5-2-0.5-3.1c0-0.4-0.1-0.9-0.1-1.3
		c0-0.4,0-0.8,0-1.1c0-0.7,0.1-1.3,0.1-2c0.1-1,0.3-2,0.6-3c0.3-1,0.6-2,1.1-2.9c0.1-0.2,0.1-0.3,0.2-0.4l6.7,5
		c0,0.1-0.1,0.2-0.1,0.3C9,17.4,8.8,18.2,8.8,19C8.7,19.5,8.7,20.1,8.7,20.6z"/>
	<path class="st3" d="M33.4,34.9c-1.1,1-2.3,1.9-3.6,2.6c-1.7,0.9-3.4,1.6-5.3,2c-0.8,0.2-1.5,0.3-2.3,0.3c-0.8,0.1-1.5,0.1-2.3,0.1
		c-1.3,0-2.6-0.2-3.9-0.5c-1.8-0.4-3.4-1-5-1.9c-1.2-0.7-2.4-1.5-3.5-2.4C6.1,34,4.9,32.6,3.9,31c-0.5-0.7-0.9-1.5-1.3-2.3l6.7-5
		c0.1,0.3,0.2,0.6,0.3,0.9c0.5,1.1,1,2,1.8,2.9c0.8,1,1.7,1.8,2.8,2.4c1.1,0.7,2.3,1.2,3.5,1.5c0.6,0.2,1.3,0.2,2,0.3
		c0.5,0,0.9,0,1.4,0c1.7-0.1,3.4-0.4,4.9-1.1c0.3-0.2,0.6-0.3,1-0.5L33.4,34.9z"/>
	<path class="st4" d="M39.4,20.9c0,1.4-0.2,2.9-0.5,4.3c-0.4,1.7-1,3.4-1.8,5c-0.6,1.1-1.2,2.1-2,3c-0.4,0.5-0.8,0.9-1.2,1.3
		c-0.1,0.1-0.3,0.3-0.4,0.4l-6.5-4.8c0.7-0.4,1.4-1,2-1.6c1.1-1.2,1.7-2.5,2.1-4c0-0.1,0-0.2,0.1-0.2c0-0.1,0-0.1-0.1-0.1H20.5
		c-0.1,0-0.1,0-0.1-0.1v-7.5c0-0.1,0-0.1,0.1-0.1h18.3c0.2,0,0.2,0,0.2,0.2c0.2,0.8,0.3,1.5,0.4,2.3C39.4,19.5,39.4,20.2,39.4,20.9z
		"/>
</g>
<image style="overflow:visible;" width="1846" height="1843" xlink:href="765BFCFA.png"  transform="matrix(2.168085e-02 0 0 2.168085e-02 -55.0753 -41.3406)">
</image>
<g>
	<path d="M-151.1,97.7c-1.4-0.3-2.5-0.9-3.4-2c-0.6-0.7-1-1.6-1.2-2.5c-0.1-0.3-0.2-0.5-0.6-0.5c-2.1,0-4.3,0-6.4,0
		c-2.4,0-4.4-1.9-4.4-4.6c0-1.3,0.5-2.4,1.4-3.3c0.7-0.7,1.3-1.4,2-2c0.5-0.5,0.7-1,0.7-1.6c0-2.3,0-4.7,0-7c0.1-3.5,1.3-6.5,3.8-9
		c1.4-1.4,3.1-2.4,5-3.1c0.3-0.1,0.4-0.2,0.3-0.5c-0.2-2,1.5-4,3.5-4c2.2-0.1,3.7,1.3,4,3.4c0,0.1,0,0.2,0,0.3c0,0.7,0,0.7,0.7,1
		c4.6,1.9,7.4,5.3,8.2,10.2c0.1,0.7,0.1,1.4,0.1,2.1c0,2.2,0,4.4,0,6.6c0,0.7,0.2,1.2,0.7,1.6c0.8,0.8,1.6,1.5,2.3,2.4
		c1.3,1.4,1.5,3.1,0.8,4.8c-0.8,1.7-2.2,2.7-4.1,2.7c-2.2,0-4.3,0-6.5,0c-0.3,0-0.4,0.1-0.5,0.3c-0.6,2.5-2.1,4-4.6,4.5
		c0,0,0,0-0.1,0C-149.9,97.7-150.5,97.7-151.1,97.7z M-150.2,90c4.1,0,8.1,0,12.2,0c0,0,0.1,0,0.1,0c0.8,0,1.4-0.3,1.7-1.1
		c0.3-0.8,0.1-1.4-0.5-2c-0.7-0.7-1.4-1.4-2.1-2.1c-1-1-1.5-2.2-1.5-3.6c0-2.3,0-4.5,0-6.8c0-0.7,0-1.3-0.2-2c-1-5.4-6.2-9-11.7-7.9
		c-4.7,0.9-8.2,5.1-8.1,9.9c0,2.3,0,4.6,0,6.9c0,1.2-0.4,2.2-1.2,3.1c-0.8,0.8-1.6,1.7-2.4,2.5c-0.4,0.4-0.6,0.9-0.5,1.6
		c0.2,0.9,0.9,1.4,1.9,1.4C-158.3,90-154.3,90-150.2,90z M-150.2,92.8c-0.8,0-1.6,0-2.4,0c-0.3,0-0.3,0.1-0.2,0.4
		c0.4,1,1.5,1.7,2.6,1.8c1.1,0,2.2-0.7,2.6-1.8c0.1-0.3,0-0.4-0.3-0.4C-148.6,92.8-149.4,92.8-150.2,92.8z M-150.2,61.6
		c0.2,0,0.4,0,0.6,0c0.3,0,0.3-0.1,0.3-0.4c-0.1-0.4-0.5-0.8-0.9-0.7c-0.4,0-0.8,0.4-0.9,0.8c0,0.2,0,0.4,0.3,0.3
		C-150.6,61.6-150.4,61.6-150.2,61.6z"/>
</g>
</svg>
