<?xml version="1.0" encoding="utf-8"?>
<!-- Generator: Adobe Illustrator 24.3.0, SVG Export Plug-In . SVG Version: 6.00 Build 0)  -->
<svg version="1.1" id="Layer_1" xmlns="http://www.w3.org/2000/svg" xmlns:xlink="http://www.w3.org/1999/xlink" x="0px" y="0px"
	 viewBox="0 0 24 24" style="enable-background:new 0 0 24 24;" xml:space="preserve">
<path d="M8,23c0-0.6-0.4-1-1-1H5c-1.7,0-3-1.3-3-3v-2c0-0.6-0.4-1-1-1s-1,0.4-1,1v2c0,2.8,2.2,5,5,5h2C7.6,24,8,23.6,8,23z"/>
<path d="M24,19v-2c0-0.6-0.4-1-1-1s-1,0.4-1,1v2c0,1.7-1.3,3-3,3h-2c-0.6,0-1,0.4-1,1s0.4,1,1,1h2C21.8,24,24,21.8,24,19z"/>
<path d="M24,7V5c0-2.8-2.2-5-5-5h-2c-0.6,0-1,0.4-1,1s0.4,1,1,1h2c1.7,0,3,1.3,3,3v2c0,0.6,0.4,1,1,1S24,7.6,24,7z"/>
<path d="M2,7V5c0-1.7,1.3-3,3-3h2c0.6,0,1-0.4,1-1S7.6,0,7,0H5C2.2,0,0,2.2,0,5v2c0,0.6,0.4,1,1,1S2,7.6,2,7z"/>
<circle cx="12" cy="12" r="2.4"/>
</svg>
