<?xml version="1.0" encoding="utf-8"?>
<!-- Generator: Adobe Illustrator 24.3.0, SVG Export Plug-In . SVG Version: 6.00 Build 0)  -->
<svg version="1.1" id="Capa_1" xmlns="http://www.w3.org/2000/svg" xmlns:xlink="http://www.w3.org/1999/xlink" x="0px" y="0px"
	 viewBox="0 0 1024 1024" style="enable-background:new 0 0 1024 1024;" xml:space="preserve">
<style type="text/css">
	.st0{fill:#45EDA1;}
	.st1{fill:#FFFFFF;}
	.st2{fill:#17C379;}
</style>
<g>
	<g>
		<path class="st0" d="M512,985.3c-63.9,0-125.9-12.5-184.2-37.2c-56.4-23.8-107-58-150.4-101.4S99.7,752.6,75.9,696.2
			C51.2,637.9,38.7,575.9,38.7,512s12.5-125.9,37.2-184.2c23.8-56.4,58-107,101.4-150.4s94.1-77.6,150.4-101.4
			C386.1,51.2,448.1,38.7,512,38.7s125.9,12.5,184.2,37.2c56.4,23.8,107,58,150.4,101.4s77.6,94.1,101.4,150.4
			c24.7,58.4,37.2,120.4,37.2,184.2s-12.5,125.9-37.2,184.2c-23.8,56.4-58,107-101.4,150.4s-94.1,77.6-150.4,101.4
			C637.9,972.8,575.9,985.3,512,985.3z M512,87.7C278,87.7,87.7,278,87.7,512S278,936.3,512,936.3S936.3,746,936.3,512
			S746,87.7,512,87.7z"/>
	</g>
	<g>
		<circle class="st1" cx="512" cy="512" r="403.8"/>
		<path class="st2" d="M512,938.8c-57.6,0-113.5-11.3-166.1-33.5c-50.8-21.5-96.5-52.3-135.7-91.5c-39.2-39.2-70-84.8-91.5-135.7
			C96.5,625.5,85.2,569.6,85.2,512s11.3-113.5,33.5-166.1c21.5-50.8,52.3-96.5,91.5-135.7s84.8-70,135.7-91.5
			C398.5,96.5,454.4,85.2,512,85.2s113.5,11.3,166.1,33.5c50.8,21.5,96.5,52.3,135.7,91.5c39.2,39.2,70,84.8,91.5,135.7
			c22.3,52.6,33.5,108.5,33.5,166.1s-11.3,113.5-33.5,166.1c-21.5,50.8-52.3,96.5-91.5,135.7c-39.2,39.2-84.8,70-135.7,91.5
			C625.5,927.5,569.6,938.8,512,938.8z M512,131.2C302,131.2,131.2,302,131.2,512c0,210,170.8,380.8,380.8,380.8
			c210,0,380.8-170.8,380.8-380.8C892.8,302,722,131.2,512,131.2z"/>
	</g>
	<g>
		<g>
			<g>
				<path class="st2" d="M564,754.6c-3.5-2.2-7-4.6-10.3-7c-0.8-0.6-1.5-1.2-2.3-1.7c1.7,1.2,0.1,0.1-0.6-0.5
					c-1.8-1.4-3.5-2.8-5.2-4.3c-6.2-5.3-12-11.1-17.4-17.2c-1.4-1.6-2.7-3.1-4-4.7c-0.6-0.7-1.2-1.5-1.8-2.2
					c-0.3-0.4-0.6-0.8-0.9-1.1c-1.1-1.4,1.1,1.5,0.1,0.1c-2.5-3.3-4.9-6.7-7.2-10.2c-4.5-6.8-8.6-13.9-12.2-21.2
					c-0.9-1.9-1.8-3.8-2.7-5.7c-0.4-0.9-0.8-1.8-1.2-2.6c-0.2-0.4-0.4-0.9-0.6-1.3c0.4,0.9,0.6,1.4,0.1,0.2c-1.6-3.9-3-7.8-4.4-11.7
					c-2.7-7.9-4.8-16-6.4-24.1c-0.4-1.9-0.7-3.8-1-5.7c-0.2-0.9-0.3-1.9-0.5-2.8c-0.1-0.5-0.1-1-0.2-1.4c-0.3-1.8,0.4,2.9,0-0.2
					c-0.5-4-0.9-7.9-1.1-11.9c-0.5-8.3-0.4-16.6,0.3-24.9c0.2-1.9,0.3-3.8,0.6-5.7c0.1-0.7,0.6-4,0.1-1.1c0.2-1.1,0.3-2.2,0.5-3.3
					c0.7-4.6,1.7-9.1,2.8-13.6c2.3-9.5,5.2-18.8,8.6-28c1.7-4.7,3.5-9.3,5.4-14c0.9-2.1,1.7-4.3,2.6-6.4c0,0,0.8-1.8,0.3-0.7
					c-0.5,1.1,0.3-0.7,0.3-0.7c0.6-1.4,1.2-2.8,1.8-4.3c3.9-9,7.9-18,11.7-27.1c8-19,15.5-38.2,20.1-58.4
					c4.3-19.1,6.6-38.8,6.1-58.3c-1.1-38.4-12.9-76-34.5-107.7c-3.1-4.6-6.5-9-9.9-13.4c-3.8-4.9-12.9-4.3-16.8,0
					c-4.8,5.2-4.1,11.6,0,16.8c-1.1-1.4,0.6,0.8,0.9,1.2c0.7,0.9,1.4,1.8,2,2.7c1.5,2.1,3,4.3,4.5,6.5c2.7,4,5.2,8.1,7.5,12.3
					c2.3,4.1,4.5,8.3,6.5,12.6c0.9,1.9,1.8,3.9,2.6,5.9c-0.8-1.8,0.2,0.5,0.4,1.1c0.5,1.3,1,2.6,1.5,4c3.2,8.4,5.7,17.1,7.6,25.9
					c1,4.5,1.7,9,2.4,13.5c0.2,1.4-0.1-0.4-0.1-0.5c0.1,0.7,0.2,1.4,0.3,2.1c0.1,1.1,0.2,2.1,0.3,3.2c0.2,2.3,0.4,4.6,0.6,6.9
					c0.6,9.3,0.5,18.7-0.2,28c-0.2,2.4-0.4,4.7-0.6,7.1c-0.1,1.1-0.2,2.2-0.4,3.3c-0.1,0.5-0.1,1.1-0.2,1.6c-0.2,1.9,0.3-1.8,0,0.1
					c-0.8,4.8-1.5,9.6-2.5,14.4c-4,19.4-10.7,38-18.3,56.2c-0.3,0.7-0.6,1.4-0.9,2.1c0.1-0.2,0.6-1.4,0.1-0.2
					c-0.5,1.1-0.9,2.1-1.4,3.2c-1,2.3-2,4.6-3,6.9c-2,4.6-4,9.2-6,13.8c-4.2,9.8-8.4,19.6-12.2,29.5c-7,18.5-12.3,37.5-14.5,57.2
					c-3.9,34.5,2.8,69.5,16.6,101.2c13.9,31.7,36.1,59.4,64,79.9c3.4,2.5,6.8,4.8,10.3,7c5.3,3.3,13.3,1.3,16.3-4.3
					C571.4,765.1,569.7,758.2,564,754.6L564,754.6z"/>
			</g>
		</g>
		<g>
			<g>
				<path class="st2" d="M558,754.2c-1.1-0.1-2.7-0.4-0.6-0.1c-1.1-0.2-2.2-0.3-3.3-0.5c-2-0.3-4.1-0.7-6.1-1
					c-4.3-0.8-8.5-1.7-12.7-2.7c-8.2-2-16.3-4.4-24.2-7.2c-4.2-1.5-8.3-3.1-12.4-4.7c-2.1-0.9,1.3,0.6-0.8-0.3
					c-0.9-0.4-1.8-0.8-2.7-1.2c-2.1-0.9-4.2-1.9-6.3-2.9c-7.9-3.8-15.6-7.9-23.2-12.4c-7.4-4.4-14.6-9.2-21.5-14.3
					c-0.9-0.7-1.9-1.4-2.8-2.1c-1.8-1.4,1.1,0.8-0.7-0.6c-1.8-1.4-3.6-2.9-5.4-4.4c-3.3-2.7-6.6-5.5-9.7-8.4
					c-6.4-5.9-12.6-12.1-18.3-18.6c-2.8-3.2-5.6-6.4-8.2-9.7c-0.4-0.5-2.4-3.1-0.8-1c-0.6-0.8-1.2-1.5-1.8-2.3
					c-1.4-1.8-2.7-3.6-4-5.5c-4.8-6.8-9.2-14-13.2-21.3c-2-3.8-4-7.6-5.7-11.6c-0.4-0.9-0.8-1.7-1.2-2.6c-0.2-0.4-0.4-0.9-0.6-1.3
					c0,0.1,0.8,1.9,0.3,0.6c-0.8-2.1-1.7-4.1-2.4-6.2c-3-8-5.4-16.2-7.4-24.6c-1-4.1-1.8-8.3-2.5-12.5c-0.4-2.1-0.7-4.2-1-6.3
					c-0.1-0.5-0.1-1-0.2-1.5c0,0.1,0.3,2.1,0.1,0.7c-0.1-1.1-0.3-2.3-0.4-3.4c-1.9-17.2-1.8-34.6,0.1-51.8c0.1-1,0.2-1.9,0.3-2.9
					c0.3-2.4-0.3,1.7,0.1-0.7c0.3-2.3,0.7-4.5,1.1-6.8c0.7-4.2,1.5-8.4,2.5-12.5c1.9-8.4,4.3-16.8,7.1-25c1.4-4,2.8-8,4.4-12
					c0.4-1.1,0.9-2.1,1.3-3.2c-0.8,1.9,0,0.1,0.3-0.8c0.9-2.1,1.9-4.2,2.8-6.2c3.6-7.7,7.6-15.2,12.1-22.4c2.3-3.8,4.7-7.5,7.2-11.1
					c1.1-1.6,2.2-3.2,3.4-4.8c0.7-0.9,1.4-1.8,2-2.7c0.3-0.4,0.6-0.8,0.9-1.2c1.1-1.4-1.2,1.5-0.1,0.1c5.4-6.7,11-13.3,17.2-19.4
					c3-3,6.1-5.9,9.3-8.8c4.7-4.2,4.6-12.6,0-16.8c-5-4.6-11.9-4.4-16.8,0c-27.7,24.8-48.5,56.2-62.3,90.5
					c-13.5,33.6-19.7,70.6-17.6,106.7c2.1,36.5,12.4,72.2,31.8,103.4c19.6,31.6,46.7,58.1,77.6,78.6c30.1,20.1,64.6,34.8,100.3,41.1
					c5,0.9,10,1.6,15,2.2c6.2,0.8,12.2-6,11.9-11.9C569.6,759,564.7,755,558,754.2L558,754.2z"/>
			</g>
		</g>
		<g>
			<g>
				<path class="st2" d="M492.8,269.4c3.7,1.3,7.4,2.6,11.1,4c2,0.8,4,1.5,6,2.3c0.8,0.3,1.7,0.7,2.5,1c0.4,0.2,3.9,1.7,1.6,0.7
					c7.6,3.3,15.1,6.8,22.4,10.6c14.3,7.4,28,16,40.9,25.7c0.9,0.6,1.7,1.3,2.6,1.9c-2-1.5,0.8,0.6,1,0.8c1.4,1.1,2.8,2.2,4.2,3.4
					c3.3,2.7,6.5,5.5,9.7,8.4c6.1,5.5,11.9,11.3,17.4,17.4c2.6,2.9,5.2,5.9,7.7,8.9c1.1,1.4,2.3,2.8,3.4,4.2
					c2.3,2.8-1.3-1.8,0.8,1.1c0.9,1.2,1.8,2.4,2.6,3.5c4.9,6.7,9.4,13.7,13.5,20.9c4.1,7.2,7.8,14.6,11.1,22.2
					c1.5,3.3-0.8-2.1,0.5,1.2c0.4,1,0.8,2,1.2,3.1c0.7,1.7,1.3,3.4,1.9,5.2c1.5,4.1,2.9,8.3,4.1,12.6c2.4,8.1,4.3,16.3,5.7,24.6
					c0.3,1.8,0.6,3.6,0.8,5.4c-0.4-2.7,0.1,0.9,0.1,1.2c0.1,1.1,0.2,2.2,0.4,3.3c0.4,4.2,0.7,8.4,0.8,12.6c0.3,8.2,0,16.5-0.8,24.7
					c-0.1,1.1-0.2,2.2-0.4,3.3c-0.4,3.6,0.4-2.3-0.1,1c-0.2,1.6-0.5,3.2-0.8,4.8c-0.7,3.9-1.5,7.7-2.4,11.5
					c-1.8,7.3-4.1,14.5-6.8,21.5c-0.3,0.8-0.6,1.5-0.9,2.3c-0.2,0.6-1.1,2.7-0.1,0.3c-0.8,1.8-1.6,3.6-2.4,5.4
					c-1.6,3.4-3.3,6.8-5.1,10.1c-4,7.3-8.6,14.3-13.6,20.9c-2,2.6,1.5-1.8-0.5,0.7c-0.6,0.8-1.2,1.5-1.8,2.3
					c-1.4,1.8-2.9,3.5-4.5,5.2c-2.7,3-5.5,5.9-8.5,8.8c-2.9,2.8-6,5.5-9.1,8.1c-0.8,0.6-1.5,1.2-2.3,1.8c-1.1,0.8-1,0.8,0.1-0.1
					c-0.5,0.4-1,0.8-1.6,1.2c-1.6,1.2-3.2,2.3-4.8,3.4c-7,4.8-14.4,8.9-22.1,12.3c-5.7,2.6-7.5,11.3-4.3,16.3
					c3.8,5.9,10.2,7,16.3,4.3c60.5-27.3,98-92.2,100.3-157.3c2.5-71.7-34.3-140.4-88.9-185.3c-30.5-25.1-65.5-43.7-102.8-56.4
					c-5.9-2-13.3,2.3-14.6,8.3C483,261.4,486.5,267.2,492.8,269.4L492.8,269.4z"/>
			</g>
		</g>
		<g>
			<g>
				<path class="st2" d="M421.1,351.5c-15.3,1.6-30.6,3.2-45.9,4.8c-3.2,0.3-6,1.1-8.4,3.5c-2.1,2.1-3.6,5.4-3.5,8.4
					c0.3,5.9,5.3,12.6,11.9,11.9c15.3-1.6,30.6-3.2,45.9-4.8c3.2-0.3,6-1.1,8.4-3.5c2.1-2.1,3.6-5.4,3.5-8.4
					C432.7,357.5,427.7,350.9,421.1,351.5L421.1,351.5z"/>
			</g>
		</g>
		<g>
			<g>
				<path class="st2" d="M411.3,363.8c-1.3,13.6-2.3,27.1-3.7,40.7c-0.3,2.9,1.5,6.5,3.5,8.4c2.1,2.1,5.4,3.6,8.4,3.5
					c3.1-0.1,6.3-1.1,8.4-3.5c2.3-2.5,3.2-5.1,3.5-8.4c1.3-13.6,2.3-27.1,3.7-40.7c0.3-2.9-1.5-6.5-3.5-8.4
					c-2.1-2.1-5.4-3.6-8.4-3.5c-3.1,0.1-6.3,1.1-8.4,3.5C412.5,357.9,411.6,360.5,411.3,363.8L411.3,363.8z"/>
			</g>
		</g>
		<g>
			<g>
				<path class="st2" d="M596.8,636.9c2.7-13.1,6.4-26,9.1-39.1c1.3-6.1-1.8-13.1-8.3-14.6c-5.9-1.4-13.3,1.8-14.6,8.3
					c-2.7,13.1-6.4,26-9.1,39.1c-1.3,6.1,1.8,13.1,8.3,14.6C588.1,646.5,595.5,643.4,596.8,636.9L596.8,636.9z"/>
			</g>
		</g>
		<g>
			<g>
				<path class="st2" d="M581.4,646.7c16.7,2.5,33.4,4.3,50.2,5.7c6.2,0.5,12.2-5.8,11.9-11.9c-0.3-6.9-5.2-11.4-11.9-11.9
					c-7.7-0.6-15.4-1.3-23.1-2.1c-3.6-0.4-7.2-0.8-10.7-1.3c-0.6-0.1-1.1-0.1-1.7-0.2c1.6,0.2,1.9,0.3,1,0.1c-1-0.1-2-0.3-3-0.4
					c-2.1-0.3-4.2-0.6-6.3-0.9c-3.3-0.5-6.2-0.5-9.2,1.2c-2.5,1.4-4.8,4.3-5.5,7.1C571.8,637.7,574.8,645.6,581.4,646.7L581.4,646.7
					z"/>
			</g>
		</g>
	</g>
</g>
</svg>
