<?xml version="1.0" encoding="utf-8"?>
<!-- Generator: Adobe Illustrator 24.3.0, SVG Export Plug-In . SVG Version: 6.00 Build 0)  -->
<svg version="1.1" id="Capa_1" xmlns="http://www.w3.org/2000/svg" xmlns:xlink="http://www.w3.org/1999/xlink" x="0px" y="0px"
	 viewBox="0 0 40 40" style="enable-background:new 0 0 40 40;" xml:space="preserve">
<path d="M38.5,15.1L25.9,2.4c-3.3-3.3-8.5-3.3-11.8,0L1.5,15.1C0.5,16,0,17.3,0,18.6V35c0,2.8,2.2,5,5,5h30c2.8,0,5-2.2,5-5V18.6
	C40,17.3,39.5,16,38.5,15.1z M25,36.7H15v-6.6c0-2.8,2.2-5,5-5s5,2.2,5,5V36.7z M36.7,35c0,0.9-0.7,1.7-1.7,1.7h-6.7v-6.6
	c0-4.6-3.7-8.3-8.3-8.3s-8.3,3.7-8.3,8.3v6.6H5c-0.9,0-1.7-0.7-1.7-1.7V18.6c0-0.4,0.2-0.9,0.5-1.2L16.5,4.8c2-1.9,5.1-1.9,7.1,0
	l12.6,12.7c0.3,0.3,0.5,0.7,0.5,1.2V35z"/>
<g>
	<path d="M80,10c-3.7,0-6.7,3-6.7,6.7s3,6.7,6.7,6.7s6.7-3,6.7-6.7S83.7,10,80,10z M80,20c-1.8,0-3.3-1.5-3.3-3.3s1.5-3.3,3.3-3.3
		s3.3,1.5,3.3,3.3S81.8,20,80,20z"/>
	<path d="M80,40c-2.8,0-5.5-1.4-7.2-3.7c-6.4-8.8-9.6-15.3-9.6-19.6C63.2,7.5,70.7,0,80,0c9.3,0,16.8,7.5,16.8,16.8
		c0,4.2-3.2,10.8-9.6,19.6C85.5,38.6,82.8,40,80,40z M80,3.6c-7.2,0-13.1,5.9-13.1,13.1c0,3.3,3.2,9.5,8.9,17.4
		c1.7,2.3,5,2.9,7.3,1.2c0.4-0.3,0.8-0.7,1.2-1.2c5.7-7.9,8.9-14.1,8.9-17.4C93.1,9.5,87.2,3.6,80,3.6z"/>
</g>
<path d="M140,10c-3.7,0-6.7,3-6.7,6.7s3,6.7,6.7,6.7s6.7-3,6.7-6.7S143.7,10,140,10z M140,20c-1.8,0-3.3-1.5-3.3-3.3
	c0-1.8,1.5-3.3,3.3-3.3c1.8,0,3.3,1.5,3.3,3.3C143.3,18.5,141.8,20,140,20z M160,30.8c-0.1-0.8-0.4-1.5-1-2.1l-5.6-5.6c0,0,0,0,0,0
	l0,0c0,0,0,0,0,0c-0.1-0.5,0.1-1.2,0.5-1.4c0.8-0.5,1.5-1.3,2-2.2c0.5-0.9,0.7-1.8,0.7-2.8c0-1-0.2-2-0.7-2.8
	c-0.5-0.9-1.2-1.6-2-2.2c-0.4-0.3-0.7-0.8-0.6-1.3c0.2-1,0.2-2-0.1-3c-0.5-1.9-2.1-3.4-4-4c-1-0.3-2-0.3-3-0.1
	c-0.5,0.1-1-0.1-1.3-0.6c-0.5-0.8-1.3-1.5-2.2-2c-1.7-1-3.9-1-5.6,0c-0.9,0.5-1.6,1.2-2.2,2c-0.3,0.4-0.8,0.7-1.3,0.6
	c-1-0.2-2-0.2-3,0.1c-1.9,0.5-3.4,2.1-4,4c-0.3,1-0.3,2-0.1,3c0.1,0.5-0.1,1-0.6,1.3c-0.8,0.5-1.5,1.3-2,2.2
	c-0.5,0.9-0.7,1.8-0.7,2.8c0,1,0.2,2,0.7,2.8c0.5,0.9,1.2,1.6,2,2.2c0.4,0.3,0.6,1,0.5,1.5c0,0,0,0,0,0c0,0,0,0,0,0l-5.6,5.6
	c-0.6,0.6-0.9,1.3-1,2.1c-0.2,1.9,1.2,3.6,3.1,3.8l2,0.2l0.2,2c0.1,0.8,0.4,1.5,1,2.1c0.4,0.4,0.8,0.7,1.3,0.8
	c0.4,0.1,0.8,0.2,1.2,0.2c0.9,0,1.8-0.4,2.5-1l6.2-6.2c0.8,0.4,1.7,0.6,2.5,0.6c0.9,0,1.7-0.2,2.5-0.6l6.2,6.2c0.7,0.7,1.6,1,2.5,1
	c0.4,0,0.8-0.1,1.2-0.2c0.5-0.2,0.9-0.5,1.3-0.8c0.6-0.6,0.9-1.3,1-2.1l0.2-2l2-0.2C158.8,34.5,160.2,32.7,160,30.8L160,30.8z
	 M128.7,36.7l-0.1-0.1l-0.5-4.6l-4.7-0.5c-0.1,0-0.1-0.1-0.1-0.3l3.9-3.9c0.7,1.3,2,2.3,3.5,2.7c1,0.3,2,0.3,3,0.1
	c0.4-0.1,0.9,0.1,1.2,0.5L128.7,36.7L128.7,36.7z M142.2,28.8c-0.2,0.4-0.6,0.7-1,0.9c-0.7,0.4-1.7,0.4-2.4,0
	c-0.4-0.2-0.7-0.5-1-0.9c-0.9-1.3-2.3-2.1-3.8-2.1c-0.3,0-0.6,0-1,0.1c-0.4,0.1-0.9,0.1-1.4-0.1c-0.8-0.2-1.5-0.9-1.7-1.7
	c-0.1-0.5-0.1-0.9-0.1-1.4c0.4-1.8-0.4-3.8-2-4.8c-0.4-0.2-0.7-0.6-0.9-1c-0.2-0.4-0.3-0.8-0.3-1.2c0-0.4,0.1-0.9,0.3-1.2
	c0.2-0.4,0.5-0.7,0.9-1c1.6-1,2.4-3,2-4.8c-0.1-0.4-0.1-0.9,0.1-1.4c0.2-0.8,0.9-1.5,1.7-1.7c0.5-0.1,0.9-0.1,1.3-0.1
	c1.8,0.4,3.8-0.4,4.8-2c0.2-0.4,0.6-0.7,1-0.9c0.7-0.4,1.7-0.4,2.4,0c0.4,0.2,0.7,0.5,1,0.9c1,1.6,3,2.4,4.8,2
	c0.4-0.1,0.9-0.1,1.4,0.1c0.8,0.2,1.5,0.9,1.7,1.7c0.1,0.5,0.1,0.9,0.1,1.4c-0.4,1.8,0.4,3.8,2,4.8c0.4,0.2,0.7,0.6,0.9,1l0,0
	c0.2,0.4,0.3,0.8,0.3,1.2c0,0.4-0.1,0.9-0.3,1.2c-0.2,0.4-0.5,0.7-0.9,1c-1.6,1-2.4,3-2,4.8c0.1,0.4,0.1,0.9-0.1,1.4
	c-0.2,0.8-0.9,1.5-1.7,1.7c-0.5,0.1-0.9,0.2-1.3,0.1C145.2,26.4,143.2,27.2,142.2,28.8L142.2,28.8z M156.5,31.4l-4.7,0.5l-0.5,4.6
	l-0.1,0.1l-0.2,0h0l-6.1-6.1c0.3-0.4,0.8-0.6,1.2-0.5c1,0.2,2,0.2,3-0.1c1.5-0.4,2.7-1.4,3.5-2.7l4,4
	C156.7,31.3,156.6,31.3,156.5,31.4L156.5,31.4z M126.6,23.2L126.6,23.2C126.6,23.1,126.6,23.1,126.6,23.2
	C126.6,23.1,126.6,23.2,126.6,23.2L126.6,23.2z"/>
<g>
	<path d="M200,20.8c5.8,0,10.4-4.7,10.4-10.4S205.8,0,200,0s-10.4,4.7-10.4,10.4C189.6,16.2,194.3,20.8,200,20.8z M200,3.5
		c3.8,0,6.9,3.1,6.9,6.9s-3.1,6.9-6.9,6.9s-6.9-3.1-6.9-6.9S196.2,3.5,200,3.5z"/>
	<path d="M200,22.6c-8.6,0-15.6,7-15.6,15.6c0,1,0.8,1.7,1.7,1.7s1.7-0.8,1.7-1.7c0-6.7,5.4-12.2,12.2-12.2s12.2,5.4,12.2,12.2
		c0,1,0.8,1.7,1.7,1.7s1.7-0.8,1.7-1.7C215.6,29.6,208.6,22.7,200,22.6z"/>
</g>
</svg>
