<?xml version="1.0" encoding="utf-8"?>
<!-- Generator: Adobe Illustrator 24.3.0, SVG Export Plug-In . SVG Version: 6.00 Build 0)  -->
<svg version="1.1" id="Layer_1" xmlns="http://www.w3.org/2000/svg" xmlns:xlink="http://www.w3.org/1999/xlink" x="0px" y="0px"
	 viewBox="0 0 829 661.2" style="enable-background:new 0 0 829 661.2;" xml:space="preserve">
<style type="text/css">
	.st0{fill:#CCCA81;}
	.st1{fill:#FFFFFF;}
	.st2{fill:#D3E1FC;}
	.st3{fill:#D25C4E;}
	.st4{fill:#FBDD63;}
	.st5{fill:#F1CE58;}
	.st6{fill:#FEC456;}
	.st7{opacity:0.6;}
	.st8{fill:#B1B2C4;}
	.st9{fill:#FF937E;}
	.st10{fill:#A74341;}
	.st11{fill:#DA5B54;}
	.st12{fill:#482B2D;}
	.st13{fill:#F03F3F;}
	.st14{fill:#D73435;}
	.st15{fill:#E59653;}
	.st16{fill:#D75C52;}
	.st17{fill:#DE5A55;}
	.st18{fill:#E3F1FE;}
	.st19{fill:#FBDD63;stroke:#FFFFFF;stroke-width:1.6018;stroke-linecap:round;stroke-linejoin:round;stroke-miterlimit:10;}
</style>
<g>
	<path class="st0" d="M27.2,472c-38.7-78.7,40.1-255.5,130-306c89.9-50.5,226.3,100.6,321.5,11.2C573.8,87.8,603.9,0,718.7,25.7
		c114.8,25.7,93.7,300.8-90.1,429S95,609.7,27.2,472z"/>
	<g>
		<g>
			<path class="st1" d="M692.6,33v99.2c0,2.5,2.5,4.4,5.7,4.4h98.4c3.1,0,5.7-2,5.7-4.4V33c0-2.5-2.5-4.4-5.7-4.4h-98.4
				C695.1,28.6,692.6,30.6,692.6,33z"/>
		</g>
		<g>
			<path class="st1" d="M692.6,149.3v96c0,2.5,2.5,4.4,5.7,4.4h98.4c3.1,0,5.7-2,5.7-4.4v-96c0-2.5-2.5-4.4-5.7-4.4h-98.4
				C695.1,144.9,692.6,146.9,692.6,149.3z"/>
		</g>
		<g>
			<path class="st1" d="M574.5,33v99.2c0,2.5,2.5,4.4,5.7,4.4h98.4c3.1,0,5.7-2,5.7-4.4V33c0-2.5-2.5-4.4-5.7-4.4h-98.4
				C577,28.6,574.5,30.6,574.5,33z"/>
		</g>
		<g>
			<path class="st1" d="M574.5,149.3v96c0,2.5,2.5,4.4,5.7,4.4h98.4c3.1,0,5.7-2,5.7-4.4v-96c0-2.5-2.5-4.4-5.7-4.4h-98.4
				C577,144.9,574.5,146.9,574.5,149.3z"/>
		</g>
	</g>
	<g>
		<polygon class="st2" points="717.6,628.3 227.1,628.3 95.9,516.1 588.1,518.4 		"/>
		<g>
			<g>
				<g>
					<g>
						<g>
							<g>
								<g>
									<path class="st1" d="M166.5,595.9l0-1.8c11.9,0,36.5-0.1,67-0.2l3.9,0c7.1,0,14.4-0.1,21.9-0.1c26-0.2,50.4-0.4,72.5-0.6
										c14.1-0.2,27.1-0.4,38.6-0.5c22.2-0.4,40.1-0.8,53.3-1.3c3.9-0.1,8.3-0.3,14.2-0.5c12.3-0.4,26.7-0.7,44.3-1.1
										c17.1-0.4,36.7-0.7,59.8-1.1c14.7-0.2,30.1-0.4,47.2-0.6c12.3-0.2,24.9-0.3,36.4-0.4l0,1.8c-11.5,0.1-24.1,0.3-36.4,0.4
										c-17.1,0.2-32.5,0.4-47.2,0.6c-23.1,0.4-42.7,0.7-59.8,1.1c-17.5,0.4-32,0.7-44.2,1.1c-5.9,0.2-10.3,0.3-14.2,0.5
										c-13.2,0.5-31.1,0.9-53.3,1.3c-11.5,0.2-24.5,0.4-38.6,0.5c-22,0.3-46.4,0.5-72.5,0.6c-7.5,0-14.8,0.1-21.9,0.1l-3.9,0
										C203,595.8,178.4,595.9,166.5,595.9z"/>
								</g>
							</g>
						</g>
					</g>
				</g>
			</g>
			<g>
				<g>
					<g>
						<g>
							<g>
								<g>
									<path class="st1" d="M347.3,556.5c-9,0-17.3-0.1-25-0.4c-9.6-0.3-18.3-0.9-26-1.7c-14.7-1.5-29.9-2.5-45.2-2.9
										c-10.2-0.3-20.7-0.4-31.1-0.3c-23.8,0.3-47.3,1.9-70,4.5l-0.2-1.8c22.8-2.7,46.4-4.2,70.2-4.6c10.4-0.1,20.9-0.1,31.2,0.3
										c15.3,0.5,30.5,1.4,45.3,2.9c7.6,0.8,16.3,1.3,25.9,1.6c11.5,0.4,24.6,0.5,39,0.3c20.1-0.3,43.1-1.2,68.4-2.6
										c13.8-0.8,28.6-1.8,43.8-2.9c17.8-1.3,36.5-2.9,55.7-4.7c14.5-1.3,29.7-2.8,45.1-4.4c9.2-0.9,18.5-1.9,27.5-2.9l0.2,1.8
										c-9,1-18.3,2-27.5,2.9c-15.5,1.6-30.7,3.1-45.2,4.4c-19.2,1.8-37.9,3.3-55.7,4.7c-15.2,1.1-30,2.1-43.8,2.9
										c-25.3,1.5-48.4,2.3-68.4,2.6C356.6,556.5,351.9,556.5,347.3,556.5z"/>
								</g>
							</g>
						</g>
					</g>
				</g>
			</g>
		</g>
	</g>
	<g>
		<g>
			<g>
				<g>
					<g>
						<g>
							<g>
								<rect x="166.9" y="103.7" class="st3" width="2.8" height="426.6"/>
							</g>
						</g>
					</g>
				</g>
			</g>
		</g>
		<g>
			<g>
				<g>
					<g>
						<g>
							<g>
								<path class="st1" d="M203.5,87.1h-69.1c-11.1,37.8-22.1,75.6-33.2,113.4c45.2,0.7,90.3,1.4,135.5,2.1
									C225.6,164.1,214.6,125.6,203.5,87.1z"/>
							</g>
						</g>
					</g>
				</g>
			</g>
			<g>
				<g>
					<g>
						<g>
							<g>
								<path class="st4" d="M100.2,201.2c0.2,0.3,0.6,0.5,0.9,0.5l135.5,2.1c0,0,0,0,0,0c0.4,0,0.7-0.2,0.9-0.5
									c0.2-0.3,0.3-0.7,0.2-1L204.7,86.8c-0.2-0.5-0.6-0.9-1.1-0.9h-69.1c-0.5,0-1,0.3-1.1,0.9l-33.2,113.4
									C100,200.5,100,200.9,100.2,201.2z"/>
							</g>
						</g>
					</g>
				</g>
			</g>
			<g>
				<g>
					<g>
						<g>
							<g>
								<path class="st4" d="M100.2,201.2c0.2,0.3,0.6,0.5,0.9,0.5l135.5,2.1c0,0,0,0,0,0c0.4,0,0.7-0.2,0.9-0.5
									c0.2-0.3,0.3-0.7,0.2-1L204.7,86.8c-0.2-0.5-0.6-0.9-1.1-0.9h-69.1c-0.5,0-1,0.3-1.1,0.9l-33.2,113.4
									C100,200.5,100,200.9,100.2,201.2z"/>
							</g>
						</g>
					</g>
				</g>
			</g>
			<g>
				<g>
					<g>
						<g>
							<g>
								<path class="st4" d="M100.2,201.2c0.2,0.3,0.6,0.5,0.9,0.5l135.5,2.1c0,0,0,0,0,0c0.4,0,0.7-0.2,0.9-0.5
									c0.2-0.3,0.3-0.7,0.2-1L204.7,86.8c-0.2-0.5-0.6-0.9-1.1-0.9h-69.1c-0.5,0-1,0.3-1.1,0.9l-33.2,113.4
									C100,200.5,100,200.9,100.2,201.2z"/>
							</g>
						</g>
					</g>
				</g>
			</g>
			<path class="st5" d="M133.2,86.8c0.2-0.5,0.6-0.9,1.1-0.9h7.4c-7.8,14-9.8,39-10.5,52.5c-1.5,26.3,13.6,51,23.3,64.1l-53.4-0.8
				c-0.4,0-0.7-0.2-0.9-0.5c-0.2-0.3-0.3-0.7-0.2-1L133.2,86.8z"/>
		</g>
		<g>
			<g>
				<g>
					<g>
						<g>
							<g>
								
									<rect x="129.2" y="521.7" transform="matrix(-1 -1.224647e-16 1.224647e-16 -1 334.4374 1057.1902)" class="st3" width="76.1" height="13.8"/>
							</g>
						</g>
					</g>
				</g>
			</g>
			<g>
				<g>
					<g>
						<g>
							<g>
								<path class="st3" d="M128.3,535.5v-13.8c0-0.5,0.4-0.9,0.9-0.9h76.1c0.5,0,0.9,0.4,0.9,0.9v13.8c0,0.5-0.4,0.9-0.9,0.9
									h-76.1C128.7,536.4,128.3,536,128.3,535.5z M204.3,522.6h-74.2v11.9h74.2V522.6z"/>
							</g>
						</g>
					</g>
				</g>
			</g>
		</g>
		<g>
			<g>
				<path class="st6" d="M214,203.6c0.1,0,0.2,0,0.2,0c0.6-0.1,1.1-0.8,0.9-1.4L192.1,87.1c-0.1-0.6-0.8-1.1-1.4-0.9
					c-0.6,0.1-1.1,0.8-0.9,1.4l23.1,115.1C213,203.2,213.5,203.6,214,203.6z"/>
			</g>
			<g>
				<path class="st6" d="M186.3,203.2C186.3,203.2,186.4,203.2,186.3,203.2c0.7-0.1,1.2-0.6,1.2-1.3l-8.4-114.7
					c0-0.7-0.6-1.1-1.3-1.1c-0.7,0-1.1,0.6-1.1,1.3l8.4,114.7C185.2,202.7,185.7,203.2,186.3,203.2z"/>
			</g>
			<g>
				<path class="st6" d="M158.8,202.7c0.6,0,1.1-0.5,1.2-1.1l5.9-114.2c0-0.7-0.5-1.2-1.1-1.2c0,0,0,0-0.1,0c-0.6,0-1.1,0.5-1.2,1.1
					l-5.9,114.2C157.6,202.2,158.1,202.7,158.8,202.7C158.8,202.7,158.8,202.7,158.8,202.7z"/>
			</g>
			<g>
				<path class="st6" d="M131.6,202.3c0.6,0,1.1-0.4,1.2-1l19.7-113.8c0.1-0.6-0.3-1.3-1-1.4c-0.6-0.1-1.3,0.3-1.4,1l-19.7,113.8
					c-0.1,0.6,0.3,1.3,1,1.4C131.5,202.3,131.6,202.3,131.6,202.3z"/>
			</g>
		</g>
	</g>
</g>
<g>
	<g class="st7">
		<path class="st8" d="M294.3,580.4c-67.8,23.5-67.8,47.6-67.8,47.6c19.8-1.1,173.6,0.1,191,0c18.5-0.1,226.3-47.1,234.5-55.2
			l-63-53.5c-38.8,2.2-230.4-4.1-244.8-5.3C329.6,512.8,403.2,542.6,294.3,580.4z"/>
	</g>
	<g>
		<g>
			<g>
				<g>
					<g>
						<path class="st9" d="M386.4,584.5c-6.2,8.9-15.6,10.7-18.4,11c0,0-0.1,0-0.1,0c-0.5,0-1-0.4-1.1-0.9L354.5,525
							c-0.1-0.4,0.1-0.8,0.4-1l21.2-16c0.3-0.2,0.7-0.3,1-0.1s0.6,0.4,0.7,0.8l12.8,57.1C391.1,568.7,391.7,576.8,386.4,584.5z"/>
					</g>
				</g>
			</g>
			<path class="st10" d="M377.7,508.2c-0.1-0.3-0.3-0.6-0.7-0.8c-0.3-0.1-0.7-0.1-1,0.1l-21.2,16.1c-0.3,0.2-0.5,0.6-0.4,1l4.1,23.3
				c4.3,1.3,9.2,1.9,14.3,2.2c5.2,0.3,10,0.1,14.2-0.2L377.7,508.2z"/>
			<g>
				<g>
					<g>
						<path class="st11" d="M388.4,561.5c-0.9,7.2-6.6,11.7-11.5,11.1c-4.6-0.6-7.1-5.5-7.4-6c0.6-1.5,5.7-14.7,1.2-17.9
							c-0.5-0.4-1.2-0.5-2.5-0.8c-2.6-0.6-8.2-1.9-11.5,0.4c-2,1.5-2.5,4.4-3.3,10.3c-1.1,7.7-0.6,15-0.5,15c0,0,0-0.1,0-0.2
							c-7.7,2.7-16,5.3-24.7,7.8c-9.9,2.8-19.4,5.1-28.4,7c-0.1,1.3-0.2,2.6-0.3,3.9c-0.2,2.3-0.3,4.5-0.5,6.8h105.3
							C399.1,586.4,393.7,573.9,388.4,561.5z"/>
					</g>
				</g>
				<g>
					<g>
						<g>
							<path class="st11" d="M298.3,599.5c-0.2-0.2-0.3-0.5-0.3-0.8c0.2-2.1,0.3-4.3,0.5-6.4l0.3-4.3c0-0.5,0.4-0.9,0.8-1
								c9.5-2,19-4.3,28.3-7c8-2.3,15.9-4.8,23.8-7.5c-0.3-2.9-0.1-9.3,0.6-14.3c0.9-6.2,1.3-9.3,3.7-11c3.7-2.6,9.6-1.2,12.4-0.6
								l0.2,0c1.2,0.3,2,0.5,2.7,1c4.6,3.4,0.9,14.6-0.7,18.7c0.7,1.2,2.9,4.6,6.3,5c4.3,0.5,9.5-3.4,10.4-10.2
								c0.1-0.5,0.4-0.8,0.9-0.9c0.5-0.1,0.9,0.2,1.1,0.6l16,37.3c0.1,0.3,0.1,0.7-0.1,1c-0.2,0.3-0.5,0.5-0.9,0.5H299.1
								C298.8,599.9,298.5,599.7,298.3,599.5z M388.7,564.8c-2.1,6-7.4,9.3-12,8.8c-5.1-0.6-7.9-6-8.2-6.6c-0.1-0.3-0.1-0.6,0-0.9
								c2.6-6.7,4.2-14.7,1.6-16.7c-0.3-0.2-0.9-0.4-1.9-0.6l-0.2,0c-2.5-0.6-7.7-1.8-10.7,0.2c-1.7,1.2-2.1,4-2.9,9.6
								c-0.9,6.4-0.7,12.4-0.6,14.1c0.1,0.2,0.2,0.5,0.2,0.7c-0.2,1.1-1,1.1-1.1,1.1c-0.1,0-0.1,0-0.2,0c-7.9,2.8-16,5.3-24.1,7.6
								c-9.1,2.6-18.4,4.9-27.7,6.8l-0.3,3.5c-0.1,1.8-0.3,3.5-0.4,5.3h102.5L388.7,564.8z"/>
						</g>
					</g>
				</g>
			</g>
			<g>
				<g>
					<g>
						<path class="st10" d="M404.4,592v6.8H299.1c0.2-2.3,0.3-4.5,0.5-6.8H404.4z"/>
					</g>
				</g>
				<g>
					<g>
						<g>
							<path class="st10" d="M298.3,599.5c-0.2-0.2-0.3-0.5-0.3-0.8c0.2-2.3,0.3-4.5,0.5-6.8c0-0.6,0.5-1,1.1-1h104.8
								c0.6,0,1.1,0.5,1.1,1.1v6.8c0,0.6-0.5,1.1-1.1,1.1H299.1C298.8,599.9,298.5,599.7,298.3,599.5z M403.3,593.1H300.6
								c-0.1,1.6-0.2,3.1-0.4,4.7h103.1V593.1z"/>
						</g>
					</g>
				</g>
			</g>
			<g>
				<g>
					<g>
						<path class="st12" d="M355.5,585.5c0,0,0.1,0,0.1,0c0.6-0.1,1-0.6,0.9-1.2c-0.9-8.4-6.5-10.7-6.7-10.7
							c-0.5-0.2-1.2,0.1-1.4,0.6c-0.2,0.5,0.1,1.2,0.6,1.4c0.2,0.1,4.6,2,5.4,9C354.5,585.1,354.9,585.5,355.5,585.5z"/>
					</g>
				</g>
			</g>
			<g>
				<g>
					<g>
						<path class="st12" d="M349.3,588.3C349.3,588.3,349.3,588.3,349.3,588.3c0.6,0,1.1-0.5,1.1-1.1c-0.4-8.7-5.9-11.6-6.1-11.8
							c-0.5-0.3-1.2-0.1-1.4,0.5c-0.3,0.5-0.1,1.2,0.5,1.4c0.2,0.1,4.6,2.5,5,10C348.3,587.9,348.7,588.3,349.3,588.3z"/>
					</g>
				</g>
			</g>
			<path class="st12" d="M337.6,578.6c0.5-0.3,1.1-0.2,1.5,0.2c0.1,0.1,2.2,3.1,3.5,8.2c0.1,0.6-0.2,1.1-0.8,1.3c-0.1,0-0.2,0-0.3,0
				c-0.5,0-0.9-0.3-1-0.8c-1.2-4.6-3.1-7.4-3.1-7.5C337,579.6,337.1,579,337.6,578.6z"/>
		</g>
		<g>
			<g>
				<g>
					<g>
						<path class="st12" d="M532,124.3c0,0-14.8,31.5-38.2,12.3c-23.4-19.2,7.8-19.2,7.8-19.2s-12-21.8,11.4-21.8
							c23.4,0,15.1,11.4,15.1,11.4s22.4-16.1,24.4,7.3c2.1,23.4-2.6,0-2.6,0s14.6,20.5,3.1,35.5L532,124.3z"/>
					</g>
				</g>
			</g>
		</g>
		<g>
			<g>
				<g>
					<g>
						<polygon class="st12" points="419.9,462.2 406,538.6 412.9,538.6 437.2,462.2 						"/>
					</g>
				</g>
			</g>
			<g>
				<g>
					<g>
						<path class="st12" d="M413.4,539.3h-8.3l14.1-77.7h18.9L413.4,539.3z M406.8,537.9h5.6l23.9-75h-15.8L406.8,537.9z"/>
					</g>
				</g>
			</g>
		</g>
		<g>
			<g>
				<g>
					<g>
						<polygon class="st12" points="527.5,462.2 527.5,513.4 536.1,513.4 540.5,449.2 						"/>
					</g>
				</g>
			</g>
			<g>
				<g>
					<g>
						<path class="st12" d="M536.8,514.1h-10v-52.2l14.5-14.5L536.8,514.1z M528.1,512.7h7.4l4.2-61.7l-11.5,11.5V512.7z"/>
					</g>
				</g>
			</g>
		</g>
		<g>
			<g>
				<g>
					<g>
						<path class="st2" d="M467.2,317.8c0,0-122.3-32.1-112.8,38.2c9.5,70.3,24.3,102.4,56.4,111.9c32.1,9.5,124.9,22.6,124.9,22.6
							l67.7-100.6l59-72.9c6.2-22.7,12.4-45.4,18.7-68.1c-8.1,3-20.1,6.9-34.9,10c-21.6,4.5-40.6,6.1-71.4,4.3
							c-60.7-3.5-92.8-13-97.2,1.7C473.2,279.6,467.2,317.8,467.2,317.8z"/>
					</g>
				</g>
			</g>
			<g>
				<g>
					<g>
						<g>
							<path class="st2" d="M535.7,491.5c0,0-0.1,0-0.2,0c-0.9-0.1-93.3-13.1-125.1-22.6c-31.8-9.4-47.3-40-57.2-112.8
								c-2-14.6,1.5-26,10.4-33.8c11.9-10.5,33-14.7,62.7-12.3c18.9,1.5,35.4,5.3,39.9,6.4c1.1-6.5,6.4-38.7,10.3-51.9
								c3.3-11.3,20.7-9.5,52.2-6.4c12.6,1.3,28.3,2.8,46.1,3.9c28.6,1.6,47.9,0.5,71.1-4.3c11.8-2.4,23.5-5.8,34.8-9.9
								c0.4-0.1,0.8-0.1,1.1,0.2c0.3,0.3,0.4,0.7,0.3,1.1l-18.7,68.1c0,0.1-0.1,0.3-0.2,0.4l-59,72.8L536.6,491
								C536.4,491.3,536.1,491.5,535.7,491.5z M411.1,311.6c-17.6,0-35.3,2.9-46,12.3c-8.3,7.3-11.6,18.1-9.7,31.9
								c9.7,71.8,24.8,101.9,55.6,111c30.2,9,115.6,21.2,124.1,22.4l67.3-100.1c0,0,0-0.1,0.1-0.1l58.9-72.7l18-65.9
								c-10.8,3.9-21.9,7-33.1,9.3c-23.4,4.8-42.8,6-71.6,4.4c-17.9-1-33.6-2.6-46.2-3.9c-30.3-3-47.1-4.7-49.9,4.8
								c-4.3,14.5-10.3,52.4-10.4,52.8c0,0.3-0.2,0.6-0.5,0.7c-0.3,0.2-0.6,0.2-0.9,0.1C466.4,318.7,438.8,311.6,411.1,311.6z"/>
						</g>
					</g>
				</g>
			</g>
		</g>
		<g>
			<g>
				<g>
					<g>
						<path class="st6" d="M504.1,254.8c-7.9,17.3-17.5,30.3-20.7,33c-2.7,2.3-20.1,11.1-37.2,19.4c-17.1,8.3-33.9,16.3-35.3,16.9
							l-0.9,0.4l-19.2-26.3l78.3-45.8c0.9-2.3,5.6-13.7,11.3-25.9c3.5-7.6,6.8-14,9.6-19.1c10-18,24.6-20.9,25.2-21l1.3-0.2l0.1,1.3
							C519.4,214.2,511.3,238.8,504.1,254.8z"/>
					</g>
				</g>
			</g>
		</g>
		<g>
			<g>
				<g>
					<g>
						<path class="st1" d="M383.4,391.1c0,0-0.9-16.5,53.8-15.6c54.7,0.9,142.3-5.2,168.3,0c26,5.2,23.4,42.5-17.4,53.8
							c-40.8,11.3-52.9,14.8-92,13C457.2,440.5,362.6,440.5,383.4,391.1z"/>
					</g>
				</g>
			</g>
			<g>
				<g>
					<g>
						<g>
							<path class="st2" d="M513.3,443.8c-5.1,0-10.8-0.1-17.1-0.4c-2.6-0.1-5.4-0.2-8.5-0.3c-33.7-1.3-90.1-3.4-104.7-26.4
								c-4.5-7.1-4.8-15.8-0.6-25.7c0-0.8,0.4-3.1,2.9-5.7c5-5.2,18.1-11.3,52-10.7c21.1,0.3,47.3-0.4,72.6-1.1
								c41.1-1.1,79.8-2.1,95.9,1.1c10.6,2.1,17.4,9.7,17.8,19.8c0.5,13-10.2,29.3-35.1,36.1l-1.1,0.3
								C553.7,439.9,539.8,443.8,513.3,443.8z M433.2,376.5c-31.7,0-42.6,6.3-46.3,10.1c-2.4,2.5-2.3,4.4-2.3,4.4
								c0,0.2,0,0.3-0.1,0.5c-3.9,9.3-3.8,17.4,0.4,23.9c14.1,22.1,69.7,24.2,103,25.4c3,0.1,5.9,0.2,8.5,0.3
								c38.5,1.7,50.6-1.6,90.6-12.7l1.1-0.3c23.7-6.6,33.9-21.8,33.5-34c-0.3-9-6.5-15.8-16.1-17.7c-15.9-3.2-54.5-2.1-95.4-1
								c-25.3,0.7-51.6,1.4-72.7,1.1C435.8,376.5,434.5,376.5,433.2,376.5z"/>
						</g>
					</g>
				</g>
			</g>
		</g>
		<g>
			<g>
				<g>
					<g>
						<path class="st13" d="M540.4,349.4L434.6,395l-29.9,143.8c-0.1,0.5-12.3,7-21.6,7.5c-6.1,0.3-13.9-0.9-19.8-2.2
							c-13.4-3-22-7.9-22.4-8.1c-0.5-0.3-0.8-0.9-0.7-1.5l29.6-165.3c0.6-3.3,1.7-6.5,3.3-9.5l0.1-0.1c3.4-6.2,8.7-10.9,15-13.4
							l69.5-18.7c7.8-2.4,40.7-15.1,67.9,3.4c6,4.1,11.1,9.7,15.1,16.6C541.2,348.1,543.3,357.2,540.4,349.4z"/>
					</g>
				</g>
			</g>
		</g>
		<path class="st14" d="M418.2,374.8c-11.7,10-9.5,124.1-35.1,171.4c7.6,0.2,21.5-7,21.6-7.5L434.6,395l98.2-57.8
			c0.6-0.4,0.8-1.3,0.4-1.9c-1.3-2.3-2.8-4.4-4.4-6.4c-7.9,1.5-16.6,1.5-23.4,4.1C468.8,346.8,439.8,356.5,418.2,374.8z"/>
		<g>
			<g>
				<g>
					<g>
						<g>
							<g>
								<path class="st9" d="M464.8,589.2c-6.2,8.9-15.6,10.6-18.4,11c0,0-0.1,0-0.1,0c-0.5,0-1-0.4-1-0.9l-12.3-69.6
									c-0.1-0.4,0.1-0.8,0.4-1l21.2-16c0.3-0.2,0.7-0.3,1-0.1c0.3,0.1,0.6,0.4,0.7,0.8l12.8,57
									C469.5,573.4,470.1,581.5,464.8,589.2z"/>
							</g>
						</g>
					</g>
					<path class="st10" d="M456.2,513.2c-0.1-0.3-0.3-0.6-0.7-0.8c-0.3-0.1-0.7-0.1-1,0.1l-21.2,16c-0.3,0.2-0.5,0.6-0.4,1l4.1,23.3
						c4.3,1.3,9.2,1.9,14.3,2.2c5.2,0.3,10,0.1,14.2-0.2L456.2,513.2z"/>
					<g>
						<g>
							<g>
								<path class="st11" d="M466.8,566.1c-0.9,7.2-6.6,11.7-11.5,11.1c-4.6-0.6-7.1-5.5-7.4-6c0.6-1.5,5.7-14.7,1.2-17.9
									c-0.5-0.4-1.2-0.5-2.5-0.8c-2.6-0.6-8.2-1.9-11.5,0.4c-2,1.5-2.5,4.4-3.3,10.3c-1.1,7.7-0.6,15-0.5,15c0,0,0-0.1,0-0.2
									c-7.7,2.7-16,5.3-24.7,7.8c-9.9,2.8-19.4,5.1-28.4,7c-0.1,1.3-0.2,2.6-0.3,3.9c-0.2,2.3-0.3,4.5-0.5,6.8h105.3
									C477.4,591,472.1,578.5,466.8,566.1z"/>
							</g>
						</g>
						<g>
							<g>
								<g>
									<path class="st11" d="M376.7,604.2c-0.2-0.2-0.3-0.5-0.3-0.8c0.2-2.1,0.3-4.3,0.5-6.4l0.3-4.3c0-0.5,0.4-0.9,0.8-1
										c9.5-2,19-4.3,28.3-7c8-2.3,15.9-4.8,23.8-7.5c-0.3-2.9-0.1-9.3,0.6-14.3c0.9-6.2,1.3-9.3,3.7-11c3.7-2.6,9.6-1.2,12.4-0.6
										l0.2,0c1.2,0.3,2,0.5,2.7,1c4.6,3.4,0.9,14.6-0.7,18.7c0.7,1.2,2.9,4.6,6.3,5c4.3,0.5,9.5-3.4,10.4-10.2
										c0.1-0.5,0.4-0.8,0.9-0.9c0.5-0.1,0.9,0.2,1.1,0.6l16,37.3c0.1,0.3,0.1,0.7-0.1,1c-0.2,0.3-0.5,0.5-0.9,0.5H377.5
										C377.2,604.5,376.9,604.4,376.7,604.2z M467,569.5c-2.1,6-7.4,9.3-12,8.8c-5.1-0.6-7.9-6-8.2-6.6c-0.1-0.3-0.1-0.6,0-0.9
										c2.6-6.7,4.2-14.7,1.6-16.7c-0.3-0.2-0.9-0.4-1.9-0.6l-0.2,0c-2.5-0.6-7.7-1.8-10.7,0.2c-1.7,1.2-2.1,4-2.9,9.6
										c-0.9,6.4-0.7,12.4-0.6,14.1c0.1,0.2,0.2,0.5,0.2,0.7c-0.2,1.1-1,1.1-1.1,1.1c-0.1,0-0.1,0-0.2,0c-7.9,2.8-16,5.3-24.1,7.6
										c-9.1,2.6-18.4,4.9-27.7,6.8l-0.3,3.5c-0.1,1.8-0.3,3.5-0.4,5.3h102.5L467,569.5z"/>
								</g>
							</g>
						</g>
					</g>
					<g>
						<g>
							<g>
								<path class="st10" d="M482.8,596.7v6.8H377.5c0.2-2.3,0.3-4.5,0.5-6.8H482.8z"/>
							</g>
						</g>
						<g>
							<g>
								<g>
									<path class="st10" d="M376.7,604.2c-0.2-0.2-0.3-0.5-0.3-0.8c0.2-2.3,0.3-4.5,0.5-6.8c0-0.6,0.5-1,1.1-1h104.8
										c0.6,0,1.1,0.5,1.1,1.1v6.8c0,0.6-0.5,1.1-1.1,1.1H377.5C377.2,604.5,376.9,604.4,376.7,604.2z M481.7,597.7H379
										c-0.1,1.6-0.2,3.1-0.4,4.7h103.1V597.7z"/>
								</g>
							</g>
						</g>
					</g>
					<g>
						<g>
							<g>
								<path class="st12" d="M433.8,590.1c0,0,0.1,0,0.1,0c0.6-0.1,1-0.6,0.9-1.2c-0.9-8.4-6.5-10.7-6.7-10.7
									c-0.5-0.2-1.2,0.1-1.4,0.6c-0.2,0.5,0.1,1.2,0.6,1.4c0.2,0.1,4.6,2,5.4,9C432.8,589.7,433.3,590.1,433.8,590.1z"/>
							</g>
						</g>
					</g>
					<g>
						<g>
							<g>
								<path class="st12" d="M427.7,593C427.7,593,427.7,593,427.7,593c0.6,0,1.1-0.5,1.1-1.1c-0.4-8.7-5.9-11.6-6.1-11.8
									c-0.5-0.3-1.2-0.1-1.4,0.5c-0.3,0.5-0.1,1.2,0.5,1.4c0.2,0.1,4.6,2.5,5,10C426.6,592.5,427.1,593,427.7,593z"/>
							</g>
						</g>
					</g>
					<path class="st12" d="M415.9,583.2c0.5-0.3,1.1-0.2,1.5,0.2c0.1,0.1,2.2,3.1,3.5,8.2c0.1,0.6-0.2,1.1-0.8,1.3
						c-0.1,0-0.2,0-0.3,0c-0.5,0-0.9-0.3-1-0.8c-1.2-4.6-3.1-7.4-3.1-7.5C415.3,584.2,415.5,583.6,415.9,583.2z"/>
				</g>
				<g>
					<g>
						<g>
							<g>
								<path class="st13" d="M595.6,366.3c-4,9.5-10.7,14.9-13.6,17.2c-9.2,7.4-18,8.9-27.4,10.5l-1,0.2
									c-14.1,2.4-29.2,5.5-44.7,9.1l-15.8,142.6c-0.1,0.6-0.5,1.1-1,1.2c-10.1,2.5-20.5,3.9-30.8,4.2c-1.3,0-2.5,0-3.8,0
									c-14.2,0-28.4-2.1-42.2-6.3c-0.6-0.2-1-0.8-0.9-1.5c3.5-30.8,7.5-61.9,11.9-92.6c0.7-5.1,1.4-10,2-14.7
									c1.6-12.4,3.3-25.3,6.9-44.9c3.8-20.2,6.1-28.2,12.4-35.3c6.9-7.8,14.5-9.5,28.2-12.6c2.4-0.5,5.1-1.1,8-1.8
									c15.6-3.7,31.5-8.4,47.3-14c0.1,0,0.2-0.1,0.3-0.1l60.2-4.2c0.5,0,0.9,0.3,1.1,0.7C594.7,327.7,603.4,347.7,595.6,366.3z"/>
							</g>
						</g>
					</g>
					<g>
						<path class="st15" d="M462.5,551.2l-2.1-0.1c0.4-6.1,10.1-150,21.7-169.3c11.7-19.4,112-34.3,116.3-34.9l0.3,2.1
							c-1,0.2-103.6,15.3-114.7,33.9C472.6,401.7,462.6,549.7,462.5,551.2z"/>
					</g>
				</g>
				<path class="st14" d="M598.4,346.8c0,0-5-8.4-6.6-6.7c-54.4,57-66.4,27.5-93.9,49.2c-17,13.4-16.4,118.1-27.1,161.3
					c1.3,0,10.9-1.1,21-3.6c0.5-0.1,0.9-0.6,1-1.2l15.8-142.6c15.5-3.6,30.5-6.7,44.7-9.1l1-0.2c9.3-1.6,18.1-3.1,27.4-10.5
					c2.9-2.3,9.6-7.7,13.6-17.2C598,359.7,598.7,353,598.4,346.8z"/>
			</g>
			<g>
				<g>
					<g>
						<path class="st4" d="M623.6,308.6l-0.5,0.5c-9.9,10-31.2,27.7-62.7,33.7c-2.2,0.4-4.3,0.8-6.4,1c-23.6,3.1-43.5-1.7-56.5-6.5
							l-0.7-0.3l-0.1-0.7c-2.5-19.3-4.1-38.8-4.6-57.7c-0.1-5.4-0.2-10.8-0.2-16.1c0-7.9,0.2-15.8,0.6-23.5
							c0.8-17.4,2.3-29.4,7.7-38.8c1.8-3.2,4-6,6.7-8.5c2.4-2.3,5.2-4.2,8.3-5.8c9-4.7,18.9-5.5,28.5-6.4
							c13.8-1.2,32.6-2.8,45.7,8.1c9.4,7.9,11,18.1,13.9,36.8c1,6.5,2.2,13.8,3.9,22.5c3.9,20.4,9.4,40.9,16.2,61.1L623.6,308.6z"/>
					</g>
				</g>
			</g>
		</g>
		<path class="st5" d="M587.4,334.4c-1.8-1-4.3-1.9-7.4-2.6c-35.5-8-34.7-34.1-61.6-59.2c-9.8-9.1-14.8-38.9-22.8-58.5
			c-1.7,7.1-2.5,15.6-3,26c-0.4,7.7-0.6,15.5-0.6,23.3c0,5.3,0,10.6,0.2,16c0.5,18.8,2,38.1,4.5,57.2l0.1,0.7l0.7,0.2
			c13,4.8,32.9,9.5,56.5,6.4c2.1-0.3,4.3-0.6,6.4-1C570.5,341.1,579.5,338,587.4,334.4z"/>
		<g>
			<g>
				<g>
					<g>
						<polygon class="st12" points="550,481.3 558.7,579.4 569.1,579.4 569.1,462.2 						"/>
					</g>
				</g>
			</g>
			<g>
				<g>
					<g>
						<path class="st12" d="M569.8,580.1h-11.7l-8.8-99l20.5-20.5V580.1z M559.3,578.7h9.1V463.9l-17.7,17.7L559.3,578.7z"/>
					</g>
				</g>
			</g>
		</g>
		<g>
			<g>
				<g>
					<g>
						<polygon class="st12" points="618.6,462.2 629.8,525.6 641.1,525.6 629.8,442.3 						"/>
					</g>
				</g>
			</g>
			<g>
				<g>
					<g>
						<path class="st12" d="M641.9,526.3h-12.6l-11.4-64.1l12.4-21.9L641.9,526.3z M630.4,524.9h9.9l-10.9-80.5l-10.2,18
							L630.4,524.9z"/>
					</g>
				</g>
			</g>
		</g>
		<g>
			<g>
				<g>
					<g>
						<g>
							<path class="st9" d="M389.7,304.9l-16.8,7.5l-0.1,0c-0.1,0-0.1,0-0.2,0.1c0,0-0.1,0-0.1,0c-0.3,0-0.5-0.2-0.7-0.4
								c0,0,0-0.1,0-0.1c0.2-0.1,0.5-0.1,0.7-0.2c-0.2,0-0.5-0.1-0.7-0.1c0-0.2,0.2-0.5,0.4-0.6l0.2-0.1l16.7-7.5
								c0.4-0.2,0.8,0,1,0.4C390.3,304.3,390.1,304.8,389.7,304.9z"/>
							<path class="st9" d="M390.3,316.9c0.1,0.4-0.1,0.8-0.4,0.9l-17,6.5l-0.2,0.1c-0.1,0-0.2,0.1-0.3,0.1c-0.1,0-0.2,0-0.3-0.1
								c0.2-0.4,0.3-0.7,0.3-0.7c-0.3,0-0.5-0.1-0.7-0.1c0-0.2,0.2-0.4,0.4-0.5l0.2-0.1l17-6.5C389.7,316.3,390.2,316.5,390.3,316.9
								z"/>
							<path class="st9" d="M390.1,310.5l-19.6,7.8l-0.2,0.1c-0.1,0-0.2,0.1-0.3,0.1c-0.1,0-0.3,0-0.4-0.1c0.2-0.4,0.4-0.6,0.4-0.6
								c-0.1-0.1-0.3-0.3-0.6-0.5c0.1-0.1,0.2-0.2,0.3-0.2l0.4-0.2l19.5-7.8c0.4-0.1,0.8,0,1,0.4
								C390.7,309.9,390.5,310.3,390.1,310.5z"/>
						</g>
					</g>
				</g>
				<g>
					<g>
						<g>
							<path class="st9" d="M373,323.4c-0.1-0.2-0.3-0.4-0.5-0.4c-0.1,0-0.1,0-0.2,0l-0.2,0.1c-0.2,0.1-0.4,0.3-0.4,0.5
								c0,0.1,0,0.3,0,0.4c0.1,0.2,0.2,0.3,0.3,0.4c0.1,0.1,0.2,0.1,0.3,0.1c0.1,0,0.2,0,0.3-0.1l0.2-0.1c0.1-0.1,0.1-0.2,0.1-0.2
								C373.1,323.9,373.1,323.7,373,323.4z M370.1,316.9l-0.4,0.2c-0.1,0.1-0.2,0.1-0.3,0.2c-0.2,0.2-0.2,0.5-0.1,0.7
								c0.1,0.2,0.2,0.3,0.3,0.4c0.1,0.1,0.2,0.1,0.4,0.1c0.1,0,0.2,0,0.3-0.1l0.2-0.1c0-0.1,0.1-0.1,0.1-0.2c0.2-0.3,0.1-0.8-0.2-1
								C370.4,317.1,370.3,317,370.1,316.9z M372.6,311.1c-0.1,0-0.1,0-0.2,0l-0.2,0.1c-0.2,0.1-0.4,0.3-0.4,0.6c0,0.1,0,0.2,0,0.3
								c0,0,0,0.1,0,0.1c0.1,0.3,0.4,0.4,0.7,0.4c0,0,0.1,0,0.1,0c0.1,0,0.1,0,0.2-0.1l0.1,0c0.2-0.1,0.4-0.4,0.4-0.7
								C373.3,311.4,373,311.1,372.6,311.1z"/>
							<path class="st9" d="M424.5,298.9c0,0-0.1-0.1-0.1-0.1c-6.8-3.2-17.4-6.4-29.1-3.8c-4.5,1-9.3,3.7-18.8,8.9
								c-5.4,3-8.2,4.9-7.7,6.7c0.2,0.6,0.7,1,1.3,1.3c-1.5,0.9-2.3,2.4-2.1,3.7c0.1,1,0.7,1.7,1.2,2.2c-0.5,0.9-1.2,2.6-0.6,4.2
								c0.4,1,1.4,1.8,2.8,2.2c-0.3,0.8-0.6,2,0,3.1c0.6,1.4,2.2,2.3,4.7,2.6c0.5,0.1,1,0.1,1.6,0.1c7.4,0,22.4-5.2,23.8-5.7
								c1.6-0.2,20-2.6,27.9-8.4c1.4-1,2.2-2.2,2.7-3.5C433.7,306.8,426.7,300.6,424.5,298.9z M372.2,311.1l0.2-0.1l16.7-7.5
								c0.4-0.2,0.8,0,1,0.4c0.2,0.4,0,0.8-0.4,1l-16.8,7.5l-0.1,0c-0.1,0-0.1,0-0.2,0.1c0,0-0.1,0-0.1,0c-0.3,0-0.5-0.2-0.7-0.4
								c0,0,0-0.1,0-0.1c0-0.1,0-0.2,0-0.3C371.8,311.4,372,311.2,372.2,311.1z M389.9,317.8l-17,6.5l-0.2,0.1
								c-0.1,0-0.2,0.1-0.3,0.1c-0.1,0-0.2,0-0.3-0.1c-0.1-0.1-0.3-0.2-0.3-0.4c-0.1-0.1-0.1-0.3,0-0.4c0-0.2,0.2-0.4,0.4-0.5
								l0.2-0.1l17-6.5c0.4-0.1,0.8,0.1,0.9,0.4C390.4,317.3,390.3,317.7,389.9,317.8z M390.1,310.5l-19.6,7.8l-0.2,0.1
								c-0.1,0-0.2,0.1-0.3,0.1c-0.1,0-0.3,0-0.4-0.1c-0.1-0.1-0.2-0.2-0.3-0.4c-0.1-0.3-0.1-0.5,0.1-0.7c0.1-0.1,0.2-0.2,0.3-0.2
								l0.4-0.2l19.5-7.8c0.4-0.1,0.8,0,1,0.4C390.7,309.9,390.5,310.3,390.1,310.5z"/>
						</g>
					</g>
				</g>
			</g>
			<g>
				<path class="st16" d="M389.7,304.9l-16.8,7.5l-0.1,0c-0.1,0-0.1,0-0.2,0.1c0,0-0.1,0-0.1,0c-0.3,0-0.5-0.2-0.7-0.4
					c0,0,0-0.1,0-0.1c0-0.1,0-0.2,0-0.3c0-0.2,0.2-0.5,0.4-0.6l0.2-0.1l16.7-7.5c0.4-0.2,0.8,0,1,0.4
					C390.3,304.3,390.1,304.8,389.7,304.9z"/>
				<path class="st16" d="M390.1,310.5l-19.6,7.8l-0.2,0.1c-0.1,0-0.2,0.1-0.3,0.1c-0.1,0-0.3,0-0.4-0.1c-0.1-0.1-0.2-0.2-0.3-0.4
					c-0.1-0.3-0.1-0.5,0.1-0.7c0.1-0.1,0.2-0.2,0.3-0.2l0.4-0.2l19.5-7.8c0.4-0.1,0.8,0,1,0.4C390.7,309.9,390.5,310.3,390.1,310.5z
					"/>
				<path class="st16" d="M389.9,317.8l-17,6.5l-0.2,0.1c-0.1,0-0.2,0.1-0.3,0.1c-0.1,0-0.2,0-0.3-0.1c-0.1-0.1-0.3-0.2-0.3-0.4
					c-0.1-0.1-0.1-0.3,0-0.4c0-0.2,0.2-0.4,0.4-0.5l0.2-0.1l17-6.5c0.4-0.1,0.8,0.1,0.9,0.4C390.4,317.3,390.3,317.7,389.9,317.8z"
					/>
			</g>
		</g>
		<g>
			<g>
				<g>
					<g>
						<path class="st9" d="M564.6,181.1l0,0.3c-1.4,9.4-4.6,15.8-9.6,18.9c-0.3,0.2-0.5,0.3-0.7,0.4c-2.7,1.5-6,2.3-9.1,2.3
							c-4.7,0-9.2-1.8-11.7-6c-2.8-4.8-1.7-10.9-1.1-13.6l-6.7-28.8l23.1-14.4L564.6,181.1z"/>
					</g>
				</g>
			</g>
		</g>
		<g>
			<path class="st16" d="M547.7,162.2c-1.3,3.8,3.5,31.7-2.8,40.8l-0.3-0.2c-4.4,0.5-15.9-3.3-12.1-19.5l-2-8.3l0.9-0.3
				c7.3-2.8,12.4-7.5,14.6-13.4L547.7,162.2z"/>
		</g>
		<g>
			<g>
				<g>
					<g>
						<path class="st9" d="M542.7,169.8c-2.2,3.8-5.4,6.4-10,7.2c-3.6,0.6-8-2.6-11.4-5.8c-4.6-4.2-11.8-12.4-15.4-28.6l-0.3-1.5
							l1.5,0.1c14.7,1.5,23.8-17.6,23.9-17.8l0.7-1.5l7.8,9.4l3,3.9C549.1,153.5,548.7,159.2,542.7,169.8z"/>
					</g>
				</g>
			</g>
		</g>
		<g>
			<g>
				<g>
					<g>
						<path class="st9" d="M541.4,139.8c0,0,1.3-13.1,6.5-8.9c5.2,4.3-0.2,14.7-2.3,16.4C543.5,148.9,541.4,139.8,541.4,139.8z"/>
					</g>
				</g>
			</g>
		</g>
		<path class="st5" d="M607.8,270.9c-5.1-10-18.6-35.5-30.5-55.2c-1.1,7-0.5,15,1.8,24.8c1.3,5.8,3.2,11.7,5.5,17.4
			c3.1,7.8-31.1,51.2-31.1,51.2l0,0.7c0,0,30.5-11.3,45-14.4C613,292.3,613.7,282.4,607.8,270.9z"/>
		<g>
			<g>
				<g>
					<g>
						<g>
							<path class="st12" d="M544.9,331.3H386.1c-1.4,0-2.5,1.1-2.5,2.5v8c0,1.4,1.1,2.5,2.5,2.5h158.8c1.4,0,2.5-1.1,2.5-2.5v-8
								C547.5,332.4,546.3,331.3,544.9,331.3z"/>
						</g>
					</g>
				</g>
				<g>
					<g>
						<g>
							<g>
								<path class="st12" d="M544.9,330.7H386.1c-1.7,0-3.1,1.4-3.1,3.1v8c0,1.7,1.4,3.1,3.1,3.1h158.8c1.7,0,3.1-1.4,3.1-3.1v-8
									C548.1,332.1,546.7,330.7,544.9,330.7z M546.9,341.9c0,1.1-0.9,1.9-1.9,1.9H386.1c-1.1,0-1.9-0.9-1.9-1.9v-8
									c0-1.1,0.9-1.9,1.9-1.9h158.8c1.1,0,1.9,0.9,1.9,1.9V341.9z"/>
							</g>
						</g>
					</g>
				</g>
			</g>
			<g>
				<g>
					<g>
						<g>
							<path class="st12" d="M485.7,262.7c-0.3-1.1-1.3-1.9-2.4-1.9H364.5c-1.7,0-2.9,1.6-2.4,3.2c7,26.2,14,52.3,21.1,78.5
								c0.3,1.1,1.3,1.9,2.4,1.9H504c1.7,0,2.9-1.6,2.4-3.2C499.5,315.1,492.6,288.9,485.7,262.7z"/>
						</g>
					</g>
				</g>
				<g>
					<g>
						<g>
							<g>
								<path class="st12" d="M486.2,262.6c-0.4-1.4-1.6-2.3-3-2.3H364.5c-1,0-1.9,0.4-2.5,1.2c-0.6,0.8-0.8,1.8-0.5,2.7l21.1,78.5
									c0.4,1.4,1.6,2.3,3,2.3H504c1,0,1.9-0.4,2.5-1.2c0.6-0.8,0.8-1.8,0.5-2.7L486.2,262.6z M505.5,343.1
									c-0.4,0.5-0.9,0.8-1.5,0.8H385.5c-0.9,0-1.7-0.6-1.9-1.4l-21.1-78.5c-0.2-0.6,0-1.2,0.3-1.7c0.4-0.5,0.9-0.8,1.5-0.8h118.8
									c0.9,0,1.7,0.6,1.9,1.5l20.8,78.5C506,342,505.9,342.6,505.5,343.1z"/>
							</g>
						</g>
					</g>
				</g>
			</g>
			<g>
				<g>
					<g>
						<g>
							<path class="st8" d="M429.9,289.5c-4.9,0-9,4-9,9c0,4.9,4,9,9,9c4.9,0,9-4,9-9C438.9,293.5,434.9,289.5,429.9,289.5z"/>
						</g>
					</g>
				</g>
				<g>
					<g>
						<g>
							<g>
								<path class="st8" d="M429.9,288.6c-5.5,0-9.9,4.4-9.9,9.9c0,5.5,4.4,9.9,9.9,9.9c5.5,0,9.9-4.4,9.9-9.9
									C439.8,293,435.4,288.6,429.9,288.6z M429.9,306.5c-4.4,0-8-3.6-8-8s3.6-8,8-8s8,3.6,8,8S434.3,306.5,429.9,306.5z"/>
							</g>
						</g>
					</g>
				</g>
			</g>
		</g>
		<g>
			<g>
				<g>
					<g>
						<g>
							<path class="st9" d="M593.3,324.6c-0.4,1.4-1.3,2.5-2.7,3.5c-7.9,5.8-26.3,8.2-27.9,8.4c-1.4,0.5-16.3,5.7-23.8,5.7
								c-0.6,0-1.1,0-1.6-0.1c-2.5-0.3-4.1-1.2-4.7-2.6c-0.5-1.1-0.3-2.3,0-3.1c-1.4-0.4-2.4-1.1-2.8-2.2c-0.6-1.5,0.1-3.3,0.6-4.2
								c-0.5-0.5-1.1-1.2-1.2-2.2c-0.1-1.3,0.6-2.8,2.1-3.7c-0.6-0.3-1.1-0.7-1.3-1.3c-0.5-1.8,2.3-3.8,7.7-6.8
								c9.5-5.2,14.3-7.8,18.8-8.9c11.7-2.7,22.3,0.6,29.1,3.8c0.1,0,0.1,0.1,0.1,0.1C588,312.8,595,319,593.3,324.6z"/>
						</g>
					</g>
				</g>
				<path class="st16" d="M593.3,324.6c1.7-5.6-5.2-11.8-7.4-13.5c0,0-0.1-0.1-0.1-0.1c-5.2-2.4-12.6-4.9-20.9-4.7
					c-0.8,8.6,6.3,21.7,11.3,27.7c6.4-1.3,9.7-2.2,14.6-5.8C592,327.1,592.8,325.9,593.3,324.6z"/>
			</g>
			<g>
				<path class="st16" d="M533.9,324.7c0.1,0,0.2,0,0.3-0.1l16.9-7.5c0.4-0.2,0.5-0.6,0.4-1c-0.2-0.4-0.6-0.5-1-0.4l-16.9,7.5
					c-0.4,0.2-0.5,0.6-0.4,1C533.3,324.5,533.6,324.7,533.9,324.7z"/>
				<path class="st16" d="M551.9,321.7c-0.1-0.4-0.6-0.6-0.9-0.4l-19.8,7.9c-0.4,0.1-0.6,0.6-0.4,0.9c0.1,0.3,0.4,0.5,0.7,0.5
					c0.1,0,0.2,0,0.3-0.1l19.8-7.9C551.9,322.5,552,322.1,551.9,321.7z"/>
				<path class="st16" d="M550.7,328.6l-17.3,6.6c-0.4,0.1-0.6,0.6-0.4,0.9c0.1,0.3,0.4,0.5,0.7,0.5c0.1,0,0.2,0,0.3,0l17.3-6.6
					c0.4-0.1,0.6-0.6,0.4-0.9C551.5,328.7,551.1,328.5,550.7,328.6z"/>
			</g>
		</g>
		<g>
			<g>
				<g>
					<g>
						<path class="st4" d="M653.2,300.1c-3.7,8.2-9.7,13-18.1,19.5c-5.2,4.1-10.8,7.7-16.8,10.7c-4.2,2.1-8.6,4-13.1,5.5
							c-5.6,1.9-11.4,3.4-17.4,4.5l-0.5,0.1l-0.4-0.3c-5.9-4.5-13.9-12.4-18.2-24.2c-1.3-3.7-2.2-7.5-2.7-11.5l-0.1-0.7l41.5-30.5
							c-0.8-0.9-1.6-1.9-2.4-2.8c-5.5-6.7-10.3-13.9-14.3-21.2c-3-5.4-5.5-11.1-7.5-16.6c-5-13.6-6-24-3.3-33.6
							c1.4-5,2.7-9.7,6.7-11.3c4.3-1.8,10.2,0.8,17.9,8c3.3,3.1,7,7.1,10.9,11.8c5.9,7.1,10.6,13.9,12.2,16.2l0.1,0.1
							C643.8,246.8,664.1,275.9,653.2,300.1z"/>
					</g>
				</g>
			</g>
		</g>
		<g>
			<g>
				<g>
					<g>
						<path class="st2" d="M689.7,372c-11.7,47.5-13.7,76.4-37.3,90.2c-10.4,6.1-77.2,31.2-84.2,33c-4.3,1.1-15.5-1.2-23.5-3
							c-5-1.2-8.6-2.2-8.6-2.2S563,356.4,583,327.7c20-28.6,70.3-13.9,70.3-13.9c10.4-1.7,8.7-33.8,17.4-53.3
							c2.4-5.4,6.4-11.4,11.8-11.9c0,0,3.5-0.3,7.3,2.7c3.5,2.8,8.2,12.6,9.9,30.9C701.4,301.8,699.8,331,689.7,372z"/>
					</g>
				</g>
			</g>
			<g>
				<g>
					<g>
						<g>
							<path class="st2" d="M565.3,496.6c-5.4,0-13.9-1.7-20.8-3.3c-4.9-1.2-8.7-2.2-8.7-2.2c-0.6-0.2-0.9-0.7-0.8-1.3
								c1.1-5.5,27.2-134.2,47-162.7c8.3-11.9,23.1-18.1,42.9-18.1c0.2,0,0.4,0,0.7,0c13.9,0.1,25.8,3.2,27.7,3.8
								c5.1-1.2,7.1-12.4,9.1-24.4c1.6-9.4,3.5-20,7.2-28.3c2-4.4,6.2-12,12.7-12.5c0.2,0,4-0.3,8.1,3c3.9,3.1,8.6,13,10.3,31.6
								c1.5,16.5,1,45.6-9.9,90.1v0c-2.1,8.6-3.9,16.5-5.6,24c-7.5,33.3-12.5,55.3-32.2,66.9c-10.7,6.2-77.8,31.4-84.5,33.1
								C567.7,496.5,566.6,496.6,565.3,496.6z M537.4,489.2c1.4,0.4,4.2,1.1,7.6,1.9c11.7,2.7,19.8,3.8,22.9,3
								c6.6-1.6,73.2-26.7,83.9-32.9c18.9-11,23.8-32.7,31.2-65.5c1.7-7.6,3.5-15.4,5.6-24.1c0,0,0,0,0,0
								c10.9-44.2,11.4-73,9.9-89.4c-1.5-16.8-5.9-27.2-9.5-30.1c-3.4-2.7-6.4-2.5-6.6-2.5c-5.3,0.4-9.1,7.2-10.9,11.2
								c-3.6,8.1-5.4,18.5-7,27.8c-2.3,13.4-4.4,25.1-11.2,26.2c-0.2,0-0.3,0-0.5,0c-0.1,0-12.7-3.7-27.4-3.8
								c-13.5-0.1-31.6,2.8-41.7,17.2C565.2,355.2,539.9,476.9,537.4,489.2z"/>
						</g>
					</g>
				</g>
			</g>
		</g>
		<g>
			<g>
				<g>
					<g>
						<path class="st8" d="M689.7,372.4c-11.7,47.5-13.7,76.4-37.3,90.2c-10.4,6.1-77.2,31.2-84.2,33c-4.3,1.1-15.5-1.2-23.5-3
							C650.5,480.4,694,307.1,699.6,282.7C701.4,302.2,699.8,331.4,689.7,372.4z"/>
					</g>
				</g>
			</g>
			<g>
				<g>
					<g>
						<g>
							<path class="st8" d="M565.3,496.6c-5.3,0-13.8-1.7-20.7-3.3l-3.8-0.9l3.9-0.4c44.2-5.1,82.7-38.7,114.4-100
								c24.5-47.3,36.7-95.7,39.8-109.4l1-4.2l0.4,4.3c1.5,16.5,1,45.5-9.9,90l0,0c-2.1,8.6-3.9,16.5-5.6,24.1
								c-7.5,33.2-12.4,55.2-32,66.6c-10.7,6.2-77.7,31.4-84.3,33C567.6,496.5,566.5,496.6,565.3,496.6z M548.7,492.7
								c9.8,2.1,16.6,2.9,19.4,2.2c6.6-1.6,73.3-26.7,84-32.9c19.1-11.1,24-32.9,31.4-65.7c1.7-7.6,3.5-15.4,5.6-24.1l0,0
								c10-40.6,11.3-68.2,10.2-85.1c-4.3,17.8-16.5,62.1-38.9,105.4c-14.2,27.4-30,49.6-47.1,66
								C593.4,477.7,571.7,489.2,548.7,492.7z"/>
						</g>
					</g>
				</g>
			</g>
		</g>
		<g>
			<g>
				<g>
					<path class="st16" d="M522.9,160c-0.3,0.1-3.6,1-4.8-0.5c-0.6-0.8-0.2-2.2,0.3-3.7c1.1-3.3,0.9-4.4,1-7.2
						c0.7-0.8,1.7,3.4,0.7,7.9c-0.6,2.6,1.6,2.9,2.7,2.6c0.4-0.1,0.8-0.3,0.9,0C523.8,159.4,523.5,159.8,522.9,160z"/>
				</g>
			</g>
			<g>
				<path class="st12" d="M522.1,139.5c2.1-1,4-1.3,5.2-1.4c2.5-0.2,5.9,0.2,6,1.1c0,0.2-0.1,0.3-0.2,0.4c-0.7,0.9-2.6,0-5,0.2
					c-3.1,0.2-4.7,1.8-5.6,1C522.1,140.4,522.1,139.9,522.1,139.5z"/>
				<g>
					<path class="st16" d="M546.4,142.1c4.1-5.1,0.4-10.1-1-7.4c-0.3,0.7-0.5,1.3-0.6,1.9C544.6,137.1,544.3,140.2,546.4,142.1z"/>
				</g>
			</g>
			<g>
				<path class="st12" d="M506.8,145.4c1.4-1.4,2.8-2.1,3.7-2.4c1.9-0.7,4.6-0.9,4.9-0.1c0.1,0.2,0,0.3,0,0.5
					c-0.4,1.1-2,0.5-3.9,1.1c-2.4,0.8-3.2,2.7-4.1,2.1C507.1,146.3,506.9,145.8,506.8,145.4z"/>
			</g>
			<g>
				<g>
					<path class="st17" d="M534.4,158.4c0,0-2.4,6.3-12.1,8.5c0,0,3.9,5.4,9,2.5C536.6,166.3,534.4,158.4,534.4,158.4z"/>
				</g>
				<path class="st18" d="M523.7,166.5c2,1.4,3.6,1.3,6.7-0.5c2.8-1.7,3.4-4.2,3.1-6.1C532,161.7,530.1,164.6,523.7,166.5z"/>
			</g>
			<path class="st12" d="M527,144.5c0.8-0.3,1.9,0.5,2.3,1.8c0.4,1.3,0.1,2.5-0.8,2.8c-0.8,0.3-1.9-0.5-2.3-1.8
				C525.8,146.1,526.1,144.8,527,144.5z"/>
			<path class="st12" d="M512.4,148.3c0.8-0.3,1.9,0.5,2.3,1.8c0.4,1.3,0.1,2.5-0.8,2.8c-0.8,0.3-1.9-0.5-2.3-1.8
				C511.2,149.8,511.5,148.6,512.4,148.3z"/>
		</g>
		<g>
			<path class="st19" d="M503.6,224.7c0.2-0.9,0.6-1.7,1.1-2.3c0.5-0.6,1.3-0.9,1.9-0.6c0.6,0.3,1.1,0.9,1.5,1.3
				c0.5,0.4,1,0.8,1.5,1.1c0.5,0.3,1,0.5,1.5,0.7c0.5,0.2,1,0.2,1.4,0.2c0.9-0.1,1.9-0.7,2.6-2.1l0.1,0.1c-0.1,1.9-1.3,3.6-2.7,3.8
				c-1.3,0.2-2.5-0.8-3.3-1.9c-0.4-0.5-0.9-1.1-1.4-1.4c-0.5-0.3-1.1-0.4-1.6-0.4c-0.5,0-0.9,0-1.3,0.4
				C504.6,223.8,504.2,224.4,503.6,224.7L503.6,224.7z"/>
			<path class="st19" d="M532.1,226.4c0.2-0.9,0.6-1.7,1.1-2.3c0.5-0.6,1.3-0.9,1.9-0.6c0.6,0.3,1.1,0.9,1.5,1.3
				c0.5,0.4,1,0.8,1.5,1.1c0.5,0.3,1,0.5,1.5,0.7c0.5,0.2,1,0.2,1.4,0.2c0.9-0.1,1.9-0.7,2.6-2.1l0.1,0.1c-0.1,1.9-1.3,3.6-2.7,3.8
				c-1.3,0.2-2.5-0.8-3.3-1.9c-0.4-0.5-0.9-1.1-1.4-1.4c-0.5-0.3-1.1-0.4-1.6-0.4c-0.5,0-0.9,0-1.3,0.4
				C533.1,225.5,532.7,226,532.1,226.4L532.1,226.4z"/>
			<path class="st19" d="M553.8,221.4c0.2-0.9,0.6-1.7,1.1-2.3c0.5-0.6,1.3-0.9,1.9-0.6c0.6,0.3,1.1,0.9,1.5,1.3
				c0.5,0.4,1,0.8,1.5,1.1c0.5,0.3,1,0.5,1.5,0.7c0.5,0.2,1,0.2,1.4,0.2c0.9-0.1,1.9-0.7,2.6-2.1l0.1,0.1c-0.1,1.9-1.3,3.6-2.7,3.8
				c-1.3,0.2-2.5-0.8-3.3-1.9c-0.4-0.5-0.9-1.1-1.4-1.4c-0.5-0.3-1.1-0.4-1.6-0.4c-0.5,0-0.9,0-1.3,0.4
				C554.9,220.4,554.4,221,553.8,221.4L553.8,221.4z"/>
			<path class="st19" d="M501.8,255.2c0.2-0.9,0.6-1.7,1.1-2.3c0.5-0.6,1.3-0.9,1.9-0.6c0.6,0.3,1.1,0.9,1.5,1.3
				c0.5,0.4,1,0.8,1.5,1.1c0.5,0.3,1,0.5,1.5,0.7c0.5,0.2,1,0.2,1.4,0.2c0.9-0.1,1.9-0.7,2.6-2.1l0.1,0.1c-0.1,1.9-1.3,3.6-2.7,3.8
				c-1.3,0.2-2.5-0.8-3.3-1.9c-0.4-0.5-0.9-1.1-1.4-1.4c-0.5-0.3-1.1-0.4-1.6-0.4c-0.5,0-0.9,0-1.3,0.4
				C502.9,254.3,502.4,254.8,501.8,255.2L501.8,255.2z"/>
			<path class="st19" d="M530.4,254.5c0.2-0.9,0.6-1.7,1.1-2.3c0.5-0.6,1.3-0.9,1.9-0.6c0.6,0.3,1.1,0.9,1.5,1.3
				c0.5,0.4,1,0.8,1.5,1.1c0.5,0.3,1,0.5,1.5,0.7c0.5,0.2,1,0.2,1.4,0.2c0.9-0.1,1.9-0.7,2.6-2.1l0.1,0.1c-0.1,1.9-1.3,3.6-2.7,3.8
				c-1.3,0.2-2.5-0.8-3.3-1.9c-0.4-0.5-0.9-1.1-1.4-1.4c-0.5-0.3-1.1-0.4-1.6-0.4c-0.5,0-0.9,0-1.3,0.4
				C531.5,253.6,531,254.1,530.4,254.5L530.4,254.5z"/>
			<path class="st19" d="M552.5,253.5c0.2-0.9,0.6-1.7,1.1-2.3c0.5-0.6,1.3-0.9,1.9-0.6c0.6,0.3,1.1,0.9,1.5,1.3
				c0.5,0.4,1,0.8,1.5,1.1c0.5,0.3,1,0.5,1.5,0.7c0.5,0.2,1,0.2,1.4,0.2c0.9-0.1,1.9-0.7,2.6-2.1l0.1,0.1c-0.1,1.9-1.3,3.6-2.7,3.8
				c-1.3,0.2-2.5-0.8-3.3-1.9c-0.4-0.5-0.9-1.1-1.4-1.4c-0.5-0.3-1.1-0.4-1.6-0.4c-0.5,0-0.9,0-1.3,0.4
				C553.6,252.6,553.1,253.1,552.5,253.5L552.5,253.5z"/>
			<path class="st19" d="M496.5,282.8c0.2-0.9,0.6-1.7,1.1-2.3c0.5-0.6,1.3-0.9,1.9-0.6c0.6,0.3,1.1,0.9,1.5,1.3
				c0.5,0.4,1,0.8,1.5,1.1c0.5,0.3,1,0.5,1.5,0.7c0.5,0.2,1,0.2,1.4,0.2c0.9-0.1,1.9-0.7,2.6-2.1l0.1,0.1c-0.1,1.9-1.3,3.6-2.7,3.8
				c-1.3,0.2-2.5-0.8-3.3-1.9c-0.4-0.5-0.9-1.1-1.4-1.4c-0.5-0.3-1.1-0.4-1.6-0.4c-0.5,0-0.9,0-1.3,0.4
				C497.6,281.9,497.1,282.4,496.5,282.8L496.5,282.8z"/>
			<path class="st19" d="M527.3,284.6c0.2-0.9,0.6-1.7,1.1-2.3c0.5-0.6,1.3-0.9,1.9-0.6c0.6,0.3,1.1,0.9,1.5,1.3
				c0.5,0.4,1,0.8,1.5,1.1c0.5,0.3,1,0.5,1.5,0.7c0.5,0.2,1,0.2,1.4,0.2c0.9-0.1,1.9-0.7,2.6-2.1l0.1,0.1c-0.1,1.9-1.3,3.6-2.7,3.8
				c-1.3,0.2-2.5-0.8-3.3-1.9c-0.4-0.5-0.9-1.1-1.4-1.4c-0.5-0.3-1.1-0.4-1.6-0.4c-0.5,0-0.9,0-1.3,0.4
				C528.4,283.7,527.9,284.2,527.3,284.6L527.3,284.6z"/>
			<path class="st19" d="M550.8,282.8c0.2-0.9,0.6-1.7,1.1-2.3c0.5-0.6,1.3-0.9,1.9-0.6c0.6,0.3,1.1,0.9,1.5,1.3
				c0.5,0.4,1,0.8,1.5,1.1c0.5,0.3,1,0.5,1.5,0.7c0.5,0.2,1,0.2,1.4,0.2c0.9-0.1,1.9-0.7,2.6-2.1l0.1,0.1c-0.1,1.9-1.3,3.6-2.7,3.8
				c-1.3,0.2-2.5-0.8-3.3-1.9c-0.4-0.5-0.9-1.1-1.4-1.4c-0.5-0.3-1.1-0.4-1.6-0.4c-0.5,0-0.9,0-1.3,0.4
				C551.9,281.9,551.4,282.4,550.8,282.8L550.8,282.8z"/>
		</g>
	</g>
</g>
</svg>
