<?xml version="1.0" encoding="utf-8"?>
<!-- Generator: Adobe Illustrator 24.3.0, SVG Export Plug-In . SVG Version: 6.00 Build 0)  -->
<svg version="1.1" id="Capa_1" xmlns="http://www.w3.org/2000/svg" xmlns:xlink="http://www.w3.org/1999/xlink" x="0px" y="0px"
	 viewBox="0 0 40 40" style="enable-background:new 0 0 40 40;" xml:space="preserve">
<style type="text/css">
	.st0{fill:#3B5998;}
</style>
<g>
	<g>
		<path class="st0" d="M27.6,0c0.8,0.1,1.6,0.2,2.4,0.2c0.3,0,0.4,0.1,0.4,0.4c0,1.9,0,3.7,0,5.6c0,0.3-0.1,0.4-0.4,0.4
			c-1.4,0-2.7-0.1-4.1,0.1c-0.4,0-0.7,0.1-1.1,0.2c-1,0.3-1.5,1-1.6,2c-0.1,0.4-0.1,0.7-0.1,1.1c0,1.4,0,2.8,0,4.1
			c0,0.3,0.1,0.4,0.4,0.4c2,0,4.1,0,6.1,0c0.5,0,0.5,0,0.5,0.5c-0.3,2.1-0.5,4.2-0.8,6.3c0,0.3-0.2,0.4-0.5,0.4c-1.7,0-3.4,0-5.1,0
			c-0.5,0-0.5,0-0.5,0.5c0,5.7,0,11.4,0,17c0,0.6,0,0.6-0.6,0.6c-2.1,0-4.1,0-6.2,0c-0.6,0-0.6,0-0.6-0.6c0-5.6,0-11.3,0-16.9
			c0-0.7,0-0.7-0.7-0.7c-1.6,0-3.3,0-4.9,0c-0.4,0-0.5-0.1-0.5-0.5c0-2.1,0-4.2,0-6.2c0-0.4,0.1-0.5,0.5-0.5c1.7,0,3.4,0,5.1,0
			c0.5,0,0.5,0,0.5-0.6c0-1.5,0-3,0-4.4c0-1.5,0.2-3,0.7-4.4c1.1-2.7,3.1-4.3,6-5c0.4-0.1,0.8-0.2,1.3-0.2C25,0,26.3,0,27.6,0z"/>
	</g>
</g>
<g>
	<path d="M74.9,40c-0.5,0-1,0-1.5,0c-1.2-0.3-2.2-1-3-1.8c-1.7-1.7-3-3.7-4.1-5.8c-1.3-2.5-2.1-5.1-2.5-7.9
		c-0.3-2.1-0.3-4.2,0.2-6.3c0.8-3,2.3-5.5,5.1-7.1c1.9-1.1,3.9-1.5,6.1-1c1.1,0.3,2.2,0.7,3.3,1.1c1,0.4,2,0.5,3.1,0
		c0.7-0.3,1.3-0.5,2-0.7c1.9-0.7,3.7-0.9,5.7-0.5c2.3,0.5,4.2,1.5,5.6,3.4c0.2,0.3,0.2,0.5-0.1,0.7c-1,0.7-2,1.5-2.6,2.5
		c-1.7,2.8-1.7,5.8-0.4,8.8c0.8,1.8,2.3,3,4,3.8c0.3,0.2,0.4,0.3,0.3,0.7c-1,2.9-2.6,5.4-4.5,7.8c-1,1.2-2.2,2.1-3.8,2.4
		c-0.3,0-0.6,0-0.9,0c-0.2,0-0.4-0.1-0.6-0.1c-0.9-0.2-1.8-0.5-2.7-0.9c-1.9-0.8-3.8-0.8-5.7,0C76.9,39.3,75.9,39.7,74.9,40z"/>
	<path d="M79.9,8.4c0.2-3,1.6-5.4,4.1-7c1.1-0.7,2.2-1.2,3.5-1.4c0.5-0.1,0.6,0,0.6,0.5c0,2.7-1,4.8-2.9,6.7c-1.1,1.1-2.3,1.8-3.8,2
		c-0.4,0.1-0.8,0-1.1,0c-0.3,0-0.4-0.1-0.4-0.4C79.9,8.7,79.9,8.6,79.9,8.4z"/>
</g>
<image style="overflow:visible;" width="1846" height="1843" xlink:href="972A58EC.png"  transform="matrix(2.168085e-02 0 0 2.168085e-02 -60.0091 0)">
</image>
</svg>
