<?xml version="1.0" encoding="utf-8"?>
<!-- Generator: Adobe Illustrator 24.3.0, SVG Export Plug-In . SVG Version: 6.00 Build 0)  -->
<svg version="1.1" id="Object" xmlns="http://www.w3.org/2000/svg" xmlns:xlink="http://www.w3.org/1999/xlink" x="0px" y="0px"
	 viewBox="0 0 1539.8 1293.9" style="enable-background:new 0 0 1539.8 1293.9;" xml:space="preserve">
<style type="text/css">
	.st0{fill:#ABC6ED;}
	.st1{fill:#0C2035;}
	.st2{fill:#FCC047;}
	.st3{fill:#FA963A;}
	.st4{fill:#FA772D;}
	.st5{fill:#E3D8DC;}
	.st6{fill:#F96248;}
	.st7{fill:#1E4066;}
	.st8{fill:#FFA192;}
	.st9{fill:#E25F52;}
	.st10{fill:#181818;}
	.st11{fill:#FFFFFF;}
</style>
<g>
	<g>
		<path class="st0" d="M180,381.3c5.8,36.8,35.4,69.1,31.3,106.2c-3.9,35.6-36.8,59.4-63.2,83.5c-48.9,44.5-84.3,106.2-88.2,172.3
			s27.5,135.3,84.8,168.4C223.1,956.9,326,928,409,964.1c56.1,24.5,95.4,75.1,139.7,117.3c44.3,42.2,104.1,78.9,163.6,64.5
			c88.7-21.5,118.1-137.8,197.2-183.3c56.9-32.7,128.3-22.6,191.7-5.5c63.4,17.1,128.1,40.3,193,30.4
			c89.3-13.6,162.8-96.8,165.2-187s-66.5-177.3-154.9-195.7c-34.1-7.1-69.3-4.9-104-6.8c-34.8-1.9-71-8.6-98.1-30.4
			c-27.2-21.8-41.8-62.2-25.1-92.8c18.4-33.8,63.3-41.3,93.1-65.6c39.9-32.6,47.2-94.6,25.4-141.2s-67.1-78.9-115.5-96.8
			c-134.3-49.6-300.3,11-371,135.6c-21.7,38.3-35.1,81.1-58.8,118.3c-23.7,37.1-62.1,69.5-106.1,68.6c-51.8-1-90.8-45.4-122.8-86.1
			c-32.1-40.9-74.1-121.7-131.9-129.7C224.4,268.7,180,321.7,180,381.3z"/>
	</g>
	<g>
		<circle class="st0" cx="1405.4" cy="495.3" r="57.5"/>
	</g>
	<g>
		<circle class="st0" cx="93.2" cy="303" r="57.5"/>
	</g>
	<g>
		<circle class="st0" cx="450.1" cy="1124.1" r="57.5"/>
	</g>
	<g>
		<circle class="st0" cx="1498.6" cy="646.6" r="21.9"/>
	</g>
	<g>
		<circle class="st0" cx="36.6" cy="452.6" r="21.9"/>
	</g>
</g>
<g>
	<g>
		<g>
			
				<rect x="1096.7" y="1076.7" transform="matrix(-0.9999 -1.423853e-02 1.423853e-02 -0.9999 2483.7698 2340.49)" class="st1" width="307" height="169.5"/>
		</g>
		<g>
			
				<rect x="972.7" y="1073.6" transform="matrix(0.9999 1.423853e-02 -1.423853e-02 0.9999 16.5979 -14.6156)" class="st1" width="124" height="169.5"/>
		</g>
		<g>
			
				<rect x="1226.8" y="1076.4" transform="matrix(-0.9999 -1.423853e-02 1.423853e-02 -0.9999 2490.6018 2340.3149)" class="st2" width="53.6" height="169.8"/>
		</g>
		<g>
			
				<rect x="1007.2" y="1073.5" transform="matrix(-0.9999 -1.423853e-02 1.423853e-02 -0.9999 2037.562 2330.9583)" class="st3" width="39.8" height="169.5"/>
		</g>
	</g>
	<g>
		<g>
			<g>
				
					<rect x="1087.1" y="1023.5" transform="matrix(-0.9999 -1.131790e-02 1.131790e-02 -0.9999 2493.1545 2123.4478)" class="st1" width="331" height="62.3"/>
			</g>
			<g>
				
					<rect x="964" y="1020.9" transform="matrix(0.9999 1.131790e-02 -1.131790e-02 0.9999 11.9732 -11.5398)" class="st1" width="123.1" height="62.3"/>
			</g>
			<g>
				
					<rect x="1221.1" y="1023.5" transform="matrix(-0.9999 -1.131790e-02 1.131790e-02 -0.9999 2498.7073 2124.1624)" class="st2" width="68.6" height="62.9"/>
			</g>
			<g>
				
					<rect x="993.2" y="1020.8" transform="matrix(-0.9999 -1.131790e-02 1.131790e-02 -0.9999 2021.3541 2115.647)" class="st3" width="46.9" height="62.5"/>
			</g>
		</g>
	</g>
	<g>
		<g>
			<path class="st3" d="M1091.7,1016.2c0,0-106.8-70.1-226.9,15.6l21.4-43.8l-48.1,5.4c0,0,100.8-82.6,215.3,3.1L1091.7,1016.2z"/>
		</g>
		<g>
			<path class="st3" d="M1249,1021.6c0,0,39.7-24.8,17.7-31.8s-32.6,1.4-32.6,1.4s-5.1-6.8-30.9-2.3c-25.8,4.6-13.4,24.2-13.4,24.2
				l22.9,10.1L1249,1021.6z"/>
		</g>
		<g>
			<path class="st2" d="M1447.3,957.5c-1.7,65.6-178,65.9-178,65.9l-11.3-0.1c2.8,0.3,280.6,25.2,272-89.6
				c-8.6-115.4-301.3,89.3-301.3,89.3l29.2,0.3C1258,1023.3,1449,892,1447.3,957.5z"/>
		</g>
		<g>
			<path class="st2" d="M1011.7,953.2c0.4,65.6,176.7,69.4,176.7,69.4l11.3,0.1c-2.8,0.2-281.1,19.7-270.2-94.9
				c10.9-115.2,299.5,95.2,299.5,95.2l-29.2-0.3C1199.6,1022.8,1011.3,887.6,1011.7,953.2z"/>
		</g>
		<g>
			<path class="st3" d="M1238.9,1023.5c0,0,136,3,179.7,143.9l9.4-47.8l35,33.4c0,0-30.3-126.7-173.3-127.8L1238.9,1023.5z"/>
		</g>
	</g>
</g>
<g>
	<g>
		<path class="st1" d="M497.2,450h-1.5c-0.6-35.4-6-68.8-16.1-99.1c-0.3-0.8,0.2-1.6,0.9-1.9c0.8-0.3,1.6,0.2,1.9,0.9
			c10.2,30.6,15.7,64.3,16.3,100L497.2,450z"/>
	</g>
	<g>
		<path class="st1" d="M442.8,277.9c-0.5,0-0.9-0.2-1.2-0.6c-18.3-24.3-34.4-35.6-34.6-35.7c-0.7-0.5-0.9-1.4-0.4-2.1
			c0.5-0.7,1.4-0.9,2.1-0.4c0.7,0.5,16.7,11.6,35.3,36.4c0.5,0.7,0.4,1.6-0.3,2.1C443.4,277.8,443.1,277.9,442.8,277.9z"/>
	</g>
	<g>
		<path class="st1" d="M534.3,451.5c-0.8,0-1.5-0.6-1.5-1.4c-6.3-81.4-0.4-150.3,17.6-204.7c0.3-0.8,1.1-1.2,1.9-1
			c0.8,0.3,1.2,1.1,1,1.9c-17.9,54-23.8,122.5-17.5,203.6c0,0,0,0.1,0,0.1C535.8,450.8,535.2,451.5,534.3,451.5z"/>
	</g>
	<g>
		<path class="st1" d="M567.8,209.2c-0.2,0-0.5-0.1-0.7-0.2c-0.7-0.4-1-1.3-0.6-2c16.5-31.5,32.4-42.8,33-43.3
			c0.7-0.5,1.6-0.3,2.1,0.4c0.5,0.7,0.3,1.6-0.4,2.1c-0.2,0.1-16,11.4-32.1,42.2C568.9,208.9,568.3,209.2,567.8,209.2z"/>
	</g>
	<g>
		<path class="st1" d="M547.1,451.5c-0.7,0-1.4-0.5-1.5-1.3c-5.2-35.8-0.7-67.4,13.2-94.1c11.5-21.9,26.6-34.8,34.7-40.5
			c0.7-0.5,1.6-0.3,2.1,0.3c0.5,0.7,0.3,1.6-0.3,2.1c-17.9,12.8-58.3,51.3-46.7,131.7c0.1,0.8-0.5,1.6-1.3,1.7
			C547.2,451.4,547.2,451.5,547.1,451.5z"/>
	</g>
	<g>
		<path class="st1" d="M511.2,451.4c-0.1,0-0.1,0-0.2,0c-0.8-0.1-1.4-0.8-1.3-1.7c11.4-104.5,0.1-185.8,0-186.6
			c-0.1-0.8,0.5-1.6,1.3-1.7c0.8-0.1,1.6,0.5,1.7,1.3c0.1,0.8,11.5,82.4,0,187.3C512.6,450.9,511.9,451.4,511.2,451.4z"/>
	</g>
	<g>
		<path class="st1" d="M524.6,451.4c0,0-0.1,0-0.1,0c-0.8-0.1-1.4-0.8-1.4-1.6c6-70.2-34.5-103.2-34.9-103.5
			c-0.6-0.5-0.8-1.5-0.2-2.1c0.5-0.6,1.5-0.8,2.1-0.2c0.4,0.3,10.7,8.6,20.4,25.9c8.9,15.9,18.8,42.7,15.6,80.2
			C526,450.9,525.3,451.4,524.6,451.4z"/>
	</g>
	<g>
		<path class="st1" d="M658.6,449.9v204.5c0,20.3-16.4,36.7-36.7,36.7H419.4c-20.3,0-36.7-16.4-36.7-36.7V449.9H658.6z"/>
	</g>
	<g>
		<circle class="st2" cx="376" cy="193.5" r="56.6"/>
	</g>
	<g>
		<path class="st3" d="M534.3,127.2c0,9-2.1,17.6-5.9,25.2c-5.4-1.7-11.2-2.7-17.3-2.7c-22.2,0-41.5,12.8-50.7,31.5h0
			c-22.9-7.3-39.4-28.7-39.4-54c0-31.3,25.4-56.6,56.6-56.6C508.9,70.6,534.3,95.9,534.3,127.2z"/>
	</g>
	<g>
		<path class="st2" d="M567.8,206.4c0,0.4,0,0.9,0,1.3c-0.3,14.8-6.3,28.2-15.9,38.1c0,0,0,0,0,0c-10.3,10.6-24.7,17.2-40.7,17.2
			c-31.3,0-56.6-25.4-56.6-56.6c0-9.1,2.1-17.6,5.9-25.2c9.3-18.7,28.5-31.5,50.7-31.5c6,0,11.8,0.9,17.3,2.7
			C551.3,159.7,567.8,181.1,567.8,206.4z"/>
	</g>
	<g>
		<path class="st3" d="M504.3,313c0,13-5.9,24.6-15.2,32.2c-2.5,2-5.2,3.8-8.1,5.2v0c-5.5,2.7-11.7,4.2-18.3,4.2
			c-23,0-41.6-18.6-41.6-41.6c0-15.8,8.8-29.5,21.7-36.6c5.9-3.2,12.7-5.1,19.9-5.1C485.7,271.3,504.3,290,504.3,313z"/>
	</g>
	<g>
		<path class="st2" d="M684.8,271.3c0,31.3-25.4,56.6-56.6,56.6c-12.7,0-24.3-4.1-33.8-11.2c-13.9-10.3-22.9-26.9-22.9-45.5
			c0-31.3,25.4-56.6,56.6-56.6S684.8,240,684.8,271.3z"/>
	</g>
	<g>
		<circle class="st2" cx="629.2" cy="122.2" r="51.6"/>
	</g>
	<g>
		<rect x="382.7" y="480.1" class="st2" width="275.9" height="31"/>
	</g>
	<g>
		<rect x="382.7" y="538.5" class="st2" width="275.9" height="31"/>
	</g>
</g>
<g>
	<g>
		<g>
			<g>
				
					<rect x="843.9" y="862.3" transform="matrix(0.9642 -0.2652 0.2652 0.9642 -249.5829 263.9452)" class="st1" width="17.7" height="388"/>
			</g>
		</g>
		<g>
			<g>
				
					<rect x="715" y="862.3" transform="matrix(0.9642 -0.2652 0.2652 0.9642 -254.2016 229.757)" class="st1" width="17.7" height="388"/>
			</g>
		</g>
		<g>
			<g>
				<rect x="686.8" y="912.9" class="st1" width="128.9" height="17.7"/>
			</g>
		</g>
		<g>
			<g>
				<rect x="709.8" y="996.4" class="st1" width="128.9" height="17.7"/>
			</g>
		</g>
		<g>
			<g>
				<rect x="732.7" y="1080" class="st1" width="128.9" height="17.7"/>
			</g>
		</g>
		<g>
			<g>
				<rect x="755.7" y="1163.5" class="st1" width="128.9" height="17.7"/>
			</g>
		</g>
	</g>
	<g>
		<g>
			<g>
				
					<rect x="37" y="1047.5" transform="matrix(0.2652 -0.9642 0.9642 0.2652 -848.7791 998.9207)" class="st1" width="388" height="17.7"/>
			</g>
		</g>
		<g>
			<g>
				
					<rect x="165.9" y="1047.5" transform="matrix(0.2652 -0.9642 0.9642 0.2652 -754.031 1123.2428)" class="st1" width="388" height="17.7"/>
			</g>
		</g>
		<g>
			<g>
				<rect x="268" y="912.9" class="st1" width="128.9" height="17.7"/>
			</g>
		</g>
		<g>
			<g>
				<rect x="245" y="996.4" class="st1" width="128.9" height="17.7"/>
			</g>
		</g>
		<g>
			<g>
				<rect x="222" y="1080" class="st1" width="128.9" height="17.7"/>
			</g>
		</g>
		<g>
			<g>
				<rect x="199" y="1163.5" class="st1" width="128.9" height="17.7"/>
			</g>
		</g>
	</g>
	<g>
		<g>
			<rect x="210.9" y="831.5" class="st1" width="654.8" height="56.8"/>
		</g>
	</g>
</g>
<g>
	<g>
		<g>
			<g>
				
					<rect x="227.8" y="544.9" transform="matrix(-1 -4.489976e-11 4.489976e-11 -1 889.8378 1376.606)" class="st3" width="434.3" height="286.9"/>
			</g>
		</g>
		<g>
			<g>
				<rect x="662" y="544.9" class="st2" width="186.2" height="286.9"/>
			</g>
		</g>
		<g>
			<g>
				<polygon class="st4" points="162.8,646.6 598.1,646.6 662,544.9 226.7,544.9 				"/>
			</g>
		</g>
		<g>
			<g>
				<polygon class="st3" points="878.1,646.6 689.7,646.6 662,544.9 850.4,544.9 				"/>
			</g>
		</g>
	</g>
	<g>
		<g>
			<g>
				<path class="st5" d="M364.5,700.6c0-9.2,2.4-16.6,7.3-22.1c4.9-5.5,11.6-8.2,20.2-8.2c8.6,0,15.3,2.7,20,8.1
					c4.7,5.4,7,12.8,7,22.3c0,9.5-2.3,16.8-7,22.1c-4.7,5.2-11.3,7.8-19.7,7.8c-8.5,0-15.2-2.7-20.2-8.1
					C367,717.1,364.5,709.8,364.5,700.6z M391.6,711.2c6.5,0,9.7-3.6,9.7-10.8c0-3.9-0.8-6.6-2.3-8.2c-1.5-1.6-4-2.4-7.4-2.4
					s-5.9,0.8-7.4,2.5c-1.6,1.7-2.3,4.4-2.3,8.2c0,3.8,0.8,6.6,2.4,8.2C386,710.4,388.4,711.2,391.6,711.2z M451.3,666.3
					c1.4-2.5,2.8-3.7,4.1-3.7c1.3,0,3.3,0.7,5.9,2.1c2.6,1.4,3.9,2.9,3.9,4.5c0,0.8-0.4,1.8-1.1,3.1l-62.6,118.2l-0.3,0.5
					c-1.2,2.2-2.4,3.2-3.7,3.2c-1.3,0-3.2-0.7-5.8-2c-2.6-1.3-3.9-2.7-3.9-4c0-1.3,0.4-2.6,1.1-3.9L451.3,666.3z M432.5,759.5
					c0-9.2,2.4-16.6,7.3-22.1s11.6-8.2,20.3-8.2c8.7,0,15.3,2.7,20,8.1c4.6,5.4,7,12.9,7,22.4s-2.3,16.9-7,22.1
					c-4.6,5.2-11.2,7.8-19.7,7.8c-8.5,0-15.3-2.7-20.3-8.2C435,776,432.5,768.7,432.5,759.5z M459.7,770.2c6.6,0,9.9-3.7,9.9-11
					c0-3.9-0.8-6.6-2.3-8.2c-1.6-1.6-4-2.4-7.4-2.4s-5.8,0.8-7.4,2.5c-1.5,1.7-2.3,4.4-2.3,8.3c0,3.9,0.8,6.7,2.3,8.3
					C454.1,769.4,456.5,770.2,459.7,770.2z"/>
			</g>
		</g>
		<g>
			<g>
				<path class="st2" d="M364.5,700.6c0-9.2,2.4-16.6,7.3-22.1c4.9-5.5,11.6-8.2,20.2-8.2c8.6,0,15.3,2.7,20,8.1
					c4.7,5.4,7,12.8,7,22.3c0,9.5-2.3,16.8-7,22.1c-4.7,5.2-11.3,7.8-19.7,7.8c-8.5,0-15.2-2.7-20.2-8.1
					C367,717.1,364.5,709.8,364.5,700.6z M391.6,711.2c6.5,0,9.7-3.6,9.7-10.8c0-3.9-0.8-6.6-2.3-8.2c-1.5-1.6-4-2.4-7.4-2.4
					s-5.9,0.8-7.4,2.5c-1.6,1.7-2.3,4.4-2.3,8.2c0,3.8,0.8,6.6,2.4,8.2C386,710.4,388.4,711.2,391.6,711.2z M451.3,666.3
					c1.4-2.5,2.8-3.7,4.1-3.7c1.3,0,3.3,0.7,5.9,2.1c2.6,1.4,3.9,2.9,3.9,4.5c0,0.8-0.4,1.8-1.1,3.1l-62.6,118.2l-0.3,0.5
					c-1.2,2.2-2.4,3.2-3.7,3.2c-1.3,0-3.2-0.7-5.8-2c-2.6-1.3-3.9-2.7-3.9-4c0-1.3,0.4-2.6,1.1-3.9L451.3,666.3z M432.5,759.5
					c0-9.2,2.4-16.6,7.3-22.1s11.6-8.2,20.3-8.2c8.7,0,15.3,2.7,20,8.1c4.6,5.4,7,12.9,7,22.4s-2.3,16.9-7,22.1
					c-4.6,5.2-11.2,7.8-19.7,7.8c-8.5,0-15.3-2.7-20.3-8.2C435,776,432.5,768.7,432.5,759.5z M459.7,770.2c6.6,0,9.9-3.7,9.9-11
					c0-3.9-0.8-6.6-2.3-8.2c-1.6-1.6-4-2.4-7.4-2.4s-5.8,0.8-7.4,2.5c-1.5,1.7-2.3,4.4-2.3,8.3c0,3.9,0.8,6.7,2.3,8.3
					C454.1,769.4,456.5,770.2,459.7,770.2z"/>
			</g>
		</g>
	</g>
	<g>
		<g>
			<g>
				<path class="st5" d="M693.9,700.6c0-9.2,2.4-16.6,7.3-22.1c4.9-5.5,11.6-8.2,20.2-8.2c8.6,0,15.3,2.7,20,8.1
					c4.7,5.4,7,12.8,7,22.3c0,9.5-2.3,16.8-7,22.1c-4.7,5.2-11.3,7.8-19.7,7.8c-8.5,0-15.2-2.7-20.2-8.1
					C696.4,717.1,693.9,709.8,693.9,700.6z M721,711.2c6.5,0,9.7-3.6,9.7-10.8c0-3.9-0.8-6.6-2.3-8.2c-1.5-1.6-4-2.4-7.4-2.4
					c-3.4,0-5.9,0.8-7.4,2.5c-1.6,1.7-2.3,4.4-2.3,8.2c0,3.8,0.8,6.6,2.4,8.2C715.4,710.4,717.8,711.2,721,711.2z M780.7,666.3
					c1.4-2.5,2.8-3.7,4.1-3.7c1.3,0,3.3,0.7,5.9,2.1c2.6,1.4,3.9,2.9,3.9,4.5c0,0.8-0.4,1.8-1.1,3.1l-62.6,118.2l-0.3,0.5
					c-1.2,2.2-2.4,3.2-3.7,3.2c-1.3,0-3.2-0.7-5.8-2c-2.6-1.3-3.9-2.7-3.9-4c0-1.3,0.4-2.6,1.1-3.9L780.7,666.3z M761.9,759.5
					c0-9.2,2.4-16.6,7.3-22.1s11.6-8.2,20.3-8.2c8.7,0,15.3,2.7,20,8.1c4.6,5.4,7,12.9,7,22.4s-2.3,16.9-7,22.1
					c-4.6,5.2-11.2,7.8-19.7,7.8c-8.5,0-15.3-2.7-20.3-8.2C764.4,776,761.9,768.7,761.9,759.5z M789.1,770.2c6.6,0,9.9-3.7,9.9-11
					c0-3.9-0.8-6.6-2.3-8.2c-1.6-1.6-4-2.4-7.4-2.4c-3.4,0-5.8,0.8-7.4,2.5c-1.5,1.7-2.3,4.4-2.3,8.3c0,3.9,0.8,6.7,2.3,8.3
					C783.5,769.4,785.9,770.2,789.1,770.2z"/>
			</g>
		</g>
		<g>
			<g>
				<path class="st3" d="M693.9,700.6c0-9.2,2.4-16.6,7.3-22.1c4.9-5.5,11.6-8.2,20.2-8.2c8.6,0,15.3,2.7,20,8.1
					c4.7,5.4,7,12.8,7,22.3c0,9.5-2.3,16.8-7,22.1c-4.7,5.2-11.3,7.8-19.7,7.8c-8.5,0-15.2-2.7-20.2-8.1
					C696.4,717.1,693.9,709.8,693.9,700.6z M721,711.2c6.5,0,9.7-3.6,9.7-10.8c0-3.9-0.8-6.6-2.3-8.2c-1.5-1.6-4-2.4-7.4-2.4
					c-3.4,0-5.9,0.8-7.4,2.5c-1.6,1.7-2.3,4.4-2.3,8.2c0,3.8,0.8,6.6,2.4,8.2C715.4,710.4,717.8,711.2,721,711.2z M780.7,666.3
					c1.4-2.5,2.8-3.7,4.1-3.7c1.3,0,3.3,0.7,5.9,2.1c2.6,1.4,3.9,2.9,3.9,4.5c0,0.8-0.4,1.8-1.1,3.1l-62.6,118.2l-0.3,0.5
					c-1.2,2.2-2.4,3.2-3.7,3.2c-1.3,0-3.2-0.7-5.8-2c-2.6-1.3-3.9-2.7-3.9-4c0-1.3,0.4-2.6,1.1-3.9L780.7,666.3z M761.9,759.5
					c0-9.2,2.4-16.6,7.3-22.1s11.6-8.2,20.3-8.2c8.7,0,15.3,2.7,20,8.1c4.6,5.4,7,12.9,7,22.4s-2.3,16.9-7,22.1
					c-4.6,5.2-11.2,7.8-19.7,7.8c-8.5,0-15.3-2.7-20.3-8.2C764.4,776,761.9,768.7,761.9,759.5z M789.1,770.2c6.6,0,9.9-3.7,9.9-11
					c0-3.9-0.8-6.6-2.3-8.2c-1.6-1.6-4-2.4-7.4-2.4c-3.4,0-5.8,0.8-7.4,2.5c-1.5,1.7-2.3,4.4-2.3,8.3c0,3.9,0.8,6.7,2.3,8.3
					C783.5,769.4,785.9,770.2,789.1,770.2z"/>
			</g>
		</g>
	</g>
</g>
<g>
	<g>
		<g>
			<g>
				<g>
					<path class="st6" d="M683.1,1237.9L683.1,1237.9c-0.1,3.1,2.3,5.7,5.4,5.9l168.9,7.2c23.2,1.5,34.2-5.8,31.9-28.2l-0.4-47.9
						l-107-9.2l-0.6,12.1l-5,7.6l-3.9,5.9l-3.1,4.7l-4.4,1.7l-8.7,3.4l-11.7,4.7l-53.9,21.5C686.3,1229,683.3,1233.1,683.1,1237.9z"
						/>
				</g>
			</g>
		</g>
		<g>
			<path class="st2" d="M771.9,1211.4c-1-6.6-4.1-12.6-9-17.2c-1-0.9-0.8-2.6,0.1-3.5c1-1,2.5-0.8,3.5,0.1
				c5.4,5.2,9.1,12.1,10.2,19.5c0.2,1.3-0.5,2.7-1.9,3C773.6,1213.5,772.1,1212.7,771.9,1211.4z"/>
		</g>
		<g>
			<path class="st2" d="M747.5,1194.3c5.9,6,10.7,13,14.1,20.7c0.5,1.2,0.2,2.7-1,3.4c-1.1,0.6-2.8,0.2-3.4-1
				c-3.2-7.3-7.7-13.9-13.3-19.6C741.6,1195.5,745.2,1192,747.5,1194.3z"/>
		</g>
	</g>
	<g>
		<g>
			<path class="st7" d="M973.4,586.8c0,0-133.2,331.4-196.6,586.9c0,0,97.9,7.6,122.9,7.6c107-122.1,178.3-466.5,178.3-466.5
				l37.9,482.1h96.3c0,0,71.7-479.8-43.8-607.1L973.4,586.8z"/>
		</g>
	</g>
	<g>
		<g>
			<path class="st6" d="M1199.2,1196.9l2,17.4c0,0,16.6,14,13.6,36.8h-129.7c0,0,5.9-26.4,29.5-37.5l11.4-16.7H1199.2z"/>
		</g>
	</g>
	<g>
		<g>
			<path class="st2" d="M1200.9,1198c0,0-0.1,0-0.1,0c-0.8,0-1.4-0.5-1.4-1.1c30.5-247.7,14.9-398.7-3.6-481.8
				c-20-90.1-47.6-121.9-47.9-122.3c-0.4-0.5-0.2-1.1,0.5-1.4c0.7-0.3,1.6-0.1,2,0.3c0.3,0.3,28.1,32.4,48.2,122.7
				c18.5,83.2,34.2,234.5,3.7,482.6C1202.4,1197.6,1201.7,1198,1200.9,1198z"/>
		</g>
	</g>
	<g>
		<g>
			<polygon class="st1" points="1078,714.8 1072.8,683.8 1046.2,676.5 1062.1,686.3 1069.8,745.7 			"/>
		</g>
	</g>
	<g>
		<path class="st6" d="M1192.3,338.3c15.8-15.8,21.6-40.7,14.5-61.8c-3-8.9-8.1-17.1-10.5-26.3c-2.6-9.9-1.8-20.3-0.8-30.4
			c1-10.2,2.2-20.4,0.6-30.5c-1.6-10.1-6.3-21.2-15.1-26.4c0,0,51.8-140.9-84.9-121.1c0,0-25.4-14.5-53.3,22.8
			c-18,24-19.7,45.7-18.6,58.1c-11.8,3.4-25.4,9.3-30.9,20.3c-6.1,12.2-0.2,27.2-3.7,40.3c-2.3,8.4-8.2,15.3-14.4,21.4
			c-6.2,6.1-12.8,12-17.2,19.6s-6,17.3-1.7,24.9c-10.9,11.8-15.2,29.4-12.8,45.2c2.4,15.9,12.2,30.4,26.1,38.5
			c11.9,7,26,9,39.8,10.7c49.3,6,99.1,8.5,148.8,7.4c6.4-0.1,12.9-0.4,19-2.3C1183.3,346.6,1187.7,342.9,1192.3,338.3z"/>
	</g>
	<g>
		<path class="st2" d="M1186.7,598.2h-216l-1.4-64.8l-19.6-72.8l-21.5-1.1c-11.5-181.5,94.9-182.2,94.9-182.2l28,8.1l87.8-1.6
			l41.3,12c32.4,9.4,57,35.7,64.3,68.6l18.4,83.1l-73.5,12.8l-5.1,0.9l-8.1-38L1186.7,598.2z"/>
	</g>
	<g>
		<path class="st8" d="M1042.7,273.4v-39c0,0-27.8-9.8-27.8-37.7s17-148.9,91.8-106c0,0-5.9,27.7,10.5,37.9
			c16.4,10.1,9.1,37.9,9.1,37.9s13.4-10.5,20.1,7.5s-16,28.3-29.2,25c0,0-3.6,65.7,5.9,81.3c0,0,11.7,3.5,15.7,3.5
			c0,0-13.9,30.2-68.1,27.1c-30.6-1.7-47.7-33.6-47.7-33.6S1038.9,275.1,1042.7,273.4z"/>
	</g>
	<g>
		
			<ellipse transform="matrix(0.9708 -0.2398 0.2398 0.9708 3.1143 254.5898)" class="st6" cx="1047.8" cy="114.5" rx="12.2" ry="3.6"/>
	</g>
	<g>
		
			<ellipse transform="matrix(0.8977 -0.4407 0.4407 0.8977 49.3854 500.6162)" class="st6" cx="1102.6" cy="144" rx="3.6" ry="12.2"/>
	</g>
	<g>
		<path class="st9" d="M1042.7,234.4c0,0,21.8,7.6,38.5,8.8c0,0-17.8,6.7-38.5,0V234.4z"/>
	</g>
	<g>
		<g>
			<path class="st9" d="M889.9,265.6c0,0-12-44-19.7-57.4c0,0,4.5-3,10.9,3.5c6.3,6.5,23.2,34,23.2,34L889.9,265.6z"/>
		</g>
		<g>
			<path class="st8" d="M906.7,321.8c0,0-21.6-50.8-16.2-57.4c5.4-6.6,8.2-23.8,25.8-27.5c17.6-3.8,22,7.4,36.2,7.3
				c0,0,0.4,10-8,12.2l10.7,4.1c0,0,2,11.2-12.8,9.7l14,11.9c0,0-3,6.5-10.4,4.5s-15-12-15-12l-2.6,0.8c0,0,16.9,20,15.9,29
				s-1.9,19.4-1.9,19.4s103.8,193.4,17,211.6C904.3,547,906.7,321.8,906.7,321.8z"/>
		</g>
		<g>
			<path class="st9" d="M944.5,256.3c0,0-14.3-6.9-18.9-6.9s-14.2,8.5-14.2,8.5s8.9-10.7,13.4-10.5c4.5,0.1,21.9,8.1,21.9,8.1
				L944.5,256.3z"/>
		</g>
		<g>
			<path class="st9" d="M942.4,270.1c0,0-8.6-8.9-15.1-7.3s-9.7,5.1-9.7,5.1s4.7-6.9,10.3-6.9c5.5,0,17.3,9.2,17.3,9.2L942.4,270.1z
				"/>
		</g>
	</g>
	<g>
		<path class="st3" d="M1189.3,460.4l-5.1,0.9l-8.1-38c0,0,3.9-29.4-0.7-51.3C1177.5,381.4,1189.6,437.3,1189.3,460.4z"/>
	</g>
	<g>
		<g>
			<path class="st10" d="M1036.7,191.5c-0.7,5.7-0.5,18.1,14.8,20.9c6-14.8,24-14.5,24-14.5c0.1-0.9,0.1-1.7,0.1-2.4
				C1066.9,196.3,1045.2,197.6,1036.7,191.5z"/>
		</g>
		<g>
			<path class="st11" d="M1037.3,188.6c0,0-0.3,1.1-0.6,2.9c8.5,6.1,30.2,4.8,38.9,4c0-2.3-0.3-4-0.3-4L1037.3,188.6z"/>
		</g>
		<g>
			<path class="st9" d="M1051.6,212.4c1.2,0.2,2.4,0.4,3.8,0.5c16,1.2,19.6-8.2,20.2-14.9C1075.6,197.9,1057.5,197.6,1051.6,212.4z"
				/>
		</g>
	</g>
	<g>
		<g>
			<path class="st8" d="M1267.7,518.9c39.7-51.1,108.3-139.2,109.9-144c13.2-8.9,23.9-20.5,31.9-34.3s13.4-28.9,17.3-44.3
				c0.7-2.7,1.3-5.5,1.1-8.3s-1.5-5.7-3.9-7.1c1.7-4.9,1.5-10.1,1.2-15.3c-0.1-2-0.8-4.4-2.7-4.9c-0.4-0.1-0.9-0.1-1.3,0
				c-3.1,0.8-3.2,3-3.9,5c1.4-3.5,1.9-7.4,1.3-11.1c-0.3-1.6-0.7-3.2-2-4.4c-0.4-0.3-0.8-0.6-1.3-0.7c-2.5-0.7-4.3,1.5-5.7,3.5
				c-1.5,2.2-3.5,4.7-5,6.9c1-3,2.1-6.2,0.8-9.2c-0.6-1.4-1.8-2.6-3.3-3c-2.6-0.6-4.4,1.2-5.7,3c-1.7,2.2-3.1,4.6-4.3,7
				c-8.8,17.8-14,37.9-26.2,53.6c-1.6-6.6-4.1-13-7.6-18.9c-0.4-0.6-0.8-1.2-1.4-1.6c-3.1-2.5-5.8,0.4-6.2,3.1
				c-0.3,2.1,0.3,4.1,0.5,6.2c1,8.9-4.5,17.1-6.2,25.9c-1.7,9.3,0.4,19,7,25.8c-3.4,2.8-88.7,76.1-136.7,117.1
				c-16.1,13.8-17.1,38.3-2.2,53.3l0,0C1228.6,537.8,1254.3,536.2,1267.7,518.9z"/>
		</g>
		<g>
			<path class="st9" d="M1377.1,321c-1.3-2.5-3-4.7-4.9-6.7c-1-1-2-1.9-3.1-2.7c-1-0.8-2.4-1.8-3.8-1.8c-0.9,0-1.3,0.8-1,1.6
				c0.4,1,1.6,1.7,2.4,2.5c0.9,0.9,1.9,1.7,2.7,2.7c1.7,1.8,3.1,3.9,4.2,6.1c1.1,2.1,2,4.4,2.5,6.7c0.3,1.2,0.5,2.4,0.6,3.7
				c0.1,0.6,0.1,1.3,0.2,1.9c0.1,0.7,0.4,1.2,0.6,1.9c0.3,0.9,1.7,1.4,2.2,0.3c0.3-0.6,0.6-1.1,0.7-1.8c0.1-0.7,0.1-1.5,0.1-2.2
				c-0.1-1.4-0.3-2.9-0.6-4.3C1379.5,326.1,1378.4,323.4,1377.1,321z"/>
		</g>
		<g>
			<path class="st9" d="M1403.3,259.3c-1.2,1.3-1.6,2.8-2.2,4.4c-0.6,1.7-1.2,3.3-1.8,5c-1.2,3.3-2.5,6.6-3.9,9.8
				c-1.3,3.2-2.7,6.4-4.1,9.6c-1.4,3.2-3.1,6.4-4.3,9.7c-0.5,1.3,1.4,2,2.1,0.9c1.9-2.9,3.4-6.2,4.8-9.3c1.5-3.2,2.9-6.3,4.3-9.5
				c1.4-3.2,2.6-6.4,3.9-9.5c0.7-1.6,1.3-3.3,1.9-4.9c0.6-1.7,1.5-3.4,1.3-5.2C1405.3,259.2,1404.1,258.5,1403.3,259.3z"/>
		</g>
		<g>
			<path class="st9" d="M1416.5,262.5c-1.3,1-1.6,3.2-2.1,4.7c-0.5,1.7-1.1,3.3-1.7,5c-1.2,3.4-2.5,6.8-3.9,10.1
				c-1.4,3.2-2.9,6.4-4.5,9.5c-0.8,1.6-1.6,3.1-2.5,4.6c-0.9,1.6-2,3.2-2.4,5c-0.3,1.2,1.1,2,2,1.2c1.4-1.2,2.2-2.9,3-4.4
				c0.9-1.6,1.8-3.2,2.6-4.8c1.7-3.3,3.3-6.6,4.7-9.9c1.5-3.3,2.9-6.7,4.2-10.1c0.6-1.6,1.2-3.3,1.7-5c0.5-1.6,1.6-3.6,1-5.3
				C1418.1,262.2,1417.2,262,1416.5,262.5z"/>
		</g>
		<g>
			<path class="st9" d="M1422.2,279.9c-1,0.8-1.2,2.3-1.7,3.5c-0.5,1.2-1,2.5-1.5,3.7c-1.1,2.6-2.1,5.1-3.3,7.7
				c-1.1,2.4-2.2,4.9-3.3,7.3c-1.1,2.4-2.7,4.9-3.2,7.5c-0.2,1,1,2,1.9,1.1c1.8-1.9,2.8-4.7,3.9-7c1.2-2.6,2.4-5.1,3.6-7.7
				c1.1-2.5,2.2-5,3.3-7.5c0.5-1.2,1.1-2.5,1.6-3.7c0.6-1.4,1.4-2.6,1.2-4.1C1424.5,279.3,1423,279.2,1422.2,279.9z"/>
		</g>
	</g>
	<g>
		<path class="st8" d="M1206.9,513.8l-22.6-52.4l8.4-1.5c0,0,41.7-7.7,41.7-7.2C1234.3,453.1,1206.9,513.8,1206.9,513.8z"/>
	</g>
	<g>
		<path class="st9" d="M1071.7,133.1c-1.4-0.4-2.6,0.5-3.1,1.7c-4.5,11.8-13.9,21.5-25.4,26.7c-1.2,0.6-1.5,2.3-0.9,3.4
			c0.7,1.3,2.2,1.4,3.4,0.9c12.7-5.7,22.7-16.6,27.7-29.7C1073.9,134.9,1072.9,133.4,1071.7,133.1z"/>
	</g>
	<g>
		<path class="st9" d="M1136,177.8c-5.6-0.1-11,1.2-16,3.6c-1.2,0.6-1.6,2.3-0.9,3.4c0.8,1.2,2.1,1.5,3.4,0.9c0.3-0.2,0.6-0.3,1-0.4
			c0.1,0,0.1-0.1,0.2-0.1c0,0,0.1,0,0.2-0.1c0.6-0.2,1.2-0.4,1.8-0.6c1.1-0.4,2.3-0.7,3.5-1c2.3-0.5,4.3-0.7,6.9-0.7
			c1.3,0,2.5-1.2,2.5-2.5C1138.4,179,1137.4,177.9,1136,177.8z"/>
	</g>
	<g>
		<path class="st10" d="M1046.1,146.1c-2.8-5.2-7.7-9.1-13.3-10.8c-1.2-0.4-2.8,0.4-3.1,1.7c-0.3,1.3,0.4,2.7,1.7,3.1
			c0.6,0.2,1.2,0.4,1.8,0.6c0.2,0.1,0.3,0.1,0.5,0.2c0.3,0.1,0.5,0.3,0.8,0.4c0.6,0.3,1.1,0.6,1.6,1c0.3,0.2,0.5,0.3,0.7,0.5
			c0.1,0.1,0.2,0.2,0.3,0.2c0,0,0.1,0.1,0.1,0.1c1,0.8,1.8,1.6,2.6,2.6c0.1,0.1,0.2,0.2,0.3,0.3c0,0,0,0,0,0c0,0,0,0,0,0
			c0.2,0.2,0.4,0.5,0.5,0.7c0.4,0.5,0.7,1.1,1,1.7c0.6,1.1,2.3,1.6,3.4,0.9C1046.4,148.8,1046.8,147.3,1046.1,146.1z"/>
	</g>
	<g>
		<path class="st10" d="M1094.9,162.2c-8.3-3.7-17.8-4.3-26.4-1.2c-1.3,0.5-2.1,1.7-1.7,3.1c0.3,1.2,1.8,2.2,3.1,1.7
			c7.3-2.6,15.5-2.5,22.6,0.7c1.2,0.6,2.7,0.4,3.4-0.9C1096.4,164.6,1096.1,162.8,1094.9,162.2z"/>
	</g>
	<g>
		<path class="st2" d="M1185.4,1217.7c-15.5-7.6-33.8-8.9-50.1-3.1c-1.3,0.4-2.1,1.7-1.7,3.1c0.3,1.2,1.8,2.2,3.1,1.7
			c15-5.3,32-4.5,46.3,2.6c1.2,0.6,2.7,0.3,3.4-0.9C1186.9,1220,1186.6,1218.3,1185.4,1217.7z"/>
	</g>
	<g>
		<path class="st2" d="M1177.6,1200.7c-10.3-2.9-21.1-3.4-31.6-1.8c-1.3,0.2-2.1,1.9-1.7,3.1c0.4,1.4,1.7,1.9,3.1,1.7
			c9.7-1.5,19.6-0.8,29,1.8C1179.4,1206.3,1180.7,1201.5,1177.6,1200.7z"/>
	</g>
</g>
<g>
	<path class="st1" d="M266.4,531C203.5,358.4,75.6,271.2,75.6,271.2l48.5-21.9C124.1,249.4,245.6,414.7,266.4,531z"/>
</g>
<g>
	<polygon class="st2" points="176.5,223.8 114.6,151.3 146.6,134.9 	"/>
</g>
<g>
	<polygon class="st1" points="810.2,227.5 854.7,118.1 885.7,136.4 	"/>
</g>
<g>
	<polygon class="st2" points="783.8,483.8 858.7,337.7 895.7,371.2 	"/>
</g>
</svg>
